/* XPM */
static char * closeA_xpm[] = {
"27 32 68 1",
" 	c None",
".	c #C1CFDB",
"+	c #C2D0DD",
"@	c #C4D1DE",
"#	c #C4D2DF",
"$	c #8A939C",
"%	c #3B3F43",
"&	c #C6D4E1",
"*	c #E6ECF2",
"=	c #E9EFF4",
"-	c #EDF2F6",
";	c #8B949C",
">	c #DFE7EF",
",	c #DBE5ED",
"'	c #D7E2EB",
")	c #C8D5E2",
"!	c #8C949D",
"~	c #E8EEF4",
"{	c #EAF0F5",
"]	c #E2EAF1",
"^	c #7A8289",
"/	c #C9D6E4",
"(	c #CAD8E6",
"_	c #8C959F",
":	c #3C4044",
"<	c #E7EDF4",
"[	c #E6EDF3",
"}	c #E3ECF1",
"|	c #E1E9F1",
"1	c #DEE7EF",
"2	c #CCD9E6",
"3	c #8D969F",
"4	c #E3EAF1",
"5	c #E1EAF1",
"6	c #CDDAE8",
"7	c #8E97A0",
"8	c #3D4045",
"9	c #DFE8F1",
"0	c #DFE8F0",
"a	c #DDE6EF",
"b	c #DAE4ED",
"c	c #8F98A0",
"d	c #3D4145",
"e	c #DCE6EF",
"f	c #D9E4ED",
"g	c #D7E3EC",
"h	c #CEDCE9",
"i	c #3D4146",
"j	c #D7E3ED",
"k	c #D8E4ED",
"l	c #8F98A2",
"m	c #D6E2ED",
"n	c #CFDDEB",
"o	c #9099A3",
"p	c #3E4246",
"q	c #D1DEED",
"r	c #D2DFEE",
"s	c #D3E1F0",
"t	c #D5E2F1",
"u	c #848D96",
"v	c #858E96",
"w	c #868F98",
"x	c #7B828B",
"y	c #869099",
"z	c #889199",
"A	c #88919A",
"B	c #89929B",
"C	c #8B949D",
"...........................",
"+++++++++++++++++++++++++++",
"@@@@@@@@@@@@@@@@@@@@@@@@@@@",
"###########################",
"$%%%$&$%%%$&&&&&&&&&&&&&&&&",
"%*=-%;%>,'%))))))))))))))))",
"!%~{=%]>,%^////////////////",
"(_:<[}|1:_(((((((((((((((((",
"223:45>:3222222222222222222",
"678901ab8766666666666666666",
"cdeeedfggdchhhhhhhhhhhhhhhh",
"ijkkilimmminnnnnnnnnnnnnnnn",
"opppoqopppoqqqqqqqqqqqqqqqq",
"rrrrrrrrrrrrrrrrrrrrrrrrrrr",
"sssssssssssssssssssssssssss",
"ttttttttttttttttttttttttttt",
"...........................",
"+++++++++++++++++++++++++++",
"@@@@@@@@@@@@@@@@@@@@@@@@@@@",
"###########################",
"u%%%u&u%%%u&&&&&&&&&&&&&&&&",
"%*=-%v%>,'%))))))))))))))))",
"w%~{=%]>,%x////////////////",
"(y:<[}|1:y(((((((((((((((((",
"22z:45>:z222222222222222222",
"6A8901ab8A66666666666666666",
"BdeeedfggdBhhhhhhhhhhhhhhhh",
"ijkki$immminnnnnnnnnnnnnnnn",
"CpppCqCpppCqqqqqqqqqqqqqqqq",
"rrrrrrrrrrrrrrrrrrrrrrrrrrr",
"sssssssssssssssssssssssssss",
"ttttttttttttttttttttttttttt"};
