/* XPM */
static char * closeI_xpm[] = {
"27 32 71 1",
" 	c None",
".	c #C1CFDB",
"+	c #C2D0DD",
"@	c #C4D1DE",
"#	c #C4D2DF",
"$	c #A3AEB9",
"%	c #767F87",
"&	c #C6D4E1",
"*	c #787F87",
"=	c #D9E2EB",
"-	c #DBE4EC",
";	c #DDE5ED",
">	c #A5AFBA",
",	c #D5DFE9",
"'	c #D3DEE8",
")	c #D0DCE7",
"!	c #C8D5E2",
"~	c #A5B0BB",
"{	c #788088",
"]	c #DBE4ED",
"^	c #DCE5EE",
"/	c #D7E1EB",
"(	c #D5E0EA",
"_	c #D3DEE9",
":	c #9CA5B0",
"<	c #C9D6E4",
"[	c #CAD8E6",
"}	c #A6B2BD",
"|	c #79818A",
"1	c #DAE4EE",
"2	c #DAE4ED",
"3	c #D8E3EC",
"4	c #D7E2EC",
"5	c #D5E0EB",
"6	c #CCD9E6",
"7	c #A8B2BD",
"8	c #7A828A",
"9	c #D9E3EC",
"0	c #CDDAE8",
"a	c #A9B3BE",
"b	c #7B828B",
"c	c #D7E2ED",
"d	c #D7E1EC",
"e	c #D6E1EC",
"f	c #D4E0EB",
"g	c #A9B5BF",
"h	c #7B848B",
"i	c #D6E2EC",
"j	c #D3E0EB",
"k	c #CEDCE9",
"l	c #7C848D",
"m	c #D3E0EC",
"n	c #D4E1EC",
"o	c #AAB5C1",
"p	c #CFDDEB",
"q	c #ACB6C2",
"r	c #7D858E",
"s	c #D1DEED",
"t	c #D2DFEE",
"u	c #D3E1F0",
"v	c #D5E2F1",
"w	c #A0ACB6",
"x	c #A2ACB7",
"y	c #A3ADB8",
"z	c #9CA6B1",
"A	c #A3AFBA",
"B	c #A5B0BA",
"C	c #A6B0BB",
"D	c #A7B2BC",
"E	c #A7B3BE",
"F	c #A9B4BF",
"...........................",
"+++++++++++++++++++++++++++",
"@@@@@@@@@@@@@@@@@@@@@@@@@@@",
"###########################",
"$%%%$&$%%%$&&&&&&&&&&&&&&&&",
"*=-;*>*,')*!!!!!!!!!!!!!!!!",
"~{]^]{/(_{:<<<<<<<<<<<<<<<<",
"[}|12345|}[[[[[[[[[[[[[[[[[",
"667893/87666666666666666666",
"0abc4defba00000000000000000",
"ghiiihfjjhgkkkkkkkkkkkkkkkk",
"lmnnlolmmmlpppppppppppppppp",
"qrrrqsqrrrqssssssssssssssss",
"ttttttttttttttttttttttttttt",
"uuuuuuuuuuuuuuuuuuuuuuuuuuu",
"vvvvvvvvvvvvvvvvvvvvvvvvvvv",
"...........................",
"+++++++++++++++++++++++++++",
"@@@@@@@@@@@@@@@@@@@@@@@@@@@",
"###########################",
"w%%%w&w%%%w&&&&&&&&&&&&&&&&",
"*=-;*x*,')*!!!!!!!!!!!!!!!!",
"y{]^]{/(_{z<<<<<<<<<<<<<<<<",
"[A|12345|A[[[[[[[[[[[[[[[[[",
"66B893/8B666666666666666666",
"0Cbc4defbC00000000000000000",
"DhiiihfjjhDkkkkkkkkkkkkkkkk",
"lmnnlElmmmlpppppppppppppppp",
"FrrrFsFrrrFssssssssssssssss",
"ttttttttttttttttttttttttttt",
"uuuuuuuuuuuuuuuuuuuuuuuuuuu",
"vvvvvvvvvvvvvvvvvvvvvvvvvvv"};
