/* XPM */
static char * closeO_xpm[] = {
"27 32 70 1",
" 	c None",
".	c #C1CFDB",
"+	c #C2D0DD",
"@	c #C4D1DE",
"#	c #C4D2DF",
"$	c #70777E",
"%	c #000000",
"&	c #C6D4E1",
"*	c #F3F7FA",
"=	c #F8FBFC",
"-	c #FEFFFF",
";	c #71787F",
">	c #E9F0F5",
",	c #E4ECF2",
"'	c #DEE8EF",
")	c #C8D5E2",
"!	c #727880",
"~	c #F6F9FB",
"{	c #F9FCFD",
"]	c #F8FAFC",
"^	c #EEF3F7",
"/	c #E9EFF5",
"(	c #E3ECF2",
"_	c #595E63",
":	c #C9D6E4",
"<	c #CAD8E6",
"[	c #727980",
"}	c #F4F7FA",
"|	c #F3F7F9",
"1	c #EFF5F7",
"2	c #EBF1F6",
"3	c #E7EEF3",
"4	c #CCD9E6",
"5	c #737A80",
"6	c #EEF2F7",
"7	c #EBF2F6",
"8	c #E8EEF4",
"9	c #CDDAE8",
"0	c #737A81",
"a	c #E8EFF5",
"b	c #E8EFF4",
"c	c #E6EDF3",
"d	c #E0E9F0",
"e	c #747B82",
"f	c #E3EBF2",
"g	c #E2EBF2",
"h	c #DEE8F0",
"i	c #DCE7EE",
"j	c #DBE6EE",
"k	c #CEDCE9",
"l	c #DBE6EF",
"m	c #DDE7EF",
"n	c #747B83",
"o	c #DAE5EE",
"p	c #CFDDEB",
"q	c #757C83",
"r	c #D1DEED",
"s	c #D2DFEE",
"t	c #D3E1F0",
"u	c #D5E2F1",
"v	c #686F75",
"w	c #697076",
"x	c #697077",
"y	c #5A5F65",
"z	c #6A7178",
"A	c #6A7278",
"B	c #6B7279",
"C	c #6B7379",
"D	c #6C737A",
"E	c #6D747B",
"...........................",
"+++++++++++++++++++++++++++",
"@@@@@@@@@@@@@@@@@@@@@@@@@@@",
"###########################",
"$%%%$&$%%%$&&&&&&&&&&&&&&&&",
"%*=-%;%>,'%))))))))))))))))",
"!%~{]%^/(%_::::::::::::::::",
"<[%}|123%[<<<<<<<<<<<<<<<<<",
"445%678%5444444444444444444",
"90%abc,d%099999999999999999",
"e%ffg%hij%ekkkkkkkkkkkkkkkk",
"%lmm%n%ooo%pppppppppppppppp",
"q%%%qrq%%%qrrrrrrrrrrrrrrrr",
"sssssssssssssssssssssssssss",
"ttttttttttttttttttttttttttt",
"uuuuuuuuuuuuuuuuuuuuuuuuuuu",
"...........................",
"+++++++++++++++++++++++++++",
"@@@@@@@@@@@@@@@@@@@@@@@@@@@",
"###########################",
"v%%%v&v%%%v&&&&&&&&&&&&&&&&",
"%*=-%w%>,'%))))))))))))))))",
"x%~{]%^/(%y::::::::::::::::",
"<z%}|123%z<<<<<<<<<<<<<<<<<",
"44A%678%A444444444444444444",
"9B%abc,d%B99999999999999999",
"C%ffg%hij%Ckkkkkkkkkkkkkkkk",
"%lmm%D%ooo%pppppppppppppppp",
"E%%%ErE%%%Errrrrrrrrrrrrrrr",
"sssssssssssssssssssssssssss",
"ttttttttttttttttttttttttttt",
"uuuuuuuuuuuuuuuuuuuuuuuuuuu"};
