/* XPM */
static char * frameATL_xpm[] = {
"6 19 31 1",
" 	c None",
".	c #4A4E51",
"+	c #DFE9F3",
"@	c #C0CDDA",
"#	c #C1CFDB",
"$	c #C2D0DD",
"%	c #DEE8F3",
"&	c #C4D1DE",
"*	c #C4D2DF",
"=	c #DDE8F2",
"-	c #C6D4E1",
";	c #DCE7F2",
">	c #C8D5E2",
",	c #DBE6F2",
"'	c #C9D6E4",
")	c #CAD8E6",
"!	c #DAE5F2",
"~	c #CCD9E6",
"{	c #D9E5F2",
"]	c #CDDAE8",
"^	c #D9E4F2",
"/	c #CEDCE9",
"(	c #D8E4F2",
"_	c #CFDDEB",
":	c #D7E4F1",
"<	c #D1DEED",
"[	c #D7E3F1",
"}	c #D2DFEE",
"|	c #D6E2F1",
"1	c #D3E1F0",
"2	c #D5E2F1",
"   ...",
"  .+++",
" .+@@@",
".+####",
".+$$$$",
".%&&&&",
".%****",
".=----",
".;>>>>",
".,''''",
".,))))",
".!~~~~",
".{]]]]",
".^////",
".(____",
".:<<<<",
".[}}}}",
".|1111",
".22222"};
