/* XPM */
static char * frameIBL_xpm[] = {
"22 22 7 1",
" 	c None",
".	c #4A4E51",
"+	c #D2E0EE",
"@	c #D0DDEC",
"#	c #CAD8E6",
"$	c #C4D2DF",
"%	c #BECCD7",
".++++++               ",
".++++++               ",
".++++++               ",
".++++++               ",
".++++++               ",
".++++++               ",
".++++++               ",
".++++++               ",
".++++++               ",
".++++++               ",
".++++++               ",
".++++++               ",
".++++++               ",
".++++++               ",
".++++++               ",
".+++++++++++++++++++++",
".+++++++++++++++++++++",
".@@@@@@@@@@@@@@@@@@@@@",
" .####################",
" .$$$$$$$$$$$$$$$$$$$$",
"  .%%%%%%%%%%%%%%%%%%%",
"   ..................."};
