/* XPM */
static char * maximizeO_xpm[] = {
"27 32 40 1",
" 	c None",
".	c #C1CFDB",
"+	c #C2D0DD",
"@	c #C4D1DE",
"#	c #C4D2DF",
"$	c #C6D4E1",
"%	c #000000",
"&	c #C8D5E2",
"*	c #FDFEFE",
"=	c #FAFCFD",
"-	c #F5F7FA",
";	c #EEF3F7",
">	c #E9EFF4",
",	c #E3EBF2",
"'	c #DDE7EF",
")	c #DAE5EE",
"!	c #C9D6E4",
"~	c #FAFBFD",
"{	c #F8FBFC",
"]	c #F4F7FA",
"^	c #E8EFF5",
"/	c #E2EBF2",
"(	c #DDE7EE",
"_	c #DBE5EE",
":	c #DAE6EE",
"<	c #CAD8E6",
"[	c #F5F8FA",
"}	c #CCD9E6",
"|	c #EFF3F8",
"1	c #CDDAE8",
"2	c #E9F0F5",
"3	c #CEDCE9",
"4	c #CFDDEB",
"5	c #DDE8EF",
"6	c #DCE7EF",
"7	c #DBE6EF",
"8	c #D1DEED",
"9	c #D2DFEE",
"0	c #D3E1F0",
"a	c #D5E2F1",
"...........................",
"+++++++++++++++++++++++++++",
"@@@@@@@@@@@@@@@@@@@@@@@@@@@",
"###########################",
"$$$$$$$%%%%%%%%%%%$$$$$$$$$",
"&&&&&&&%*=-;>,'))%&&&&&&&&&",
"!!!!!!!%~{];^/(_:%!!!!!!!!!",
"<<<<<<<%[%%%%%%%_%<<<<<<<<<",
"}}}}}}}%|%}}}}}%_%}}}}}}}}}",
"1111111%2%11111%)%111111111",
"3333333%,%%%%%%%:%333333333",
"4444444%567::___)%444444444",
"8888888%%%%%%%%%%%888888888",
"999999999999999999999999999",
"000000000000000000000000000",
"aaaaaaaaaaaaaaaaaaaaaaaaaaa",
"...........................",
"+++++++++++++++++++++++++++",
"@@@@@@@@@@@@@@@@@@@@@@@@@@@",
"###########################",
"$$$$$$$%%%%%%%%%%%$$$$$$$$$",
"&&&&&&&%*=-;>,'))%&&&&&&&&&",
"!!!!!!!%~{];^/(_:%!!!!!!!!!",
"<<<<<<<%[%%%%%%%_%<<<<<<<<<",
"}}}}}}}%|%}}}}}%_%}}}}}}}}}",
"1111111%2%11111%)%111111111",
"3333333%,%%%%%%%:%333333333",
"4444444%567::___)%444444444",
"8888888%%%%%%%%%%%888888888",
"999999999999999999999999999",
"000000000000000000000000000",
"aaaaaaaaaaaaaaaaaaaaaaaaaaa"};
