/* XPM */
static char * maximizeI_xpm[] = {
"27 32 53 1",
" 	c None",
".	c #C1CFDB",
"+	c #C2D0DD",
"@	c #C4D1DE",
"#	c #C4D2DF",
"$	c #C6D4E1",
"%	c #767F87",
"&	c #C8D5E2",
"*	c #787F87",
"=	c #DDE5ED",
"-	c #DCE4EC",
";	c #DAE2EB",
">	c #D7E1EA",
",	c #D5DFE9",
"'	c #D2DDE8",
")	c #D0DCE7",
"!	c #CFDBE6",
"~	c #C9D6E4",
"{	c #788088",
"]	c #DCE4EE",
"^	c #DBE4ED",
"/	c #DAE3EC",
"(	c #D7E1EB",
"_	c #D5E0EA",
":	c #D3DEE9",
"<	c #D1DCE8",
"[	c #D0DCE8",
"}	c #CFDCE8",
"|	c #CAD8E6",
"1	c #79818A",
"2	c #DBE4EE",
"3	c #D0DDE9",
"4	c #CCD9E6",
"5	c #7A828A",
"6	c #DAE3ED",
"7	c #D2DDE9",
"8	c #CDDAE8",
"9	c #7B828B",
"0	c #D8E2ED",
"a	c #D2DEEA",
"b	c #CEDCE9",
"c	c #7B848B",
"d	c #D6E2EC",
"e	c #D2E0EB",
"f	c #CFDDEB",
"g	c #7C848D",
"h	c #D4E1EC",
"i	c #D3E0EC",
"j	c #D1DEED",
"k	c #7D858E",
"l	c #D2DFEE",
"m	c #D3E1F0",
"n	c #D5E2F1",
"...........................",
"+++++++++++++++++++++++++++",
"@@@@@@@@@@@@@@@@@@@@@@@@@@@",
"###########################",
"$$$$$$$%%%%%%%%%%%$$$$$$$$$",
"&&&&&&&*=-;>,')!!*&&&&&&&&&",
"~~~~~~~{]^/(_:<[}{~~~~~~~~~",
"|||||||12111111131|||||||||",
"444444456544444575444444444",
"8888888909888889a9888888888",
"bbbbbbbcdcccccccecbbbbbbbbb",
"fffffffghhiiiiiiigfffffffff",
"jjjjjjjkkkkkkkkkkkjjjjjjjjj",
"lllllllllllllllllllllllllll",
"mmmmmmmmmmmmmmmmmmmmmmmmmmm",
"nnnnnnnnnnnnnnnnnnnnnnnnnnn",
"...........................",
"+++++++++++++++++++++++++++",
"@@@@@@@@@@@@@@@@@@@@@@@@@@@",
"###########################",
"$$$$$$$%%%%%%%%%%%$$$$$$$$$",
"&&&&&&&*=-;>,')!!*&&&&&&&&&",
"~~~~~~~{]^/(_:<[}{~~~~~~~~~",
"|||||||12111111131|||||||||",
"444444456544444575444444444",
"8888888909888889a9888888888",
"bbbbbbbcdcccccccecbbbbbbbbb",
"fffffffghhiiiiiiigfffffffff",
"jjjjjjjkkkkkkkkkkkjjjjjjjjj",
"lllllllllllllllllllllllllll",
"mmmmmmmmmmmmmmmmmmmmmmmmmmm",
"nnnnnnnnnnnnnnnnnnnnnnnnnnn"};
