/* XPM */
static char * maximizeA_xpm[] = {
"27 32 51 1",
" 	c None",
".	c #C1CFDB",
"+	c #C2D0DD",
"@	c #C4D1DE",
"#	c #C4D2DF",
"$	c #C6D4E1",
"%	c #3B3F43",
"&	c #C8D5E2",
"*	c #EDF1F5",
"=	c #EBF0F4",
"-	c #E7ECF2",
";	c #E2EAF0",
">	c #DFE7EE",
",	c #DAE4ED",
"'	c #D6E1EB",
")	c #D4E0EA",
"!	c #C9D6E4",
"~	c #EBEFF5",
"{	c #E9EFF4",
"]	c #E7EDF3",
"^	c #E2EAF1",
"/	c #DEE7EF",
"(	c #D7E1EB",
"_	c #D5E0EB",
":	c #D4E1EB",
"<	c #CAD8E6",
"[	c #3C4044",
"}	c #E8EEF4",
"|	c #D5E1EB",
"1	c #CCD9E6",
"2	c #E4EBF2",
"3	c #CDDAE8",
"4	c #3D4045",
"5	c #E0E9F1",
"6	c #D6E1EC",
"7	c #CEDCE9",
"8	c #3D4145",
"9	c #DCE6EF",
"0	c #D6E3EC",
"a	c #CFDDEB",
"b	c #3D4146",
"c	c #D8E4ED",
"d	c #D7E3ED",
"e	c #D6E3ED",
"f	c #D7E2ED",
"g	c #D6E2ED",
"h	c #D1DEED",
"i	c #3E4246",
"j	c #D2DFEE",
"k	c #D3E1F0",
"l	c #D5E2F1",
"...........................",
"+++++++++++++++++++++++++++",
"@@@@@@@@@@@@@@@@@@@@@@@@@@@",
"###########################",
"$$$$$$$%%%%%%%%%%%$$$$$$$$$",
"&&&&&&&%*=-;>,'))%&&&&&&&&&",
"!!!!!!!%~{]^/,(_:%!!!!!!!!!",
"<<<<<<<[}[[[[[[[|[<<<<<<<<<",
"1111111[2[11111['[111111111",
"333333345433333464333333333",
"777777789888888808777777777",
"aaaaaaabccdeefffgbaaaaaaaaa",
"hhhhhhhiiiiiiiiiiihhhhhhhhh",
"jjjjjjjjjjjjjjjjjjjjjjjjjjj",
"kkkkkkkkkkkkkkkkkkkkkkkkkkk",
"lllllllllllllllllllllllllll",
"...........................",
"+++++++++++++++++++++++++++",
"@@@@@@@@@@@@@@@@@@@@@@@@@@@",
"###########################",
"$$$$$$$%%%%%%%%%%%$$$$$$$$$",
"&&&&&&&%*=-;>,'))%&&&&&&&&&",
"!!!!!!!%~{]^/,(_:%!!!!!!!!!",
"<<<<<<<[}[[[[[[[|[<<<<<<<<<",
"1111111[2[11111['[111111111",
"333333345433333464333333333",
"777777789888888808777777777",
"aaaaaaabccdeefffgbaaaaaaaaa",
"hhhhhhhiiiiiiiiiiihhhhhhhhh",
"jjjjjjjjjjjjjjjjjjjjjjjjjjj",
"kkkkkkkkkkkkkkkkkkkkkkkkkkk",
"lllllllllllllllllllllllllll"};
