/* XPM */
static char * menuButtonI_xpm[] = {
"27 32 50 1",
" 	c None",
".	c #C1CFDB",
"+	c #C2D0DD",
"@	c #C4D1DE",
"#	c #C4D2DF",
"$	c #C6D4E1",
"%	c #A3AEB9",
"&	c #767F87",
"*	c #C8D5E2",
"=	c #787F87",
"-	c #D9E2EB",
";	c #DBE4EC",
">	c #DDE5ED",
",	c #A5AFBA",
"'	c #D5DFE9",
")	c #D3DEE8",
"!	c #D0DCE7",
"~	c #C9D6E4",
"{	c #A5B0BB",
"]	c #788088",
"^	c #DBE4ED",
"/	c #DCE5EE",
"(	c #D7E1EB",
"_	c #D5E0EA",
":	c #D3DEE9",
"<	c #9CA5B0",
"[	c #CAD8E6",
"}	c #A6B2BD",
"|	c #79818A",
"1	c #DAE4EE",
"2	c #DAE4ED",
"3	c #D8E3EC",
"4	c #D7E2EC",
"5	c #D5E0EB",
"6	c #CCD9E6",
"7	c #A8B2BD",
"8	c #7A828A",
"9	c #D9E3EC",
"0	c #CDDAE8",
"a	c #A4AEB9",
"b	c #7B828B",
"c	c #D7E1EC",
"d	c #CEDCE9",
"e	c #A4B0BA",
"f	c #7B848B",
"g	c #CFDDEB",
"h	c #D1DEED",
"i	c #D2DFEE",
"j	c #D3E1F0",
"k	c #D5E2F1",
"...........................",
"+++++++++++++++++++++++++++",
"@@@@@@@@@@@@@@@@@@@@@@@@@@@",
"###########################",
"$$$$$$$%&&&%$%&&&%$$$$$$$$$",
"*******=-;>=,=')!=*********",
"~~~~~~~{]^/^](_:]<~~~~~~~~~",
"[[[[[[[[}|12345|}[[[[[[[[[[",
"6666666667893(8766666666666",
"0000000000abcba000000000000",
"dddddddddddefeddddddddddddd",
"ggggggggggggggggggggggggggg",
"hhhhhhhhhhhhhhhhhhhhhhhhhhh",
"iiiiiiiiiiiiiiiiiiiiiiiiiii",
"jjjjjjjjjjjjjjjjjjjjjjjjjjj",
"kkkkkkkkkkkkkkkkkkkkkkkkkkk",
"...........................",
"+++++++++++++++++++++++++++",
"@@@@@@@@@@@@@@@@@@@@@@@@@@@",
"###########################",
"$$$$$$$%&&&%$%&&&%$$$$$$$$$",
"*******=-;>=,=')!=*********",
"~~~~~~~{]^/^](_:]<~~~~~~~~~",
"[[[[[[[[}|12345|}[[[[[[[[[[",
"6666666667893(8766666666666",
"0000000000abcba000000000000",
"dddddddddddefeddddddddddddd",
"ggggggggggggggggggggggggggg",
"hhhhhhhhhhhhhhhhhhhhhhhhhhh",
"iiiiiiiiiiiiiiiiiiiiiiiiiii",
"jjjjjjjjjjjjjjjjjjjjjjjjjjj",
"kkkkkkkkkkkkkkkkkkkkkkkkkkk"};
