/* XPM */
static char * menuButtonA_xpm[] = {
"27 32 45 1",
" 	c None",
".	c #C1CFDB",
"+	c #C2D0DD",
"@	c #C4D1DE",
"#	c #C4D2DF",
"$	c #C6D4E1",
"%	c #8A939C",
"&	c #3B3F43",
"*	c #C8D5E2",
"=	c #E6ECF2",
"-	c #E9EFF4",
";	c #EDF2F6",
">	c #8B949C",
",	c #DFE7EF",
"'	c #DBE5ED",
")	c #D7E2EB",
"!	c #C9D6E4",
"~	c #8C949D",
"{	c #E8EEF4",
"]	c #EAF0F5",
"^	c #E2EAF1",
"/	c #7A8289",
"(	c #CAD8E6",
"_	c #8C959F",
":	c #3C4044",
"<	c #E7EDF4",
"[	c #E6EDF3",
"}	c #E3ECF1",
"|	c #E1E9F1",
"1	c #DEE7EF",
"2	c #CCD9E6",
"3	c #8D969F",
"4	c #E3EAF1",
"5	c #E1EAF1",
"6	c #CDDAE8",
"7	c #858D97",
"8	c #3D4045",
"9	c #CEDCE9",
"0	c #868F97",
"a	c #3D4145",
"b	c #CFDDEB",
"c	c #D1DEED",
"d	c #D2DFEE",
"e	c #D3E1F0",
"f	c #D5E2F1",
"...........................",
"+++++++++++++++++++++++++++",
"@@@@@@@@@@@@@@@@@@@@@@@@@@@",
"###########################",
"$$$$$$$%&&&%$%&&&%$$$$$$$$$",
"*******&=-;&>&,')&*********",
"!!!!!!!~&{]-&^,'&/!!!!!!!!!",
"((((((((_:<[}|1:_((((((((((",
"2222222223:45,:322222222222",
"666666666678187666666666666",
"999999999990a09999999999999",
"bbbbbbbbbbbbbbbbbbbbbbbbbbb",
"ccccccccccccccccccccccccccc",
"ddddddddddddddddddddddddddd",
"eeeeeeeeeeeeeeeeeeeeeeeeeee",
"fffffffffffffffffffffffffff",
"...........................",
"+++++++++++++++++++++++++++",
"@@@@@@@@@@@@@@@@@@@@@@@@@@@",
"###########################",
"$$$$$$$%&&&%$%&&&%$$$$$$$$$",
"*******&=-;&>&,')&*********",
"!!!!!!!~&{]-&^,'&/!!!!!!!!!",
"((((((((_:<[}|1:_((((((((((",
"2222222223:45,:322222222222",
"666666666678187666666666666",
"999999999990a09999999999999",
"bbbbbbbbbbbbbbbbbbbbbbbbbbb",
"ccccccccccccccccccccccccccc",
"ddddddddddddddddddddddddddd",
"eeeeeeeeeeeeeeeeeeeeeeeeeee",
"fffffffffffffffffffffffffff"};
