/* XPM */
static char * menuButtonO_xpm[] = {
"27 32 47 1",
" 	c None",
".	c #C1CFDB",
"+	c #C2D0DD",
"@	c #C4D1DE",
"#	c #C4D2DF",
"$	c #C6D4E1",
"%	c #70777E",
"&	c #000000",
"*	c #C8D5E2",
"=	c #F3F7FA",
"-	c #F8FBFC",
";	c #FEFFFF",
">	c #71787F",
",	c #E9F0F5",
"'	c #E4ECF2",
")	c #DEE8EF",
"!	c #C9D6E4",
"~	c #727880",
"{	c #F6F9FB",
"]	c #F9FCFD",
"^	c #F8FAFC",
"/	c #EEF3F7",
"(	c #E9EFF5",
"_	c #E3ECF2",
":	c #595E63",
"<	c #CAD8E6",
"[	c #727980",
"}	c #F4F7FA",
"|	c #F3F7F9",
"1	c #EFF5F7",
"2	c #EBF1F6",
"3	c #E7EEF3",
"4	c #CCD9E6",
"5	c #737A80",
"6	c #EEF2F7",
"7	c #EBF2F6",
"8	c #E8EEF4",
"9	c #CDDAE8",
"0	c #666D74",
"a	c #E6EDF3",
"b	c #CEDCE9",
"c	c #676E74",
"d	c #CFDDEB",
"e	c #D1DEED",
"f	c #D2DFEE",
"g	c #D3E1F0",
"h	c #D5E2F1",
"...........................",
"+++++++++++++++++++++++++++",
"@@@@@@@@@@@@@@@@@@@@@@@@@@@",
"###########################",
"$$$$$$$%&&&%$%&&&%$$$$$$$$$",
"*******&=-;&>&,')&*********",
"!!!!!!!~&{]^&/(_&:!!!!!!!!!",
"<<<<<<<<[&}|123&[<<<<<<<<<<",
"4444444445&678&544444444444",
"99999999990&a&0999999999999",
"bbbbbbbbbbbc&cbbbbbbbbbbbbb",
"ddddddddddddddddddddddddddd",
"eeeeeeeeeeeeeeeeeeeeeeeeeee",
"fffffffffffffffffffffffffff",
"ggggggggggggggggggggggggggg",
"hhhhhhhhhhhhhhhhhhhhhhhhhhh",
"...........................",
"+++++++++++++++++++++++++++",
"@@@@@@@@@@@@@@@@@@@@@@@@@@@",
"###########################",
"$$$$$$$%&&&%$%&&&%$$$$$$$$$",
"*******&=-;&>&,')&*********",
"!!!!!!!~&{]^&/(_&:!!!!!!!!!",
"<<<<<<<<[&}|123&[<<<<<<<<<<",
"4444444445&678&544444444444",
"99999999990&a&0999999999999",
"bbbbbbbbbbbc&cbbbbbbbbbbbbb",
"ddddddddddddddddddddddddddd",
"eeeeeeeeeeeeeeeeeeeeeeeeeee",
"fffffffffffffffffffffffffff",
"ggggggggggggggggggggggggggg",
"hhhhhhhhhhhhhhhhhhhhhhhhhhh"};
