/* XPM */
static char * minimizeO_xpm[] = {
"27 32 20 1",
" 	c None",
".	c #C1CFDB",
"+	c #C2D0DD",
"@	c #C4D1DE",
"#	c #C4D2DF",
"$	c #C6D4E1",
"%	c #C8D5E2",
"&	c #C9D6E4",
"*	c #CAD8E6",
"=	c #CCD9E6",
"-	c #CDDAE8",
";	c #000000",
">	c #CEDCE9",
",	c #FFFFFF",
"'	c #CFDDEB",
")	c #DAE5EE",
"!	c #D1DEED",
"~	c #D2DFEE",
"{	c #D3E1F0",
"]	c #D5E2F1",
"...........................",
"+++++++++++++++++++++++++++",
"@@@@@@@@@@@@@@@@@@@@@@@@@@@",
"###########################",
"$$$$$$$$$$$$$$$$$$$$$$$$$$$",
"%%%%%%%%%%%%%%%%%%%%%%%%%%%",
"&&&&&&&&&&&&&&&&&&&&&&&&&&&",
"***************************",
"===========================",
"----------------;;;;;;;;;;;",
">>>>>>>>>>>>>>>>;,,,,,,,,,;",
"'''''''''''''''';)))))))));",
"!!!!!!!!!!!!!!!!;;;;;;;;;;;",
"~~~~~~~~~~~~~~~~~~~~~~~~~~~",
"{{{{{{{{{{{{{{{{{{{{{{{{{{{",
"]]]]]]]]]]]]]]]]]]]]]]]]]]]",
"...........................",
"+++++++++++++++++++++++++++",
"@@@@@@@@@@@@@@@@@@@@@@@@@@@",
"###########################",
"$$$$$$$$$$$$$$$$$$$$$$$$$$$",
"%%%%%%%%%%%%%%%%%%%%%%%%%%%",
"&&&&&&&&&&&&&&&&&&&&&&&&&&&",
"***************************",
"===========================",
"----------------;;;;;;;;;;;",
">>>>>>>>>>>>>>>>;,,,,,,,,,;",
"'''''''''''''''';)))))))));",
"!!!!!!!!!!!!!!!!;;;;;;;;;;;",
"~~~~~~~~~~~~~~~~~~~~~~~~~~~",
"{{{{{{{{{{{{{{{{{{{{{{{{{{{",
"]]]]]]]]]]]]]]]]]]]]]]]]]]]"};
