/* XPM */
static char * minimizeA_xpm[] = {
"27 32 23 1",
" 	c None",
".	c #C1CFDB",
"+	c #C2D0DD",
"@	c #C4D1DE",
"#	c #C4D2DF",
"$	c #C6D4E1",
"%	c #C8D5E2",
"&	c #C9D6E4",
"*	c #CAD8E6",
"=	c #CCD9E6",
"-	c #CDDAE8",
";	c #3D4045",
">	c #CEDCE9",
",	c #3D4145",
"'	c #F0F4F8",
")	c #CFDDEB",
"!	c #3D4146",
"~	c #D6E2ED",
"{	c #D1DEED",
"]	c #3E4246",
"^	c #D2DFEE",
"/	c #D3E1F0",
"(	c #D5E2F1",
"...........................",
"+++++++++++++++++++++++++++",
"@@@@@@@@@@@@@@@@@@@@@@@@@@@",
"###########################",
"$$$$$$$$$$$$$$$$$$$$$$$$$$$",
"%%%%%%%%%%%%%%%%%%%%%%%%%%%",
"&&&&&&&&&&&&&&&&&&&&&&&&&&&",
"***************************",
"===========================",
"----------------;;;;;;;;;;;",
">>>>>>>>>>>>>>>>,''''''''',",
"))))))))))))))))!~~~~~~~~~!",
"{{{{{{{{{{{{{{{{]]]]]]]]]]]",
"^^^^^^^^^^^^^^^^^^^^^^^^^^^",
"///////////////////////////",
"(((((((((((((((((((((((((((",
"...........................",
"+++++++++++++++++++++++++++",
"@@@@@@@@@@@@@@@@@@@@@@@@@@@",
"###########################",
"$$$$$$$$$$$$$$$$$$$$$$$$$$$",
"%%%%%%%%%%%%%%%%%%%%%%%%%%%",
"&&&&&&&&&&&&&&&&&&&&&&&&&&&",
"***************************",
"===========================",
"----------------;;;;;;;;;;;",
">>>>>>>>>>>>>>>>,''''''''',",
"))))))))))))))))!~~~~~~~~~!",
"{{{{{{{{{{{{{{{{]]]]]]]]]]]",
"^^^^^^^^^^^^^^^^^^^^^^^^^^^",
"///////////////////////////",
"((((((((((((((((((((((((((("};
