/* XPM */
static char * restoreO_xpm[] = {
"27 32 60 1",
" 	c None",
".	c #C1CFDB",
"+	c #C2D0DD",
"@	c #C4D1DE",
"#	c #C4D2DF",
"$	c #000000",
"%	c #C6D4E1",
"&	c #FDFEFE",
"*	c #FAFCFD",
"=	c #F5F7FA",
"-	c #EEF3F7",
";	c #E9EFF4",
">	c #E3EBF2",
",	c #DDE7EF",
"'	c #DAE5EE",
")	c #C8D5E2",
"!	c #FAFBFD",
"~	c #F8FBFC",
"{	c #F4F7FA",
"]	c #C9D6E4",
"^	c #F5F8FA",
"/	c #FCFCFD",
"(	c #FBFCFE",
"_	c #F6F9FB",
":	c #F1F5F9",
"<	c #EBF1F5",
"[	c #E5EDF2",
"}	c #DFE8F0",
"|	c #CAD8E6",
"1	c #EFF3F8",
"2	c #F9FBFC",
"3	c #EFF4F8",
"4	c #EAF0F5",
"5	c #E5EDF3",
"6	c #DEE9F0",
"7	c #DBE6EE",
"8	c #CCD9E6",
"9	c #E9F0F5",
"0	c #DAE6EE",
"a	c #CDDAE8",
"b	c #CEDCE9",
"c	c #DDE8EF",
"d	c #DCE7EF",
"e	c #DBE6EF",
"f	c #DBE5EE",
"g	c #CFDDEB",
"h	c #E3ECF2",
"i	c #D1DEED",
"j	c #DEE7EF",
"k	c #D2DFEE",
"l	c #D3E1F0",
"m	c #D5E2F1",
"n	c #FBFCFD",
"o	c #F5F9FA",
"p	c #EFF4F7",
"q	c #F5F8FB",
"r	c #E2EBF2",
"s	c #F6F8FB",
"t	c #F0F4F7",
"u	c #E9F0F4",
"...........................",
"+++++++++++++++++++++++++++",
"@@@@@@@@@@@@@@@@@@@@@@@@@@@",
"#####$$$$$$$$$$$###########",
"%%%%%$&*=-;>,''$%%%%%%%%%%%",
")))))$!~{-$$$$$$$$$$)))))))",
"]]]]]$^$$$$/(_:<[}'$]]]]]]]",
"|||||$1$||$2*^34567$|||||||",
"88888$9$88$=$$$$$$0$8888888",
"aaaaa$>$$$$3$$0$a$'$aaaaaaa",
"bbbbb$cde0$;$f'$b$'$bbbbbbb",
"ggggg$$$$$$h$$$$$$'$ggggggg",
"iiiiiiiiii$cjdf070'$iiiiiii",
"kkkkkkkkkk$$$$$$$$$$kkkkkkk",
"lllllllllllllllllllllllllll",
"mmmmmmmmmmmmmmmmmmmmmmmmmmm",
"...........................",
"+++++++++++++++++++++++++++",
"@@@@@@@@@@@@@@@@@@@@@@@@@@@",
"#####$$$$$$$$$$$###########",
"%%%%%$&*=-;>,''$%%%%%%%%%%%",
")))))$!~{-$$$$$$$$$$)))))))",
"]]]]]$^$$$$nnop9h,f$]]]]]]]",
"|||||$1$||$nnq39rdf$|||||||",
"88888$9$88$s$$$$$$0$8888888",
"aaaaa$>$$$$t$$0$a$f$aaaaaaa",
"bbbbb$cde0$u$f'$b$'$bbbbbbb",
"ggggg$$$$$$>$$$$$$'$ggggggg",
"iiiiiiiiii$d,d00007$iiiiiii",
"kkkkkkkkkk$$$$$$$$$$kkkkkkk",
"lllllllllllllllllllllllllll",
"mmmmmmmmmmmmmmmmmmmmmmmmmmm"};
