/* XPM */
static char * restoreI_xpm[] = {
"27 32 80 1",
" 	c None",
".	c #C1CFDB",
"+	c #C2D0DD",
"@	c #C4D1DE",
"#	c #C4D2DF",
"$	c #757E85",
"%	c #C6D4E1",
"&	c #767F87",
"*	c #DCE4EC",
"=	c #DAE4EC",
"-	c #D8E2EB",
";	c #D6E0E9",
">	c #D4DEE8",
",	c #D1DDE7",
"'	c #CFDBE6",
")	c #CEDAE6",
"!	c #C8D5E2",
"~	c #787F87",
"{	c #DBE4EC",
"]	c #D9E2EB",
"^	c #D7E1EA",
"/	c #C9D6E4",
"(	c #788088",
"_	c #DAE3EC",
":	c #DDE5EE",
"<	c #DBE4ED",
"[	c #D9E2EC",
"}	c #D6E0EA",
"|	c #D4DFE9",
"1	c #D1DDE8",
"2	c #CFDCE8",
"3	c #CAD8E6",
"4	c #79818A",
"5	c #D8E2ED",
"6	c #DCE6EE",
"7	c #DDE6EF",
"8	c #DBE4EE",
"9	c #D8E3ED",
"0	c #D6E1EC",
"a	c #D4E0EB",
"b	c #D2DEEA",
"c	c #D0DDE9",
"d	c #CCD9E6",
"e	c #7A828A",
"f	c #D7E2EC",
"g	c #DCE5EE",
"h	c #D1DEE9",
"i	c #CDDAE8",
"j	c #7B828B",
"k	c #D5E0EC",
"l	c #DAE4EE",
"m	c #CEDCE9",
"n	c #7B848B",
"o	c #D3E0EB",
"p	c #D2E0EB",
"q	c #D3DFEB",
"r	c #D2DFEB",
"s	c #CFDDEB",
"t	c #7C848D",
"u	c #D7E3ED",
"v	c #D3E0EC",
"w	c #D1DEED",
"x	c #7D858E",
"y	c #D5E2ED",
"z	c #D6E1ED",
"A	c #D5E1ED",
"B	c #D5E0ED",
"C	c #D4E1ED",
"D	c #D4E0ED",
"E	c #D2DFEE",
"F	c #7E858E",
"G	c #D3E1F0",
"H	c #D5E2F1",
"I	c #D5E0EA",
"J	c #D3DEE9",
"K	c #D1DCE8",
"L	c #D0DCE8",
"M	c #D3DFEA",
"N	c #D8E4ED",
"O	c #D7E2ED",
"...........................",
"+++++++++++++++++++++++++++",
"@@@@@@@@@@@@@@@@@@@@@@@@@@@",
"#####$$$$$$$$$$$###########",
"%%%%%&*=-;>,'))&%%%%%%%%%%%",
"!!!!!~*{]^~~~~~~~~~~!!!!!!!",
"/////(_((((::<[}|12(///////",
"3333345433467890abc43333333",
"dddddefeddegeeeeeeheddddddd",
"iiiiijkjjjjljjbjijbjiiiiiii",
"mmmmmnaoopn9nqrnmnrnmmmmmmm",
"sssssttttttuttttttvtsssssss",
"wwwwwwwwwwxyzABCACDxwwwwwww",
"EEEEEEEEEEFFFFFFFFFFEEEEEEE",
"GGGGGGGGGGGGGGGGGGGGGGGGGGG",
"HHHHHHHHHHHHHHHHHHHHHHHHHHH",
"...........................",
"+++++++++++++++++++++++++++",
"@@@@@@@@@@@@@@@@@@@@@@@@@@@",
"#####$$$$$$$$$$$###########",
"%%%%%&*=-;>,'))&%%%%%%%%%%%",
"!!!!!~*{]^~~~~~~~~~~!!!!!!!",
"/////(_((((::=-IJKL(///////",
"3333345433477890Mhc43333333",
"dddddefeddegeeeeeeheddddddd",
"iiiiijkjjjj8jjbjijbjiiiiiii",
"mmmmmnaoopnNnqrnmnrnmmmmmmm",
"sssssttttttOttttttvtsssssss",
"wwwwwwwwwwxAAACCCCAxwwwwwww",
"EEEEEEEEEEFFFFFFFFFFEEEEEEE",
"GGGGGGGGGGGGGGGGGGGGGGGGGGG",
"HHHHHHHHHHHHHHHHHHHHHHHHHHH"};
