/* XPM */
static char * restoreA_xpm[] = {
"27 32 83 1",
" 	c None",
".	c #C1CFDB",
"+	c #C2D0DD",
"@	c #C4D1DE",
"#	c #C4D2DF",
"$	c #3A3E42",
"%	c #C6D4E1",
"&	c #3B3F43",
"*	c #ECF1F5",
"=	c #EAF0F4",
"-	c #E6ECF2",
";	c #E2E9F0",
">	c #DEE6EE",
",	c #DAE4EC",
"'	c #D6E1EA",
")	c #D4DFEA",
"!	c #C8D5E2",
"~	c #EBEFF4",
"{	c #E9EFF4",
"]	c #E2EAF0",
"^	c #C9D6E4",
"/	c #E7EDF3",
"(	c #ECF0F5",
"_	c #ECF0F6",
":	c #E8EEF4",
"<	c #E5EBF2",
"[	c #E0E8EF",
"}	c #DCE6ED",
"|	c #D8E2EC",
"1	c #D4E0EB",
"2	c #CAD8E6",
"3	c #3C4044",
"4	c #E3EAF2",
"5	c #EAF0F5",
"6	c #EBF1F6",
"7	c #E3EBF2",
"8	c #E0E8F0",
"9	c #DCE6EF",
"0	c #D8E3ED",
"a	c #D5E1EB",
"b	c #CCD9E6",
"c	c #E0E9F0",
"d	c #D5E2EB",
"e	c #CDDAE8",
"f	c #3D4045",
"g	c #DCE5EF",
"h	c #E4ECF3",
"i	c #D6E2EC",
"j	c #D6E1EC",
"k	c #CEDCE9",
"l	c #3D4145",
"m	c #D8E4ED",
"n	c #D7E3ED",
"o	c #D6E3EC",
"p	c #D7E2EC",
"q	c #CFDDEB",
"r	c #3D4146",
"s	c #DDE7EF",
"t	c #D6E2ED",
"u	c #D1DEED",
"v	c #3E4246",
"w	c #D9E5EE",
"x	c #DAE4EE",
"y	c #D8E4EE",
"z	c #D8E2ED",
"A	c #D7E2ED",
"B	c #D2DFEE",
"C	c #D3E1F0",
"D	c #D5E2F1",
"E	c #E7EEF3",
"F	c #E3EBF1",
"G	c #DFE8EF",
"H	c #DBE5ED",
"I	c #D7E1EB",
"J	c #D5E0EB",
"K	c #ECF1F6",
"L	c #DFE8F0",
"M	c #DAE5EE",
"N	c #E9EEF4",
"O	c #E5ECF2",
"P	c #E0EAF0",
"Q	c #DDE6EF",
"R	c #D9E4EE",
"...........................",
"+++++++++++++++++++++++++++",
"@@@@@@@@@@@@@@@@@@@@@@@@@@@",
"#####$$$$$$$$$$$###########",
"%%%%%&*=-;>,'))&%%%%%%%%%%%",
"!!!!!&~{-]&&&&&&&&&&!!!!!!!",
"^^^^^&/&&&&(_:<[}|1&^^^^^^^",
"2222234322356:7890a32222222",
"bbbbb3c3bb3:333333d3bbbbbbb",
"eeeeefgffffhffifefjfeeeeeee",
"kkkkklmnnolclpilklilkkkkkkk",
"qqqqqrrrrrrsrrrrrrtrqqqqqqq",
"uuuuuuuuuuvwxyzn0nAvuuuuuuu",
"BBBBBBBBBBvvvvvvvvvvBBBBBBB",
"CCCCCCCCCCCCCCCCCCCCCCCCCCC",
"DDDDDDDDDDDDDDDDDDDDDDDDDDD",
"...........................",
"+++++++++++++++++++++++++++",
"@@@@@@@@@@@@@@@@@@@@@@@@@@@",
"#####$$$$$$$$$$$###########",
"%%%%%&*=-;>,'))&%%%%%%%%%%%",
"!!!!!&~{-]&&&&&&&&&&!!!!!!!",
"^^^^^&/&&&&((EFGHIJ&^^^^^^^",
"22222343223KK:7LMia32222222",
"bbbbb3c3bb3N333333d3bbbbbbb",
"eeeeefgffffOffifefjfeeeeeee",
"kkkkklmnnolPlpilklilkkkkkkk",
"qqqqqrrrrrrQrrrrrrtrqqqqqqq",
"uuuuuuuuuuvyRynnnn0vuuuuuuu",
"BBBBBBBBBBvvvvvvvvvvBBBBBBB",
"CCCCCCCCCCCCCCCCCCCCCCCCCCC",
"DDDDDDDDDDDDDDDDDDDDDDDDDDD"};
