/* XPM */
static char * desktop_xpm[] = {
"20 20 146 2",
"  	c None",
". 	c #A5A5A4",
"+ 	c #929290",
"@ 	c #91918F",
"# 	c #90908E",
"$ 	c #8F8F8D",
"% 	c #8E8E8C",
"& 	c #8D8D8C",
"* 	c #8C8C8B",
"= 	c #8B8B8A",
"- 	c #8A8A89",
"; 	c #898988",
"> 	c #888887",
", 	c #878786",
"' 	c #B1B1B1",
") 	c #6A6B67",
"! 	c #53544E",
"~ 	c #52524C",
"{ 	c #4F4F4A",
"] 	c #4D4D49",
"^ 	c #4B4B46",
"/ 	c #494945",
"( 	c #464643",
"_ 	c #444441",
": 	c #42423F",
"< 	c #3F3F3D",
"[ 	c #3D3D3B",
"} 	c #3A3A39",
"| 	c #323231",
"1 	c #232322",
"2 	c #818181",
"3 	c #676764",
"4 	c #4E4E4A",
"5 	c #4C4C48",
"6 	c #4A4A46",
"7 	c #484844",
"8 	c #464642",
"9 	c #434340",
"0 	c #41413E",
"a 	c #3E3E3D",
"b 	c #3C3C3A",
"c 	c #393938",
"d 	c #2E2E2D",
"e 	c #1F1F1F",
"f 	c #161616",
"g 	c #131313",
"h 	c #7E7E7E",
"i 	c #636361",
"j 	c #484845",
"k 	c #41413F",
"l 	c #3B3B39",
"m 	c #373735",
"n 	c #2C2C2B",
"o 	c #1B1B1B",
"p 	c #151515",
"q 	c #141414",
"r 	c #60605E",
"s 	c #424240",
"t 	c #40403E",
"u 	c #3E3E3C",
"v 	c #373736",
"w 	c #2F2F2D",
"x 	c #1D1D1C",
"y 	c #5C5C5B",
"z 	c #383836",
"A 	c #363634",
"B 	c #333331",
"C 	c #242423",
"D 	c #171717",
"E 	c #585857",
"F 	c #353533",
"G 	c #343432",
"H 	c #313130",
"I 	c #232323",
"J 	c #1D1D1D",
"K 	c #1E1E1E",
"L 	c #181818",
"M 	c #555554",
"N 	c #323230",
"O 	c #333332",
"P 	c #282827",
"Q 	c #272727",
"R 	c #2A2A2A",
"S 	c #2C2C2C",
"T 	c #2B2B2B",
"U 	c #222222",
"V 	c #525251",
"W 	c #30302F",
"X 	c #303030",
"Y 	c #2E2E2E",
"Z 	c #333333",
"` 	c #373737",
" .	c #393939",
"..	c #363636",
"+.	c #323232",
"@.	c #2D2D2D",
"#.	c #202020",
"$.	c #7F7F7F",
"%.	c #50504F",
"&.	c #282828",
"*.	c #353535",
"=.	c #3C3C3C",
"-.	c #424242",
";.	c #464646",
">.	c #454545",
",.	c #414141",
"'.	c #3B3B3B",
").	c #343434",
"!.	c #252525",
"~.	c #1C1C1C",
"{.	c #808080",
"].	c #979797",
"^.	c #787878",
"/.	c #7C7C7C",
"(.	c #868686",
"_.	c #8B8B8B",
":.	c #8F8F8F",
"<.	c #939393",
"[.	c #929292",
"}.	c #8A8A8A",
"|.	c #858585",
"1.	c #7B7B7B",
"2.	c #757575",
"3.	c #AFAFAF",
"4.	c #D1D1D1",
"5.	c #D5D5D5",
"6.	c #D6D6D6",
"7.	c #D3D3D3",
"8.	c #D0D0D0",
"9.	c #CACACA",
"0.	c #A7A7A7",
"a.	c #B2B2B2",
"b.	c #A2A2A2",
"c.	c #C7C7C7",
"d.	c #DEDEDE",
"e.	c #C9C9C9",
"f.	c #B5B5B5",
"g.	c #DCDCDC",
"h.	c #E1E1E1",
"i.	c #E7E7E7",
"j.	c #EDEDED",
"k.	c #E5E5E5",
"l.	c #C3C3C3",
"m.	c #DADADA",
"n.	c #CCCCCC",
"o.	c #CDCDCD",
"                                        ",
"                                        ",
"    . + @ # # $ % & * = = - ; > , '     ",
"    ) ! ~ { ] ^ / ( _ : < [ } | 1 2     ",
"    3 4 5 6 7 8 9 0 a b c d e f g h     ",
"    i j ( _ k < [ l m n o p p p q h     ",
"    r s t u b c v w x p p p p p q h     ",
"    y b } z A B C D p p p p p p q h     ",
"    E m F G H I J K K J o L f p q h     ",
"    M N O | P Q R S T R Q U J L q h     ",
"    V W X R Y Z `  . ...+.@.Q #.L $.    ",
"    %.T &.Y *.=.-.;.>.,.'.).@.!.~.{.    ",
"    ].^./.2 (._.:.<.[.:.}.|.{.1.2.3.    ",
"    4.5.5.6.6.6.6.6.6.6.6.5.7.7.8.9.    ",
"                0.a.0.b.                ",
"                c.d.e.f.                ",
"            g.h.i.j.5.9.k.l.            ",
"            b.6.m.7.n.m.o.              ",
"                                        ",
"                                        "};
