/* XPM */
static char * errmail_xpm[] = {
"16 15 37 1",
" 	c None",
".	c #888A85",
"+	c #FFFFFF",
"@	c #D9D6D0",
"#	c #C9C7C1",
"$	c #C1BFBA",
"%	c #AFACA9",
"&	c #A1A09A",
"*	c #A8A7A1",
"=	c #BEBDB9",
"-	c #CECDCA",
";	c #CFCECC",
">	c #C6C5C5",
",	c #BDBDBD",
"'	c #E4E4E3",
")	c #B9B8B3",
"!	c #95948E",
"~	c #CA8F8D",
"{	c #A40000",
"]	c #993F39",
"^	c #F7F7F7",
"/	c #AFAEAC",
"(	c #F5F5F5",
"_	c #DF421E",
":	c #DD3B1B",
"<	c #E6E5E2",
"[	c #AAA9A7",
"}	c #F8D9D2",
"|	c #CC0000",
"1	c #D92E15",
"2	c #FBFBF8",
"3	c #E2E2DF",
"4	c #F0EFED",
"5	c #FBFAF7",
"6	c #B2B1AE",
"7	c #C9C7C4",
"8	c #F0F0F0",
"                ",
"      .....     ",
"     .+++++.    ",
"    .+@#$%&+.   ",
"   .+@*=-;>,+.  ",
"  .')!~{{{{{{{{]",
"  .^/({_______:{",
"  .+<[{_+}||}+1{",
"  .+23{_}++++}1{",
"  .+24{_|++++|1{",
"  .+56{_|++++|1{",
"  .+72{_}++++}1{",
"  .8++{_+}||}+1{",
"  ....{:1111111{",
"      {{{{{{{{{{"};
