/* XPM */
static char * nomail_xpm[] = {
"16 15 74 1",
" 	c None",
".	c #888A85",
"+	c #8B8C81",
"@	c #D88F2D",
"#	c #FAB613",
"$	c #FFBA1A",
"%	c #FFB211",
"&	c #FFFFFF",
"*	c #FFB672",
"=	c #FFBE40",
"-	c #F8B835",
";	c #FEBF63",
">	c #FFBF4F",
",	c #D9D6D0",
"'	c #C9C7C1",
")	c #C1BFBA",
"!	c #D9974F",
"~	c #EDAC26",
"{	c #FFBE47",
"]	c #FDC083",
"^	c #A8A7A1",
"/	c #BEBDB9",
"(	c #CECDCA",
"_	c #E4A56C",
":	c #EEAF3C",
"<	c #FAB924",
"[	c #E4E4E3",
"}	c #B9B8B3",
"|	c #95948E",
"1	c #DBDAD9",
"2	c #ECECEB",
"3	c #F5F5F5",
"4	c #FFC078",
"5	c #F0AF29",
"6	c #FAB93B",
"7	c #CF8836",
"8	c #F7F7F7",
"9	c #AFAEAC",
"0	c #EBEBEB",
"a	c #E7A97C",
"b	c #E3A36D",
"c	c #FAB382",
"d	c #E6E5E2",
"e	c #AAA9A7",
"f	c #E1E1E1",
"g	c #D8D8D8",
"h	c #CFCFCF",
"i	c #A6A5A1",
"j	c #F3F3F2",
"k	c #FBFBF8",
"l	c #E2E2DF",
"m	c #929191",
"n	c #B6B4B3",
"o	c #BCBBB7",
"p	c #A1A0A0",
"q	c #F7F5F3",
"r	c #F0EFED",
"s	c #A5A29D",
"t	c #908D87",
"u	c #F9F7F3",
"v	c #F2F0EC",
"w	c #FBFAF7",
"x	c #B2B1AE",
"y	c #F9F8F4",
"z	c #E9E7E2",
"A	c #C9C7C4",
"B	c #F7F5F1",
"C	c #FAF9F6",
"D	c #F8F6F2",
"E	c #FAF8F5",
"F	c #F7F5F2",
"G	c #EBE8E3",
"H	c #CFCECA",
"I	c #F0F0F0",
"                ",
"      ...+@#$%  ",
"     .&&&*=-;>% ",
"    .&,')!~{];$ ",
"   .&,^/(_:<{-# ",
"  .[}|123&4:567 ",
"  .893&&&&0abc. ",
"  .&de00fghij&. ",
"  .&klmnnopjq&. ",
"  .&krskkktuv&. ",
"  .&wxkkkyyoz&. ",
"  .&AkBCDEFGH&. ",
"  .I&&&&&&&&&I. ",
"  ............. ",
"                "};
