/* XPM */
static char * icewm_xpm[] = {
"52 22 226 2",
"  	c None",
". 	c #FFFFFF",
"+ 	c #404040",
"@ 	c #D6D2C5",
"# 	c #808080",
"$ 	c #EDB076",
"% 	c #F4A761",
"& 	c #FDAC61",
"* 	c #F7853D",
"= 	c #D49979",
"- 	c #EAB77F",
"; 	c #FC9F45",
"> 	c #FE9231",
", 	c #FDA045",
"' 	c #FFA858",
") 	c #FA6B16",
"! 	c #D0410A",
"~ 	c #BDABA1",
"{ 	c #ADBE91",
"] 	c #BCCA95",
"^ 	c #C7CDAE",
"/ 	c #C8D2A6",
"( 	c #BBD582",
"_ 	c #F0AF62",
": 	c #FF8620",
"< 	c #FF8721",
"[ 	c #FFAB57",
"} 	c #FF9440",
"| 	c #F0590C",
"1 	c #B03E18",
"2 	c #55633D",
"3 	c #74A633",
"4 	c #91C633",
"5 	c #A5D24C",
"6 	c #ACE343",
"7 	c #91CB25",
"8 	c #B8B6AE",
"9 	c #DACDBD",
"0 	c #F7A743",
"a 	c #FC952C",
"b 	c #FE8E23",
"c 	c #FFB561",
"d 	c #FF8229",
"e 	c #E24C07",
"f 	c #98492C",
"g 	c #456B36",
"h 	c #7EA921",
"i 	c #81C20A",
"j 	c #96E50D",
"k 	c #A4FB0B",
"l 	c #80BD0F",
"m 	c #B7B4AC",
"n 	c #DAC7AD",
"o 	c #F88712",
"p 	c #F38719",
"q 	c #E48425",
"r 	c #E79242",
"s 	c #F35809",
"t 	c #D03605",
"u 	c #4D772B",
"v 	c #85B71F",
"w 	c #85CC0B",
"x 	c #96E50B",
"y 	c #9DF307",
"z 	c #84A345",
"A 	c #A7A49F",
"B 	c #D4AD7A",
"C 	c #000000",
"D 	c #5D98B8",
"E 	c #D4D0A6",
"F 	c #810000",
"G 	c #00007A",
"H 	c #B0D0C8",
"I 	c #C1B98D",
"J 	c #A88567",
"K 	c #9F735E",
"L 	c #646B78",
"M 	c #5B5C66",
"N 	c #743A24",
"O 	c #89230A",
"P 	c #3A6418",
"Q 	c #6C9322",
"R 	c #8AC11B",
"S 	c #8AD30B",
"T 	c #9DEE0B",
"U 	c #97EC04",
"V 	c #808C62",
"W 	c #A5A19D",
"X 	c #007EA6",
"Y 	c #A5AFC7",
"Z 	c #4A7EE3",
"` 	c #4B7DF2",
" .	c #86A8F8",
"..	c #7194F3",
"+.	c #3558DA",
"@.	c #39536B",
"#.	c #355A29",
"$.	c #80AA29",
"%.	c #83C80E",
"&.	c #8EE008",
"*.	c #9AF707",
"=.	c #87D011",
"-.	c #848578",
";.	c #ADA9A4",
">.	c #C39859",
",.	c #B07E00",
"'.	c #B0C092",
").	c #5D0000",
"!.	c #D4C092",
"~.	c #005C92",
"{.	c #C3AD7A",
"].	c #817E00",
"^.	c #7F93EB",
"/.	c #5079FF",
"(.	c #7191FF",
"_.	c #AAC0FF",
":.	c #7A95FF",
"<.	c #394DF3",
"[.	c #4155A0",
"}.	c #76893F",
"|.	c #889A56",
"1.	c #87A449",
"2.	c #94A946",
"3.	c #959957",
"4.	c #86867E",
"5.	c #B8B5AE",
"6.	c #D4D0B8",
"7.	c #9B5C00",
"8.	c #000059",
"9.	c #9BC0C8",
"0.	c #005C59",
"a.	c #B0D0A6",
"b.	c #6482F5",
"c.	c #567DFF",
"d.	c #829FFF",
"e.	c #A6BCFF",
"f.	c #627FFD",
"g.	c #3342E2",
"h.	c #445A4D",
"i.	c #B69001",
"j.	c #DFB51C",
"k.	c #D9BC32",
"l.	c #DDC531",
"m.	c #FED814",
"n.	c #C0A84E",
"o.	c #A7A4A1",
"p.	c #C4C0B9",
"q.	c #BDBFD2",
"r.	c #6781F1",
"s.	c #5D83FF",
"t.	c #9FB9FF",
"u.	c #99B4FF",
"v.	c #4D67FC",
"w.	c #3945BC",
"x.	c #5E6A2E",
"y.	c #BC9707",
"z.	c #E0B50A",
"A.	c #FFCF08",
"B.	c #FFDC07",
"C.	c #FBD613",
"D.	c #A19773",
"E.	c #B3B1AC",
"F.	c #C4BFB7",
"G.	c #C3D0A6",
"H.	c #D4D0C8",
"I.	c #C3D0C8",
"J.	c #A2ABDB",
"K.	c #5F7AEF",
"L.	c #627EF2",
"M.	c #8697ED",
"N.	c #7188F9",
"O.	c #4054FA",
"P.	c #314689",
"Q.	c #92830D",
"R.	c #C9A20B",
"S.	c #EABC0B",
"T.	c #FED10B",
"U.	c #FFD90A",
"V.	c #F6CF17",
"W.	c #999689",
"X.	c #B5B1AD",
"Y.	c #7B8E80",
"Z.	c #677166",
"`.	c #6E7B6D",
" +	c #566754",
".+	c #4B5C76",
"++	c #3147BE",
"@+	c #445A5C",
"#+	c #AD8E05",
"$+	c #D8AF09",
"%+	c #F6C60B",
"&+	c #FFDD09",
"*+	c #E4BF1E",
"=+	c #989693",
"-+	c #BBB8B2",
";+	c #5D5C00",
">+	c #C9C7BE",
",+	c #B7B9AE",
"'+	c #ADB2A6",
")+	c #A7ABA2",
"!+	c #989B8F",
"~+	c #8F9585",
"{+	c #577845",
"]+	c #949633",
"^+	c #CFAB1B",
"/+	c #F8C90A",
"(+	c #F1CE12",
"_+	c #F0CC14",
":+	c #A8984E",
"<+	c #A09E9A",
"[+	c #C2BFB8",
"}+	c #BEBEB5",
"|+	c #ACB5A4",
"1+	c #A8AC9F",
"2+	c #94907D",
"3+	c #98906D",
"4+	c #8C8567",
"5+	c #86837C",
"6+	c #BAB6B0",
"7+	c #B2ACA2",
"8+	c #C8C5BD",
"9+	c #B6B3AE",
"0+	c #B2AFAB",
"a+	c #A8A6A2",
"b+	c #ADAAA5",
"c+	c #BEBBB5",
". . . . . . . . . . . . . . . . . . . . . . . . . . . . . . . . . . . . . . . . . . . . . . . . . . . + ",
". @ @ @ @ @ @ @ @ @ @ @ @ @ @ @ @ @ @ @ @ @ @ @ @ @ @ @ @ @ @ @ @ @ @ @ @ @ @ @ @ @ @ @ @ @ @ @ @ @ # + ",
". @ @ @ @ @ @ @ @ @ @ @ @ @ @ @ @ @ @ @ @ @ @ @ @ @ @ @ @ @ @ @ @ @ @ @ @ @ @ @ @ @ @ @ @ @ @ @ @ @ # + ",
". @ @ @ @ @ $ % & * = @ @ @ @ @ @ @ @ @ @ @ @ @ @ @ @ @ @ @ @ @ @ @ @ @ @ @ @ @ @ @ @ @ @ @ @ @ @ @ # + ",
". @ @ @ - ; > , ' ) ! ~ { ] ^ / ( @ @ @ @ @ @ @ @ @ @ @ @ @ @ @ @ @ @ @ @ @ @ @ @ @ @ @ @ @ @ @ @ @ # + ",
". @ @ @ _ : < [ } | 1 2 3 4 5 6 7 8 @ @ @ @ @ @ @ @ @ @ @ @ @ @ @ @ @ @ @ @ @ @ @ @ @ @ @ @ @ @ @ @ # + ",
". @ @ 9 0 a b c d e f g h i j k l m @ @ @ @ @ @ @ @ @ @ @ @ @ @ @ @ @ @ @ @ @ @ @ @ @ @ @ @ @ @ @ @ # + ",
". @ @ n o p q r s t f u v w x y z A @ @ @ B C C C C D E F G H @ @ @ @ @ @ @ @ @ @ @ @ @ E F G H @ @ # + ",
". @ @ I J K L M N O P Q R S T U V W @ @ B C X @ @ @ @ E F G H @ @ @ @ @ @ @ @ @ @ @ @ @ E F G H @ @ # + ",
". @ @ Y Z `  ...+.@.#.$.%.&.*.=.-.;.@ @ >.C D @ @ @ @ ,.C C C G '.).C C C D @ !.).~.{.G ].C C C G H # + ",
". @ @ ^./.(._.:.<.[.}.}.|.1.2.3.4.5.@ @ B C C C C D @ E F G H @ @ @ @ 6.7.8.9.!.).0.).G a.F G H @ @ # + ",
". @ @ b.c.d.e.f.g.h.i.j.k.l.m.n.o.p.@ @ @ E F C C C X E F G H @ @ >.C C C 8.9.!.).G H @ E F G H @ @ # + ",
". @ q.r.s.t.u.v.w.x.y.z.A.B.C.D.E.F.@ @ @ @ @ @ !.).~.G.F G H @ >.C D H.,.8.9.!.).~.I.@ E F G H @ @ # + ",
". @ J.K.L.M.N.O.P.Q.R.S.T.U.V.W.X.@ @ @ @ @ @ @ B C X E F G H @ ,.C D 6.7.8.9.!.).~.I.@ E F G H @ @ # + ",
". @ Y.Z.`. +.+++@+#+$+%+U.&+*+=+-+@ @ @ ,.C C C C D @ @ >.C C G a.F C 8.;+8.9.!.).~.I.@ @ >.C C G H # + ",
". @ >+,+'+)+!+~+{+]+^+/+(+_+:+<+[+@ @ @ @ @ @ @ @ @ @ @ @ @ @ @ @ @ @ @ @ @ @ @ @ @ @ @ @ @ @ @ @ @ # + ",
". @ @ @ @ @ @ }+|+1+2+3+4+5+=+6+7+@ @ @ @ @ @ @ @ @ @ @ @ @ @ @ @ @ @ @ @ @ @ @ @ @ @ @ @ @ @ @ @ @ # + ",
". @ @ @ @ @ @ @ @ 8+9+0+a+b+c+@ @ @ @ @ @ @ @ @ @ @ @ @ @ @ @ @ @ @ @ @ @ @ @ @ @ @ @ @ @ @ @ @ @ @ # + ",
". @ @ @ @ @ @ @ @ @ @ @ @ @ @ @ @ @ @ @ @ @ @ @ @ @ @ @ @ @ @ @ @ @ @ @ @ @ @ @ @ @ @ @ @ @ @ @ @ @ # + ",
". @ @ @ @ @ @ @ @ @ @ @ @ @ @ @ @ @ @ @ @ @ @ @ @ @ @ @ @ @ @ @ @ @ @ @ @ @ @ @ @ @ @ @ @ @ @ @ @ @ # + ",
". # # # # # # # # # # # # # # # # # # # # # # # # # # # # # # # # # # # # # # # # # # # # # # # # # # + ",
"+ + + + + + + + + + + + + + + + + + + + + + + + + + + + + + + + + + + + + + + + + + + + + + + + + + + + "};
