/* XPM */
static char * folder_16x16_xpm[] = {
"16 16 105 2",
"  	c None",
". 	c #E1DDD9",
"+ 	c #9C9997",
"@ 	c #939391",
"# 	c #949391",
"$ 	c #9D9B99",
"% 	c #CAC6C3",
"& 	c #9F9F9D",
"* 	c #FFFFFF",
"= 	c #D9D9D7",
"- 	c #8F8C89",
"; 	c #DDD9D5",
"> 	c #989897",
", 	c #FFB97E",
"' 	c #E7E7E2",
") 	c #A29790",
"! 	c #E7E0DB",
"~ 	c #979796",
"{ 	c #D9B79C",
"] 	c #D8BAA3",
"^ 	c #D9BAA2",
"/ 	c #DABDA7",
"( 	c #DFAE7D",
"_ 	c #C2B3AC",
": 	c #969796",
"< 	c #DBD0C5",
"[ 	c #BFB5AD",
"} 	c #C1B6AE",
"| 	c #C2B7AE",
"1 	c #C0B5AC",
"2 	c #C8BBAF",
"3 	c #FCDCC1",
"4 	c #A0887F",
"5 	c #969695",
"6 	c #C8A389",
"7 	c #FAC390",
"8 	c #F9C08A",
"9 	c #F9BB81",
"0 	c #F8B578",
"a 	c #F8AF6E",
"b 	c #F3A15B",
"c 	c #959695",
"d 	c #C8A187",
"e 	c #FCAE72",
"f 	c #F7AE73",
"g 	c #F7AD6F",
"h 	c #F7AA66",
"i 	c #F7A85E",
"j 	c #F6A555",
"k 	c #F6A24E",
"l 	c #F59F48",
"m 	c #F59B42",
"n 	c #F5983E",
"o 	c #F18B2C",
"p 	c #949697",
"q 	c #C69776",
"r 	c #F88B37",
"s 	c #F38A34",
"t 	c #F38D32",
"u 	c #F38F31",
"v 	c #F49435",
"w 	c #F59838",
"x 	c #F59B3B",
"y 	c #F49C3C",
"z 	c #F49A3B",
"A 	c #F5993B",
"B 	c #F18D2B",
"C 	c #919292",
"D 	c #D4D0C9",
"E 	c #C3916E",
"F 	c #FB801F",
"G 	c #F6882C",
"H 	c #F78F33",
"I 	c #F89638",
"J 	c #FA9C3D",
"K 	c #FAA241",
"L 	c #FAA644",
"M 	c #FAA645",
"N 	c #FAA544",
"O 	c #F9A242",
"P 	c #F79630",
"Q 	c #8A817B",
"R 	c #B2815E",
"S 	c #E3843C",
"T 	c #EC7E26",
"U 	c #EB832E",
"V 	c #EC8933",
"W 	c #EC9037",
"X 	c #ED953C",
"Y 	c #EE9C40",
"Z 	c #EFA143",
"` 	c #F0A346",
" .	c #EFA345",
"..	c #EFA043",
"+.	c #EA8E2F",
"@.	c #B9B4B0",
"#.	c #857870",
"$.	c #7D7069",
"%.	c #7D716A",
"&.	c #7D726A",
"*.	c #7D736B",
"=.	c #7E736B",
"-.	c #7E726B",
";.	c #8E817A",
">.	c #B9B3AF",
"                                ",
"                                ",
". + @ # # # $ %                 ",
"& * * * * * * = - - - - - ;     ",
"> * , , , , * * * * * * ' ) !   ",
"~ * * * * * * * { ] ^ ^ / ( _   ",
": * < [ } | 1 2 3 3 3 3 3 3 4   ",
"5 * 6 3 3 3 3 3 7 8 9 0 a b 4   ",
"c * d e f g h i j k l m n o 4   ",
"p * q r s t u v w x y z A B 4   ",
"C D E F G H I J K L M N O P 4   ",
"Q R S T U V W X Y Z `  ...+.4   ",
"@.#.$.%.%.%.&.&.&.*.=.*.-.;.>.  ",
"                                ",
"                                ",
"                                "};
