/* XPM */
static char * home_16x16_xpm[] = {
"16 16 91 1",
" 	c None",
".	c #E1DCD9",
"+	c #9B9997",
"@	c #939291",
"#	c #949291",
"$	c #9C9A99",
"%	c #C9C5C3",
"&	c #9F9E9D",
"*	c #FFFFFF",
"=	c #D9D9D7",
"-	c #8E8B89",
";	c #DCD8D5",
">	c #989897",
",	c #FFB97E",
"'	c #E7E7E2",
")	c #A19790",
"!	c #E6DFDB",
"~	c #979796",
"{	c #D9B79C",
"]	c #D8BAA3",
"^	c #D9BAA2",
"/	c #DABDA7",
"(	c #DFAE7D",
"_	c #C2B2AC",
":	c #969696",
"<	c #DBD0C5",
"[	c #BFB5AD",
"}	c #C1B6AE",
"|	c #C2B7AE",
"1	c #C0B5AC",
"2	c #C8BBAF",
"3	c #FCDCC1",
"4	c #9F887F",
"5	c #959695",
"6	c #C8A389",
"7	c #FAC390",
"8	c #F9C08A",
"9	c #F9BB81",
"0	c #F8B578",
"a	c #F8AF6E",
"b	c #F3A15B",
"c	c #C8A187",
"d	c #FCAE72",
"e	c #F7AE73",
"f	c #F7AD6F",
"g	c #F7AA66",
"h	c #F7A85E",
"i	c #F69D4A",
"j	c #F58528",
"k	c #F37310",
"l	c #F36702",
"m	c #F3710E",
"n	c #F27917",
"o	c #A9836F",
"p	c #949697",
"q	c #C69776",
"r	c #F88B37",
"s	c #F38A34",
"t	c #F38D32",
"u	c #F38F31",
"v	c #F48E2E",
"w	c #F47814",
"x	c #F36600",
"y	c #D5722D",
"z	c #EED8C8",
"A	c #919292",
"B	c #D4D0C9",
"C	c #C3916E",
"D	c #FB801F",
"E	c #F6882C",
"F	c #F78F33",
"G	c #F89638",
"H	c #F78220",
"I	c #F9B786",
"J	c #F0A977",
"K	c #89807B",
"L	c #B2815E",
"M	c #E3843C",
"N	c #EC7E26",
"O	c #EB832E",
"P	c #EC8933",
"Q	c #EC9037",
"R	c #F2710D",
"S	c #F28333",
"T	c #B8B3B0",
"U	c #847770",
"V	c #7D7069",
"W	c #7D716A",
"X	c #F06703",
"Y	c #F36A06",
"Z	c #F19451",
"                ",
".+@###$%        ",
"&******=-----;  ",
">*,,,,******')! ",
"~*******{]^^/(_ ",
":*<[}|123333334 ",
"5*6333337890ab4 ",
"5*cdefghijklmno ",
"p*qrstuvwxxxxxyz",
"ABCDEFGHxxxIxxxJ",
"KLMNOPQRxxI*IxxS",
"TUVWWWWXxI***IxY",
"       Sxx*x*xxS",
"       JxxxxxxxJ",
"       zZxxxxxZz",
"        zJSYSJz "};
