/* XPM */
static char * xterm_16x16_xpm[] = {
"16 16 80 1",
" 	c None",
".	c #A6A9A4",
"+	c #F7F7F6",
"@	c #BCC0B8",
"#	c #834341",
"$	c #A16B5F",
"%	c #98594D",
"&	c #9B5C51",
"*	c #9E5C51",
"=	c #A05C4F",
"-	c #A15A4B",
";	c #A15846",
">	c #A35C40",
",	c #762E1C",
"'	c #D0D4CE",
")	c #975C58",
"!	c #BF8F7E",
"~	c #AF7768",
"{	c #B9826D",
"]	c #BC836E",
"^	c #BE826D",
"/	c #C08269",
"(	c #C58862",
"_	c #C1825A",
":	c #863B27",
"<	c #945752",
"[	c #BB8A7A",
"}	c #A96A5D",
"|	c #B4745D",
"1	c #B87455",
"2	c #B9704A",
"3	c #BE723E",
"4	c #BA6732",
"5	c #B1572A",
"6	c #842F16",
"7	c #8B4841",
"8	c #A25F4C",
"9	c #8F3521",
"0	c #923113",
"a	c #983107",
"b	c #A94300",
"c	c #B24A00",
"d	c #B14300",
"e	c #AE3F00",
"f	c #862608",
"g	c #81332A",
"h	c #9E4F2B",
"i	c #7E1400",
"j	c #8F2400",
"k	c #A03600",
"l	c #B54700",
"m	c #B94B00",
"n	c #BC4E00",
"o	c #8C2906",
"p	c #62140B",
"q	c #6A1709",
"r	c #731D0A",
"s	c #7B220A",
"t	c #892C0A",
"u	c #91310A",
"v	c #943009",
"w	c #98330A",
"x	c #983309",
"y	c #7A2E17",
"z	c #585857",
"A	c #686767",
"B	c #6F706F",
"C	c #4F4F50",
"D	c #404040",
"E	c #3C3C3C",
"F	c #494949",
"G	c #5C5B5C",
"H	c #50504F",
"I	c #444444",
"J	c #5F615D",
"K	c #515151",
"L	c #2E2E2E",
"M	c #414141",
"N	c #6D6E6B",
"O	c #DFE0DC",
"  ............  ",
" .++++++++++++. ",
" .@#$%&*=-;>,'. ",
" .@)!~{]^/(_:'. ",
" .@<[}|123456'. ",
" .@7890abcdef'. ",
" .@ghijkclmno'. ",
" .@pqrstuvwxy'. ",
" .''''''''''''. ",
"  ............  ",
"      ....      ",
"   zABCDEFGHI   ",
" .............. ",
" .JKLKLKLMLMLN. ",
" .OOOOOOOOOOOO. ",
"  ............  "};
