/* XPM */
static char * desktop_xpm[] = {
"21 20 84 1",
" 	c None",
".	c #8E8E8E",
"+	c #BEBDBD",
"@	c #4E4E4E",
"#	c #FFFEFF",
"$	c #0A0A0A",
"%	c #7F7977",
"&	c #837771",
"*	c #867871",
"=	c #88786F",
"-	c #8C786D",
";	c #8E766B",
">	c #8B7062",
",	c #866A5B",
"'	c #866657",
")	c #BDBCBB",
"!	c #7D706B",
"~	c #948278",
"{	c #998277",
"]	c #9C8376",
"^	c #9F8272",
"/	c #A3816E",
"(	c #A07965",
"_	c #9D725D",
":	c #9B6D54",
"<	c #927163",
"[	c #BDBBBB",
"}	c #817169",
"|	c #FFFFFF",
"1	c #8D7367",
"2	c #B28C77",
"3	c #BB8F75",
"4	c #AC8068",
"5	c #A5745B",
"6	c #A06D51",
"7	c #967667",
"8	c #86746A",
"9	c #F6F6F5",
"0	c #CCC8C4",
"a	c #CE9668",
"b	c #BB7B51",
"c	c #A06039",
"d	c #94512B",
"e	c #934C25",
"f	c #6D4B39",
"g	c #B8B5B1",
"h	c #6F5648",
"i	c #A46132",
"j	c #9B5327",
"k	c #9B5124",
"l	c #94471C",
"m	c #96461A",
"n	c #704B37",
"o	c #B8B5B2",
"p	c #4F3225",
"q	c #66544A",
"r	c #7F7169",
"s	c #6B554A",
"t	c #743818",
"u	c #84421C",
"v	c #934920",
"w	c #94461B",
"x	c #984519",
"y	c #724A37",
"z	c #44291B",
"A	c #592F1A",
"B	c #65341A",
"C	c #6C3619",
"D	c #753716",
"E	c #874018",
"F	c #94451B",
"G	c #9A4518",
"H	c #A34717",
"I	c #714731",
"J	c #FDFCFF",
"K	c #4D3326",
"L	c #4F3527",
"M	c #4F3526",
"N	c #523527",
"O	c #5B3C2D",
"P	c #5C3C2C",
"Q	c #5E3B2C",
"R	c #5E3C2C",
"S	c #BAB8B6",
"                     ",
"                     ",
"                     ",
"                     ",
"   ...++++++++...    ",
"   @@##########@@    ",
"   $#%&*=-;>,''#$    ",
"   )#!~{]^/(_:<#)    ",
"   [#}||1234567#[    ",
"   [#8|90abcdef#[    ",
"   g#h|||ijklmn#g    ",
"   o#pqrstuvwxy#o    ",
"   o#zABCDEFGHI#o    ",
"   .JzKLMNOPQRI#.    ",
"   @@##########@@    ",
"   $$@SSSSSSSS@$$    ",
"                     ",
"                     ",
"                     ",
"                     "};
