/* XPM */
static char * taskbarbg_xpm[] = {
"1 23 23 1",
" 	c None",
".	c #F7F5F4",
"+	c #F7F4F3",
"@	c #F6F4F2",
"#	c #F6F3F2",
"$	c #F5F3F1",
"%	c #F4F2EF",
"&	c #F4F1EF",
"*	c #F3F0EE",
"=	c #F3F0ED",
"-	c #F2EFED",
";	c #F2EFEC",
">	c #F1EEEB",
",	c #EBE6E1",
"'	c #EBE6E2",
")	c #ECE7E3",
"!	c #EDE8E4",
"~	c #EDE8E5",
"{	c #EEEAE7",
"]	c #F0ECE9",
"^	c #F0EDEA",
"/	c #EFECE9",
"(	c #EFEBE8",
".",
"+",
"@",
"#",
"$",
"%",
"&",
"*",
"=",
"-",
";",
">",
",",
",",
"'",
")",
"!",
"~",
"{",
"]",
"^",
"/",
"("};
