/* XPM */
static char * taskbuttonactive_xpm[] = {
"1 23 19 1",
" 	c None",
".	c #CCC7C2",
"+	c #D5D0CB",
"@	c #DED9D3",
"#	c #E0DBD4",
"$	c #DFDAD3",
"%	c #DED9D2",
"&	c #DDD8D2",
"*	c #DDD8D1",
"=	c #DCD7D0",
"-	c #DAD5CE",
";	c #D8D3CC",
">	c #D3CDC6",
",	c #D5CEC7",
"'	c #D6CFC8",
")	c #D6D0C9",
"!	c #D7D1CA",
"~	c #D8D2CB",
"{	c #D9D4CD",
".",
"+",
"@",
"#",
"$",
"$",
"%",
"&",
"*",
"=",
"-",
";",
">",
">",
",",
"'",
")",
"!",
"~",
"{",
"-",
"{",
";"};
