/* XPM */
static char * workspacebuttonactive_xpm[] = {
"14 20 5 1",
" 	c None",
".	c #A1B5B6",
"+	c #A5B5B5",
"@	c #0A0A0A",
"#	c #9EB3B6",
"..............",
"..............",
"+@@@@@@@@@@@@#",
"#@@@@@@@@@@@@.",
".@@@@@@@@@@@@+",
"+@@@@@@@@@@@@#",
"#@@@@@@@@@@@@.",
".@@@@@@@@@@@@+",
"+@@@@@@@@@@@@#",
"#@@@@@@@@@@@@.",
".@@@@@@@@@@@@#",
"#@@@@@@@@@@@@#",
".@@@@@@@@@@@@.",
"+@@@@@@@@@@@@+",
"#@@@@@@@@@@@@#",
".@@@@@@@@@@@@.",
"+@@@@@@@@@@@@+",
"#@@@@@@@@@@@@#",
".@@@@@@@@@@@@.",
".............+"};
