/* XPM */
static char * desktop_xpm[] = {
"20 23 154 2",
"  	c None",
". 	c #A9A9A8",
"+ 	c #969794",
"@ 	c #969694",
"# 	c #959593",
"$ 	c #949493",
"% 	c #949492",
"& 	c #939392",
"* 	c #929291",
"= 	c #929290",
"- 	c #919190",
"; 	c #90908F",
"> 	c #8F8F8E",
", 	c #8E8E8E",
"' 	c #8E8E8D",
") 	c #8C8C8C",
"! 	c #B5B5B5",
"~ 	c #CCCCCC",
"{ 	c #6B6B68",
"] 	c #54544E",
"^ 	c #52524C",
"/ 	c #4F504A",
"( 	c #4D4D48",
"_ 	c #4B4B46",
": 	c #484845",
"< 	c #464643",
"[ 	c #444441",
"} 	c #42423F",
"| 	c #40403E",
"1 	c #3D3D3B",
"2 	c #3A3A39",
"3 	c #323230",
"4 	c #232322",
"5 	c #8A8A8A",
"6 	c #686865",
"7 	c #4E4E4A",
"8 	c #4C4C48",
"9 	c #4A4A46",
"0 	c #484844",
"a 	c #464642",
"b 	c #434340",
"c 	c #41413E",
"d 	c #3E3E3C",
"e 	c #3C3C3A",
"f 	c #3A3A38",
"g 	c #2E2E2D",
"h 	c #1F1F1F",
"i 	c #161616",
"j 	c #141414",
"k 	c #888888",
"l 	c #646462",
"m 	c #444440",
"n 	c #41413F",
"o 	c #3F3F3D",
"p 	c #3B3B39",
"q 	c #373736",
"r 	c #2C2C2B",
"s 	c #1B1B1A",
"t 	c #151515",
"u 	c #60605F",
"v 	c #424240",
"w 	c #383836",
"x 	c #1D1D1C",
"y 	c #5D5D5C",
"z 	c #363634",
"A 	c #333331",
"B 	c #242423",
"C 	c #171717",
"D 	c #5A5A58",
"E 	c #373735",
"F 	c #353533",
"G 	c #343432",
"H 	c #313130",
"I 	c #232323",
"J 	c #1D1D1D",
"K 	c #1E1E1E",
"L 	c #1B1B1B",
"M 	c #181818",
"N 	c #565655",
"O 	c #333332",
"P 	c #323231",
"Q 	c #282827",
"R 	c #272727",
"S 	c #2A2A2A",
"T 	c #2C2C2C",
"U 	c #2B2B2B",
"V 	c #262626",
"W 	c #222222",
"X 	c #525252",
"Y 	c #30302F",
"Z 	c #303030",
"` 	c #2E2E2E",
" .	c #333333",
"..	c #373737",
"+.	c #393939",
"@.	c #363636",
"#.	c #323232",
"$.	c #2D2D2D",
"%.	c #202020",
"&.	c #515150",
"*.	c #2B2B2A",
"=.	c #282828",
"-.	c #353535",
";.	c #3C3C3C",
">.	c #424242",
",.	c #464646",
"'.	c #454545",
").	c #414141",
"!.	c #3B3B3B",
"~.	c #343434",
"{.	c #252525",
"].	c #1C1C1C",
"^.	c #C3C3C3",
"/.	c #989898",
"(.	c #787878",
"_.	c #7C7C7C",
":.	c #818181",
"<.	c #868686",
"[.	c #8B8B8B",
"}.	c #909090",
"|.	c #939393",
"1.	c #929292",
"2.	c #8F8F8F",
"3.	c #858585",
"4.	c #808080",
"5.	c #7B7B7B",
"6.	c #767676",
"7.	c #B2B2B2",
"8.	c #D1D1D1",
"9.	c #D5D5D5",
"0.	c #D6D6D6",
"a.	c #D3D3D3",
"b.	c #D2D2D2",
"c.	c #D0D0D0",
"d.	c #C8C8C8",
"e.	c #B9B9B9",
"f.	c #BCBCBC",
"g.	c #BBBBBB",
"h.	c #A5A5A5",
"i.	c #A7A7A7",
"j.	c #DEDEDE",
"k.	c #C6C6C6",
"l.	c #B3B3B3",
"m.	c #DADADA",
"n.	c #E0E0E0",
"o.	c #E7E7E7",
"p.	c #ECECEC",
"q.	c #CACACA",
"r.	c #E5E5E5",
"s.	c #C5C5C5",
"t.	c #B6B6B6",
"u.	c #D4D4D4",
"v.	c #BEBEBE",
"w.	c #BABABA",
"                                        ",
"                                        ",
"                                        ",
"                                        ",
"                                        ",
"    . + @ # $ % & * = - ; > , ' ) !     ",
"  ~ { ] ^ / ( _ : < [ } | 1 2 3 4 5     ",
"  ~ 6 7 8 9 0 a b c d e f g h i j k     ",
"  ~ l 0 < m n o 1 p q r s t t t j k     ",
"  ~ u v | d e f w g x t t t t t j k     ",
"  ~ y e 2 w z A B C t t j j t t j k     ",
"  ~ D E F G H I J K K J L M t j j k     ",
"  ~ N 3 O P Q R S T U S V W K M j k     ",
"  ~ X Y Z S `  ...+.+.@.#.$.V %.M k     ",
"  ~ &.*.=.` -.;.>.,.'.).!.~.$.{.].5     ",
"  ^./.(._.:.<.[.}.|.1.2.5 3.4.5.6.7.    ",
"    8.9.0.0.0.0.0.0.0.0.0.9.a.b.c.d.    ",
"    e.f.f.f.f.g.h.7.i.h.f.f.g.g.f.      ",
"              j.k.j.d.l.                ",
"            m.n.o.p.9.q.r.s.            ",
"            t.u.m.a.~ m.d.              ",
"                  v.w.                  ",
"                                        "};
