/* XPM */
static char * icewm_xpm[] = {
"40 20 370 2",
"  	c None",
". 	c #0A0A0A",
"+ 	c #080A0A",
"@ 	c #0A0E10",
"# 	c #0D1215",
"$ 	c #0D1418",
"% 	c #0C1216",
"& 	c #0A0D11",
"* 	c #08090B",
"= 	c #0C1211",
"- 	c #121A1C",
"; 	c #162126",
"> 	c #17222A",
", 	c #151F28",
"' 	c #11181F",
") 	c #0C1115",
"! 	c #080A0C",
"~ 	c #0B100F",
"{ 	c #131C1C",
"] 	c #1B292B",
"^ 	c #203238",
"/ 	c #21333D",
"( 	c #9A9A9A",
"_ 	c #1A2631",
": 	c #131D23",
"< 	c #0D1315",
"[ 	c #090B0C",
"} 	c #090C0B",
"| 	c #101616",
"1 	c #192726",
"2 	c #233638",
"3 	c #283D44",
"4 	c #51585C",
"5 	c #C7C7C7",
"6 	c #676767",
"7 	c #1C2A33",
"8 	c #151F24",
"9 	c #0E1415",
"0 	c #090B0B",
"a 	c #070808",
"b 	c #070A0A",
"c 	c #080B0A",
"d 	c #080A09",
"e 	c #070807",
"f 	c #0B0F0F",
"g 	c #131C1D",
"h 	c #1E2E30",
"i 	c #273C40",
"j 	c #2A4148",
"k 	c #E2E2E2",
"l 	c #23363F",
"m 	c #1E2F33",
"n 	c #162123",
"o 	c #0E1414",
"p 	c #070908",
"q 	c #080B0B",
"r 	c #0E1314",
"s 	c #0F1615",
"t 	c #0E1413",
"u 	c #0B0E0E",
"v 	c #080909",
"w 	c #080908",
"x 	c #0A0D0C",
"y 	c #0D1210",
"z 	c #0F1512",
"A 	c #0E1411",
"B 	c #0B0F0D",
"C 	c #162226",
"D 	c #213339",
"E 	c #283E46",
"F 	c #51595C",
"G 	c #263B40",
"H 	c #1F3031",
"I 	c #162020",
"J 	c #0D1313",
"K 	c #121B1C",
"L 	c #182425",
"M 	c #1A2828",
"N 	c #182524",
"O 	c #121B1A",
"P 	c #0C1010",
"Q 	c #0B0E0D",
"R 	c #101715",
"S 	c #16211D",
"T 	c #192621",
"U 	c #18241F",
"V 	c #121B17",
"W 	c #0C110F",
"X 	c #0B1112",
"Y 	c #121B1F",
"Z 	c #1B2931",
"` 	c #243743",
" .	c #293F4C",
"..	c #737B7D",
"+.	c #263A3F",
"@.	c #1E2D2F",
"#.	c #151F20",
"$.	c #12191A",
"%.	c #141E20",
"&.	c #1B292D",
"*.	c #223439",
"=.	c #253A3E",
"-.	c #24373A",
";.	c #1C2B2C",
">.	c #121B1B",
",.	c #0A0E0E",
"'.	c #111816",
").	c #182522",
"!.	c #20312D",
"~.	c #243832",
"{.	c #23352F",
"].	c #1C2A24",
"^.	c #141D19",
"/.	c #131B1C",
"(.	c #1A272C",
"_.	c #233540",
":.	c #2A404E",
"<.	c #535B60",
"[.	c #273D48",
"}.	c #2C4047",
"|.	c #23373E",
"1.	c #1D2C31",
"2.	c #1A272B",
"3.	c #1D2C30",
"4.	c #23363C",
"5.	c #283F47",
"6.	c #2B444C",
"7.	c #2B4249",
"8.	c #24373C",
"9.	c #192628",
"0.	c #0F1516",
"a.	c #0A0E0C",
"b.	c #101816",
"c.	c #192523",
"d.	c #213231",
"e.	c #273C3B",
"f.	c #2A423E",
"g.	c #23362F",
"h.	c #1C2B25",
"i.	c #192622",
"j.	c #24373E",
"k.	c #2C4450",
"l.	c #304C5A",
"m.	c #C3C3C3",
"n.	c #2B434B",
"o.	c #2A4149",
"p.	c #2A4249",
"q.	c #888C8E",
"r.	c #29414C",
"s.	c #263B44",
"t.	c #24373F",
"u.	c #253841",
"v.	c #273D47",
"w.	c #29404C",
"x.	c #283D45",
"y.	c #1F3034",
"z.	c #0C1111",
"A.	c #090C0A",
"B.	c #0F1614",
"C.	c #213332",
"D.	c #273D3D",
"E.	c #294041",
"F.	c #A4A4A4",
"G.	c #233731",
"H.	c #223632",
"I.	c #263C3E",
"J.	c #2E474F",
"K.	c #34515D",
"L.	c #283D40",
"M.	c #273D3F",
"N.	c #2A4144",
"O.	c #2C454B",
"P.	c #2F4958",
"Q.	c #2D4654",
"R.	c #2C4451",
"S.	c #2A424F",
"T.	c #464646",
"U.	c #3E4347",
"V.	c #1B292E",
"W.	c #1B2A2E",
"X.	c #0A0D0D",
"Y.	c #16211E",
"Z.	c #203230",
"`.	c #283F3F",
" +	c #2A4246",
".+	c #3E4442",
"++	c #2B4240",
"@+	c #2E494C",
"#+	c #33515A",
"$+	c #566065",
"%+	c #24393B",
"&+	c #1E2F2F",
"*+	c #1E2E2D",
"=+	c #233535",
"-+	c #293E42",
";+	c #2D474F",
">+	c #355466",
",+	c #324F61",
"'+	c #2E4859",
")+	c #919394",
"!+	c #283F4A",
"~+	c #23363D",
"{+	c #192729",
"]+	c #101716",
"^+	c #090B0A",
"/+	c #090A09",
"(+	c #0C100F",
"_+	c #131C1A",
":+	c #1E2D2B",
"<+	c #283D3D",
"[+	c #2D464A",
"}+	c #2C444C",
"|+	c #919393",
"1+	c #2E4847",
"2+	c #324F54",
"3+	c #34525D",
"4+	c #24373D",
"5+	c #1B2829",
"6+	c #141E1D",
"7+	c #172322",
"8+	c #1F2F30",
"9+	c #273C41",
"0+	c #2E4952",
"a+	c #38576D",
"b+	c #2B424D",
"c+	c #213438",
"d+	c #162122",
"e+	c #0D1211",
"f+	c #0E1211",
"g+	c #131B1A",
"h+	c #1C2A28",
"i+	c #263A3A",
"j+	c #2D4649",
"k+	c #304951",
"l+	c #8D8D8D",
"m+	c #5D6161",
"n+	c #505C60",
"o+	c #243740",
"p+	c #0C1110",
"q+	c #0B0F0E",
"r+	c #0E1313",
"s+	c #131D1D",
"t+	c #1B2A2C",
"u+	c #25393E",
"v+	c #2E4853",
"w+	c #2B4451",
"x+	c #2B4452",
"y+	c #424749",
"z+	c #283F46",
"A+	c #1C2B2D",
"B+	c #111918",
"C+	c #0B0D0D",
"D+	c #161F1D",
"E+	c #1D2B2A",
"F+	c #273B3B",
"G+	c #2E474B",
"H+	c #314C54",
"I+	c #818181",
"J+	c #243843",
"K+	c #959696",
"L+	c #314C50",
"M+	c #1B2A2F",
"N+	c #121A1D",
"O+	c #0B0F10",
"P+	c #070909",
"Q+	c #111818",
"R+	c #182526",
"S+	c #2A424D",
"T+	c #B5B5B5",
"U+	c #2A414C",
"V+	c #273D45",
"W+	c #283F48",
"X+	c #2D4651",
"Y+	c #2D464E",
"Z+	c #213336",
"`+	c #151F1F",
" @	c #1F2D2B",
".@	c #283B3B",
"+@	c #324A4E",
"@@	c #36515B",
"#@	c #223340",
"$@	c #253942",
"%@	c #293F46",
"&@	c #1F3032",
"*@	c #151E20",
"=@	c #0C1112",
"-@	c #08090A",
";@	c #070708",
">@	c #090C0C",
",@	c #1B2A30",
"'@	c #21343D",
")@	c #233741",
"!@	c #22343D",
"~@	c #1E2E34",
"{@	c #1C2C2F",
"]@	c #24383D",
"^@	c #2A424A",
"/@	c #5C6161",
"(@	c #223536",
"_@	c #172221",
":@	c #233432",
"<@	c #2D4143",
"[@	c #364F57",
"}@	c #385260",
"|@	c #1E2E3B",
"1@	c #1A2732",
"2@	c #1B2930",
"3@	c #203035",
"4@	c #263A3E",
"5@	c #2A4044",
"6@	c #213232",
"7@	c #182323",
"8@	c #0F1515",
"9@	c #080808",
"0@	c #060606",
"a@	c #0F1518",
"b@	c #131C20",
"c@	c #151F23",
"d@	c #141D21",
"e@	c #111919",
"f@	c #182525",
"g@	c #1A2728",
"h@	c #959595",
"i@	c #1D2D2D",
"j@	c #151F1E",
"k@	c #0E1513",
"l@	c #1F2D2C",
"m@	c #27393C",
"n@	c #30444D",
"o@	c #5E5E5E",
"p@	c #172028",
"q@	c #162029",
"r@	c #12191F",
"s@	c #162022",
"t@	c #1C2A2B",
"u@	c #203132",
"v@	c #213233",
"w@	c #1D2C2C",
"x@	c #050606",
"y@	c #060707",
"z@	c #080A0B",
"A@	c #090D0E",
"B@	c #0B0E10",
"C@	c #0A0E0F",
"D@	c #0A0C0D",
"E@	c #172321",
"F@	c #182322",
"G@	c #151E1E",
"H@	c #1B2729",
"I@	c #212F36",
"J@	c #22303A",
"K@	c #1D2933",
"L@	c #151E26",
"M@	c #0E1419",
"N@	c #0B0E11",
"O@	c #0D1212",
"P@	c #141D1E",
"Q@	c #151E1F",
"R@	c #070707",
"S@	c #060807",
"T@	c #0E1412",
"U@	c #0A0E0D",
"V@	c #111719",
"W@	c #151D22",
"X@	c #161F25",
"Y@	c #131A20",
"Z@	c #0E1317",
"`@	c #0A0C0F",
" #	c #08080A",
".#	c #080A08",
". . . . . . . . . . . . . . . . . . . . . . . . . . . . . . . . . . . . . . . . ",
". . . . . . . . . . . . . . . . + @ # $ % & * . . . . . . . . . . . . . . . . . ",
". . . . . . . . . . . . . . . + = - ; > , ' ) ! . . . . . . . . . . . . . . . . ",
". . . . . . . . . . . . . . . ~ { ] ^ / ( _ : < [ . . . . . . . . . . . . . . . ",
". . . . . . . . . . . . . . } | 1 2 3 4 5 6 7 8 9 0 . . . a b c d e . . . . . . ",
". . . . . . . . d d . . . . f g h i j ( k ( l m n o 0 p q f r s t u v . . . . . ",
". . . . . w x y z A B d . q < C D E F 5 k 5 ( G H I t f J K L M N O P v . . . . ",
". . . . w Q R S T U V W x X Y Z `  .( k k k 5 ..+.@.#.$.%.&.*.=.-.;.>.,.. . . . ",
". . . . Q '.).!.~.{.].^.R /.(._.:.<.k ( [.( k 5 }.|.1.2.3.4.5.6.7.8.9.0.q . . . ",
". . . a.b.c.d.e.f.k g.h.i.;.j.k.l.m.m.n.o.p.( k q.r.s.t.u.v.w.( ( x.y.#.z.v . . ",
". . A.B.).C.D.E.F.k ( G.H.I.J.K.( k ( L.M.N.O.( 5 ( P.Q.R.S.T.5 5 U.V.W.>.X.. . ",
". d y Y.Z.`. +T.5 k 5 .+++@+#+$+k ( %+&+*+=+-+;+( 5 ( >+,+'+( k k )+!+~+{+]+^+. ",
"/+(+_+:+<+[+}+( k k k |+1+2+3+( ( 4+5+6+_+7+8+9+0+( 5 ( a+( 5 ( ( 5 ( b+c+d+e+. ",
"f+g+h+i+j+k+l+5 5 ( 5 5 m+2+n+( o+2.$.p+q+r+s+t+u+v+( ( 6 5 ( w+x+( 5 y+z+A+B+C+",
"D+E+F+G+H+I+5 5 ( J+( 5 K+L+( 6 M+N+O+P+a + f Q+R+D S+6 T+6 U+V+W+X+( ( Y+Z+`+e+",
" @.@+@@@6 5 ( 6 #@$@%@( 5 ( ( &@*@=@-@. . . ;@>@r %.,@'@)@!@~@{@m ]@^@l+/@(@_@B.",
":@<@[@}@( 6 |@1@2@3@4@5@( 6 6@7@8@[ 9@. . . 9@0@-@O+a@b@c@d@- e@{ f@8+g@h@i@j@k@",
"l@m@n@I+o@p@q@r@N+s@t@u@v@w@_@R x a 9@. . . . 9@x@y@z@A@B@C@D@>@q+t _+E@F@6+s q+",
"G@H@I@J@K@L@M@N@C@O@Q+P@Q@g+t a.p 9@. . . . . . 9@R@y@y@y@y@y@y@S@d Q y T@y U@c ",
"u V@W@X@Y@Z@`@ #. b X.P z.f } a . . . . . . . . . . . . . . . . . . . .#^+d p . "};
