/* XPM */
static char * taskbarbg_xpm[] = {
"1 29 3 1",
" 	c None",
".	c #645D5A",
"+	c #0A0A0A",
".",
"+",
"+",
"+",
"+",
"+",
"+",
"+",
"+",
"+",
"+",
"+",
"+",
"+",
"+",
"+",
"+",
"+",
"+",
"+",
"+",
"+",
"+",
"+",
"+",
"+",
"+",
"+",
"+"};
