/* XPM */
static char * windows_xpm[] = {
"20 20 91 1",
" 	c None",
".	c #98A9BC",
"+	c #9BACBE",
"@	c #A7B6C4",
"#	c #B8C3CE",
"$	c #C9D0D8",
"%	c #D8DDE1",
"&	c #E2E5E7",
"*	c #E4E7E9",
"=	c #DBE0E5",
"-	c #CBD3DE",
";	c #B8C5D5",
">	c #A7B7CD",
",	c #05285D",
"'	c #05285F",
")	c #052961",
"!	c #042A63",
"~	c #042A66",
"{	c #042A69",
"]	c #032B6C",
"^	c #032C6F",
"/	c #032D72",
"(	c #032E76",
"_	c #022F79",
":	c #022F7D",
"<	c #184084",
"[	c #A0B3C9",
"}	c #BCC7D6",
"|	c #ABB8CC",
"1	c #1E4688",
"2	c #164188",
"3	c #0E3D89",
"4	c #08398B",
"5	c #03368E",
"6	c #033793",
"7	c #023997",
"8	c #1A4186",
"9	c #9CAFC7",
"0	c #B6C2D3",
"a	c #10537A",
"b	c #318393",
"c	c #1A7A75",
"d	c #A7B5CA",
"e	c #02399B",
"f	c #1D458A",
"g	c #98ACC6",
"h	c #FFFFFF",
"i	c #013AA0",
"j	c #1D458C",
"k	c #29738F",
"l	c #013BA3",
"m	c #1D468F",
"n	c #274C88",
"o	c #AEBBCE",
"p	c #003CA7",
"q	c #1D4691",
"r	c #003DAB",
"s	c #1D4794",
"t	c #A1B0C6",
"u	c #003EAF",
"v	c #1D4896",
"w	c #9AAAC2",
"x	c #003FB2",
"y	c #1C4898",
"z	c #A6B4C9",
"A	c #9EADC4",
"B	c #97A8C0",
"C	c #95A6BF",
"D	c #003FB4",
"E	c #18459A",
"F	c #013082",
"G	c #013185",
"H	c #013289",
"I	c #01338C",
"J	c #003390",
"K	c #003493",
"L	c #003596",
"M	c #003699",
"N	c #00369A",
"O	c #00369D",
"P	c #15459C",
"Q	c #9AABBC",
"R	c #A5B3C3",
"S	c #B4C0CC",
"T	c #C6CED6",
"U	c #D6DADF",
"V	c #E1E4E6",
"W	c #DEE2E6",
"X	c #CFD7E0",
"Y	c #BCC8D6",
"Z	c #AAB9CE",
"                    ",
"                    ",
"                    ",
"  .....+@#$%&*=-;>  ",
"  .,,')!~{]^/(_:<[  ",
"  .,}||||123456789  ",
"  .'0abcd234567efg  ",
"  .)dh}|||||67eijg  ",
"  .!||0akbcd7eilmg  ",
"  .~n1oh}||||||pqg  ",
"  .{12dh0akbbcdrsg  ",
"  .]23||ohhhhhtuvg  ",
"  .^3456dhhhhhwxyg  ",
"  ./4567||zAABCDEg  ",
"  .(_:FGHIJKLMNOPg  ",
"  QRSTUV*WXYZ9gggg  ",
"                    ",
"                    ",
"                    ",
"                    "};
