/* XPM */
static char * workspacebuttonactive_xpm[] = {
"14 20 3 1",
" 	c None",
".	c #645D5A",
"+	c #0A0A0A",
"..............",
"..............",
".++++++++++++.",
".++++++++++++.",
".++++++++++++.",
".++++++++++++.",
".++++++++++++.",
".++++++++++++.",
".++++++++++++.",
".++++++++++++.",
".++++++++++++.",
".++++++++++++.",
".++++++++++++.",
".++++++++++++.",
".++++++++++++.",
".++++++++++++.",
".++++++++++++.",
".++++++++++++.",
".++++++++++++.",
".............."};
