/* XPM */
static char * closeI_xpm[] = {
"25 48 51 1",
" 	c None",
".	c #736A60",
"+	c #FFFFFF",
"@	c #F8F6F3",
"#	c #F9F7F3",
"$	c #F7F5F2",
"%	c #898786",
"&	c #F6F4F1",
"*	c #888785",
"=	c #CCCCCC",
"-	c #F5F3F0",
";	c #878685",
">	c #FEFDFD",
",	c #FDFCFC",
"'	c #F4F2EF",
")	c #878684",
"!	c #FDFCFB",
"~	c #FBFAF9",
"{	c #F4F1EE",
"]	c #878584",
"^	c #FBFAFA",
"/	c #F9F7F6",
"(	c #F3F0EC",
"_	c #868582",
":	c #FAF9F8",
"<	c #F7F5F3",
"[	c #3C3B3A",
"}	c #F2EFEB",
"|	c #868482",
"1	c #F5F2F0",
"2	c #F1EEEA",
"3	c #858481",
"4	c #F8F6F4",
"5	c #F3F0ED",
"6	c #F0EDE9",
"7	c #858381",
"8	c #F7F4F2",
"9	c #F1EDEA",
"0	c #EEE9E5",
"a	c #84817F",
"b	c #ECE7E2",
"c	c #ECE7E3",
"d	c #ECE8E3",
"e	c #F4F1EF",
"f	c #EDE8E4",
"g	c #EDE9E4",
"h	c #EDE9E5",
"i	c #EEEAE6",
"j	c #C4C2BF",
"k	c #F5F2EF",
"l	c #000000",
".........................",
"+++++++++++++++++++++++++",
"@@@@@@@@@@@@@@@@@@@@@@@@#",
"$$%%%%%%%%%%%%%%%%%%%%%%$",
"&*=++++++++++++++++++++=*",
"-;>,,,,,,,,,,,,,,,,,,,,>;",
"')!~~~~~~~~~~~~~~~~~~~~!)",
"{]^////////////////////^]",
"(_:<<<<<<[[<<<<[[<<<<<<:_",
"}|/111111[[[11[[[111111/|",
"2345555555[[[[[[555555543",
"67899999999[[[[9999999987",
"0a{bbbbbbbb[[[[bbbbbbbb{a",
"0a{bbbbbbb[[[[[[bbbbbbb{a",
"0a{cccccc[[[cc[[[cccccc{a",
"0a{dddddd[[dddd[[dddddd{a",
"0aeffffffffffffffffffffea",
"0a'gggggggggggggggggggg'a",
"0a'hhhhhhhhhhhhhhhhhhhh'a",
"iajkkkkkkkkkkkkkkkkkkkkja",
"iiaaaaaaaaaaaaaaaaaaaaaai",
"iiiiiiiiiiiiiiiiiiiiiiiii",
"iiiiiiiiiiiiiiiiiiiiiiiii",
"iiiiiiiiiiiiiiiiiiiiiiiii",
"lllllllllllllllllllllllll",
"lllllllllllllllllllllllll",
"lllllllllllllllllllllllll",
"lllllllllllllllllllllllll",
"lllllllllllllllllllllllll",
"lllllllllllllllllllllllll",
"lllllllllllllllllllllllll",
"lllllllllllllllllllllllll",
"lllllllllllllllllllllllll",
"lllllllllllllllllllllllll",
"lllllllllllllllllllllllll",
"lllllllllllllllllllllllll",
"lllllllllllllllllllllllll",
"lllllllllllllllllllllllll",
"lllllllllllllllllllllllll",
"lllllllllllllllllllllllll",
"lllllllllllllllllllllllll",
"lllllllllllllllllllllllll",
"lllllllllllllllllllllllll",
"lllllllllllllllllllllllll",
"lllllllllllllllllllllllll",
"lllllllllllllllllllllllll",
"lllllllllllllllllllllllll",
"lllllllllllllllllllllllll"};
