/* XPM */
static char * closeO_xpm[] = {
"25 48 131 2",
"  	c None",
". 	c #604931",
"+ 	c #F2C99F",
"@ 	c #F1C69A",
"# 	c #E6BD93",
"$ 	c #E8AA6A",
"% 	c #E9AE71",
"& 	c #EAB279",
"* 	c #E5A766",
"= 	c #7F5C38",
"- 	c #E3A462",
"; 	c #7E5B36",
"> 	c #C8AE95",
", 	c #FADABA",
"' 	c #E0A05E",
") 	c #7C5834",
"! 	c #F7D6B5",
"~ 	c #F1BB83",
"{ 	c #DE9D5A",
"] 	c #7B5732",
"^ 	c #F4D2AF",
"/ 	c #EDB47A",
"( 	c #DB9A56",
"_ 	c #795530",
": 	c #F1CEAA",
"< 	c #E8AE71",
"[ 	c #BA8B5A",
"} 	c #8B6844",
"| 	c #D89652",
"1 	c #77532D",
"2 	c #EFCAA4",
"3 	c #E4A768",
"4 	c #89643E",
"5 	c #FFFFFF",
"6 	c #D6934E",
"7 	c #76512B",
"8 	c #ECC69F",
"9 	c #DFA05F",
"0 	c #866039",
"a 	c #D3904A",
"b 	c #755029",
"c 	c #E9C29A",
"d 	c #835C34",
"e 	c #D18C46",
"f 	c #744D27",
"g 	c #E6BE94",
"h 	c #D6934D",
"i 	c #80582E",
"j 	c #C8823A",
"k 	c #6F4820",
"l 	c #DCB288",
"m 	c #C47F38",
"n 	c #764C22",
"o 	c #C9833B",
"p 	c #6F4821",
"q 	c #DCB388",
"r 	c #C58039",
"s 	c #764D22",
"t 	c #CA843D",
"u 	c #704922",
"v 	c #DDB489",
"w 	c #C7823A",
"x 	c #774E23",
"y 	c #CB863E",
"z 	c #704A22",
"A 	c #DEB58A",
"B 	c #C8833C",
"C 	c #784F24",
"D 	c #CD8740",
"E 	c #714B23",
"F 	c #DFB68B",
"G 	c #CA853D",
"H 	c #A26A31",
"I 	c #795025",
"J 	c #CE8941",
"K 	c #724C24",
"L 	c #E0B68C",
"M 	c #CB863F",
"N 	c #CF8A43",
"O 	c #724C25",
"P 	c #E1B88C",
"Q 	c #CD8840",
"R 	c #D18B45",
"S 	c #744D26",
"T 	c #B59372",
"U 	c #E2B88E",
"V 	c #D28D46",
"W 	c #734D25",
"X 	c #D38E48",
"Y 	c #835D37",
"Z 	c #BC9B7A",
"` 	c #EBC298",
" .	c #E5BE96",
"..	c #D49350",
"+.	c #DFBA94",
"@.	c #CA8C4D",
"#.	c #D9B692",
"$.	c #C08549",
"%.	c #9A6A3A",
"&.	c #73502C",
"*.	c #D3B290",
"=.	c #B67F46",
"-.	c #6D4C2A",
";.	c #CDAE8E",
">.	c #AC7842",
",.	c #674828",
"'.	c #C7AA8C",
").	c #A2713F",
"!.	c #614426",
"~.	c #C1A689",
"{.	c #986A3B",
"].	c #5B4023",
"^.	c #B59E87",
"/.	c #4F3821",
"(.	c #845D37",
"_.	c #B69E87",
":.	c #855E37",
"<.	c #503821",
"[.	c #B69F87",
"}.	c #865F37",
"|.	c #503921",
"1.	c #B8A087",
"2.	c #886037",
"3.	c #6D4D2C",
"4.	c #523A21",
"5.	c #896037",
"6.	c #B9A087",
"7.	c #8A6137",
"8.	c #95816C",
"9.	c #BAA187",
"0.	c #4E371E",
". . . . . . . . . . . . . . . . . . . . . . . . . ",
"+ + + + + + + + + + + + + + + + + + + + + + + @ # ",
"$ $ $ $ $ $ $ $ $ $ $ $ $ $ $ $ $ $ $ $ $ $ $ % & ",
"* * = = = = = = = = = = = = = = = = = = = = = = * ",
"- ; > , , , , , , , , , , , , , , , , , , , , > ; ",
"' ) ! ~ ~ ~ ~ ~ ~ ~ ~ ~ ~ ~ ~ ~ ~ ~ ~ ~ ~ ~ ~ ! ) ",
"{ ] ^ / / / / / / / / / / / / / / / / / / / / ^ ] ",
"( _ : < < < < < [ } } < < < < } } [ < < < < < : _ ",
"| 1 2 3 3 3 3 3 4 5 5 4 3 3 4 5 5 4 3 3 3 3 3 2 1 ",
"6 7 8 9 9 9 9 9 0 5 5 5 0 0 5 5 5 0 9 9 9 9 9 8 7 ",
"a b c ( ( ( ( ( ( d 5 5 5 5 5 5 d ( ( ( ( ( ( c b ",
"e f g h h h h h h h i 5 5 5 5 i h h h h h h h g f ",
"j k l m m m m m m m n 5 5 5 5 n m m m m m m m l k ",
"o p q r r r r r r s 5 5 5 5 5 5 s r r r r r r q p ",
"t u v w w w w w x 5 5 5 x x 5 5 5 x w w w w w v u ",
"y z A B B B B B C 5 5 C B B C 5 5 C B B B B B A z ",
"D E F G G G G G H I I G G G G I I H G G G G G F E ",
"J K L M M M M M M M M M M M M M M M M M M M M L K ",
"N O P Q Q Q Q Q Q Q Q Q Q Q Q Q Q Q Q Q Q Q Q P O ",
"R S T U U U U U U U U U U U U U U U U U U U U T S ",
"V V W W W W W W W W W W W W W W W W W W W W W W V ",
"X X X X X X X X X X X X X X X X X X X X X X X X X ",
"j j j j j j j j j j j j j j j j j j j j j j j j j ",
"Y Y Y Y Y Y Y Y Y Y Y Y Y Y Y Y Y Y Y Y Y Y Y Y Y ",
". . . . . . . . . . . . . . . . . . . . . . . . . ",
"+ + + + + + + + + + + + + + + + + + + + + + + @ # ",
"$ $ $ $ $ $ $ $ $ $ $ $ $ $ $ $ $ $ $ $ $ $ $ % & ",
"* * = = = = = = = = = = = = = = = = = = = = = = * ",
"- ; Z ` ` ` ` ` ` ` ` ` ` ` ` ` ` ` ` ` ` ` ` Z ; ",
"' )  ......................................... .) ",
"{ ] +.@.@.@.@.@.@.@.@.@.@.@.@.@.@.@.@.@.@.@.@.+.] ",
"( _ #.$.$.$.$.$.%.&.&.$.$.$.$.&.&.%.$.$.$.$.$.#._ ",
"| 1 *.=.=.=.=.=.-.5 5 -.=.=.-.5 5 -.=.=.=.=.=.*.1 ",
"6 7 ;.>.>.>.>.>.,.5 5 5 ,.,.5 5 5 ,.>.>.>.>.>.;.7 ",
"a b '.).).).).).).!.5 5 5 5 5 5 !.).).).).).).'.b ",
"e f ~.{.{.{.{.{.{.{.].5 5 5 5 ].{.{.{.{.{.{.{.~.f ",
"j k ^.Y Y Y Y Y Y Y /.5 5 5 5 /.Y Y Y Y Y Y Y ^.k ",
"o p ^.(.(.(.(.(.(./.5 5 5 5 5 5 /.(.(.(.(.(.(.^.p ",
"t u _.:.:.:.:.:.<.5 5 5 <.<.5 5 5 <.:.:.:.:.:._.u ",
"y z [.}.}.}.}.}.|.5 5 |.}.}.|.5 5 |.}.}.}.}.}.[.z ",
"D E 1.2.2.2.2.2.3.4.4.2.2.2.2.4.4.3.2.2.2.2.2.1.E ",
"J K 1.5.5.5.5.5.5.5.5.5.5.5.5.5.5.5.5.5.5.5.5.1.K ",
"N O 6.7.7.7.7.7.7.7.7.7.7.7.7.7.7.7.7.7.7.7.7.6.O ",
"R S 8.9.9.9.9.9.9.9.9.9.9.9.9.9.9.9.9.9.9.9.9.8.S ",
"V V 0.0.0.0.0.0.0.0.0.0.0.0.0.0.0.0.0.0.0.0.0.0.V ",
"X X X X X X X X X X X X X X X X X X X X X X X X X ",
"j j j j j j j j j j j j j j j j j j j j j j j j j ",
"Y Y Y Y Y Y Y Y Y Y Y Y Y Y Y Y Y Y Y Y Y Y Y Y Y "};
