/* XPM */
static char * closeA_xpm[] = {
"25 48 89 1",
" 	c None",
".	c #614A33",
"+	c #F2C99F",
"@	c #F1C69A",
"#	c #E6BD93",
"$	c #E8AA6B",
"%	c #E9AE72",
"&	c #EAB27A",
"*	c #E5A766",
"=	c #7F5C38",
"-	c #E3A462",
";	c #7E5B36",
">	c #C4A98B",
",	c #F5D3AE",
"'	c #E0A05E",
")	c #7C5834",
"!	c #F2CEA9",
"~	c #E9AE70",
"{	c #DE9D5A",
"]	c #7B5732",
"^	c #EFCAA4",
"/	c #E4A768",
"(	c #DB9A56",
"_	c #795530",
":	c #EBC6A0",
"<	c #DEA060",
"[	c #B2804D",
"}	c #85603A",
"|	c #D89652",
"1	c #77532D",
"2	c #E8C29B",
"3	c #D99A58",
"4	c #825C35",
"5	c #FFFFFF",
"6	c #D6934E",
"7	c #76512B",
"8	c #E5BE96",
"9	c #D49350",
"0	c #7F5830",
"a	c #D3904A",
"b	c #755029",
"c	c #E2BA91",
"d	c #CE8C48",
"e	c #7C542B",
"f	c #D18C46",
"g	c #744D27",
"h	c #DFB68C",
"i	c #C98540",
"j	c #795026",
"k	c #C8823A",
"l	c #6F4820",
"m	c #D4AF88",
"n	c #B77939",
"o	c #6E4922",
"p	c #C9833B",
"q	c #6F4821",
"r	c #B87938",
"s	c #CA843D",
"t	c #704922",
"u	c #D5AF88",
"v	c #B97A38",
"w	c #6F4922",
"x	c #CB863E",
"y	c #704A22",
"z	c #D6AF88",
"A	c #BB7A38",
"B	c #CD8740",
"C	c #714B23",
"D	c #D7B088",
"E	c #BC7B38",
"F	c #96622D",
"G	c #714A22",
"H	c #CE8941",
"I	c #724C24",
"J	c #D8B088",
"K	c #BE7C38",
"L	c #CF8A43",
"M	c #724C25",
"N	c #D9B088",
"O	c #BF7C38",
"P	c #D18B45",
"Q	c #744D26",
"R	c #AE8E6D",
"S	c #DAB188",
"T	c #D28D46",
"U	c #6B461F",
"V	c #D38E48",
"W	c #835D37",
"X	c #000000",
".........................",
"+++++++++++++++++++++++@#",
"$$$$$$$$$$$$$$$$$$$$$$$%&",
"**======================*",
"-;>,,,,,,,,,,,,,,,,,,,,>;",
"')!~~~~~~~~~~~~~~~~~~~~!)",
"{]^////////////////////^]",
"(_:<<<<<[}}<<<<}}[<<<<<:_",
"|123333345543345543333321",
"6789999905550055509999987",
"abcdddddde555555eddddddcb",
"fghiiiiiiij5555jiiiiiiihg",
"klmnnnnnnno5555onnnnnnnml",
"pqmrrrrrro555555orrrrrrmq",
"stuvvvvvw555ww555wvvvvvut",
"xyzAAAAAt55tAAt55tAAAAAzy",
"BCDEEEEEFGGEEEEGGFEEEEEDC",
"HIJKKKKKKKKKKKKKKKKKKKKJI",
"LMNOOOOOOOOOOOOOOOOOOOONM",
"PQRSSSSSSSSSSSSSSSSSSSSRQ",
"TTUUUUUUUUUUUUUUUUUUUUUUT",
"VVVVVVVVVVVVVVVVVVVVVVVVV",
"kkkkkkkkkkkkkkkkkkkkkkkkk",
"WWWWWWWWWWWWWWWWWWWWWWWWW",
"XXXXXXXXXXXXXXXXXXXXXXXXX",
"XXXXXXXXXXXXXXXXXXXXXXXXX",
"XXXXXXXXXXXXXXXXXXXXXXXXX",
"XXXXXXXXXXXXXXXXXXXXXXXXX",
"XXXXXXXXXXXXXXXXXXXXXXXXX",
"XXXXXXXXXXXXXXXXXXXXXXXXX",
"XXXXXXXXXXXXXXXXXXXXXXXXX",
"XXXXXXXXXXXXXXXXXXXXXXXXX",
"XXXXXXXXXXXXXXXXXXXXXXXXX",
"XXXXXXXXXXXXXXXXXXXXXXXXX",
"XXXXXXXXXXXXXXXXXXXXXXXXX",
"XXXXXXXXXXXXXXXXXXXXXXXXX",
"XXXXXXXXXXXXXXXXXXXXXXXXX",
"XXXXXXXXXXXXXXXXXXXXXXXXX",
"XXXXXXXXXXXXXXXXXXXXXXXXX",
"XXXXXXXXXXXXXXXXXXXXXXXXX",
"XXXXXXXXXXXXXXXXXXXXXXXXX",
"XXXXXXXXXXXXXXXXXXXXXXXXX",
"XXXXXXXXXXXXXXXXXXXXXXXXX",
"XXXXXXXXXXXXXXXXXXXXXXXXX",
"XXXXXXXXXXXXXXXXXXXXXXXXX",
"XXXXXXXXXXXXXXXXXXXXXXXXX",
"XXXXXXXXXXXXXXXXXXXXXXXXX",
"XXXXXXXXXXXXXXXXXXXXXXXXX"};
