/* XPM */
static char * frameABR_xpm[] = {
"20 20 8 1",
" 	c None",
".	c #EFEBE7",
"+	c #D8CFC7",
"@	c #3D3A38",
"#	c #DCD4CC",
"$	c #45423E",
"%	c #EAE4DF",
"&	c #4B4642",
"               ...+@",
"               ...+@",
"               ...+@",
"               ...+@",
"               ...+@",
"               ...+@",
"               ...+@",
"               ...+@",
"               ...+@",
"               ...+@",
"               ...+@",
"               ...+@",
"               ...+@",
"               ...+@",
"               ...+@",
".................#$ ",
"................%#$ ",
"...............##&  ",
"+++++++++++++++$$   ",
"@@@@@@@@@@@@@@@     "};
