/* XPM */
static char * frameITL_xpm[] = {
"5 29 24 1",
" 	c None",
".	c #736A60",
"+	c #655E56",
"@	c #E8E8E5",
"#	c #F9F9F5",
"$	c #58524C",
"%	c #F8F8F4",
"&	c #F8F7F4",
"*	c #F8F6F2",
"=	c #F8F7F3",
"-	c #F7F5F1",
";	c #F6F4F1",
">	c #3D3A38",
",	c #FFFFFF",
"'	c #F6F5F2",
")	c #F5F3F0",
"!	c #F4F2EF",
"~	c #F4F1EE",
"{	c #F3F0EC",
"]	c #F2EFEB",
"^	c #F1EEEA",
"/	c #F0EDE9",
"(	c #EEE9E5",
"_	c #EEEAE6",
"     ",
"     ",
"     ",
"     ",
"     ",
"     ",
"   ..",
"  +@#",
" $%&*",
" $=-;",
">,'))",
">,)!!",
">,~~~",
">,{{{",
">,]]]",
">,^^^",
">,///",
">,(((",
">,(((",
">,(((",
">,(((",
">,(((",
">,(((",
">,(((",
">,___",
">,___",
">,___",
">,___",
">,___"};
