/* XPM */
static char * frameATR_xpm[] = {
"5 29 51 1",
" 	c None",
".	c #604931",
"+	c #6C5034",
"@	c #EDBB88",
"#	c #DDA265",
"$	c #614A32",
"%	c #E5A766",
"&	c #E9B47D",
"*	c #CF975D",
"=	c #614A33",
"-	c #E3A462",
";	c #DA9E5E",
">	c #574430",
",	c #E0A05E",
"'	c #D79A5A",
")	c #D5985A",
"!	c #423629",
"~	c #DE9D5A",
"{	c #D49656",
"]	c #DB9A56",
"^	c #D19352",
"/	c #322A22",
"(	c #D89652",
"_	c #CE8F4E",
":	c #D6934E",
"<	c #CC8C4A",
"[	c #D3904A",
"}	c #C98947",
"|	c #D18C46",
"1	c #C78543",
"2	c #C8823A",
"3	c #BF7C37",
"4	c #C9833B",
"5	c #C07D38",
"6	c #CA843D",
"7	c #C07E3A",
"8	c #CB863E",
"9	c #C1803B",
"0	c #CD8740",
"a	c #C3813D",
"b	c #CE8941",
"c	c #C4833E",
"d	c #CF8A43",
"e	c #C58440",
"f	c #D18B45",
"g	c #C78442",
"h	c #D28D46",
"i	c #C88643",
"j	c #D38E48",
"k	c #C98745",
"l	c #835D37",
"     ",
"     ",
"     ",
"     ",
"     ",
"     ",
".+   ",
"@#$  ",
"%&*= ",
"--;> ",
",,')!",
"~~~{!",
"]]]^/",
"(((_/",
":::</",
"[[[}/",
"|||1/",
"2223/",
"4445/",
"6667/",
"8889/",
"000a/",
"bbbc/",
"ddde/",
"fffg/",
"hhhi/",
"jjjk/",
"2222/",
"llll/"};
