/* XPM */
static char * frameABL_xpm[] = {
"20 20 19 1",
" 	c None",
".	c #555250",
"+	c #FFFFFF",
"@	c #F0ECE8",
"#	c #EFEBE7",
"$	c #F9F8F6",
"%	c #514F4B",
"&	c #F9F7F5",
"*	c #F5F2F1",
"=	c #514D49",
"-	c #E2DCD5",
";	c #E6E0DA",
">	c #484541",
",	c #464340",
"'	c #CDC3B9",
")	c #D1C8BF",
"!	c #D8CFC7",
"~	c #3E3B39",
"{	c #3D3A38",
".+@##               ",
".+@##               ",
".+@##               ",
".+@##               ",
".+@##               ",
".+@##               ",
".+@##               ",
".+@##               ",
".+@##               ",
".+@##               ",
".+@##               ",
".+@##               ",
".+@##               ",
".+@##               ",
".$@##               ",
" %&#################",
" %*#################",
"  =-;###############",
"   >,')!!!!!!!!!!!!!",
"     ~~{{{{{{{{{{{{{"};
