/* XPM */
static char * maximizeA_xpm[] = {
"26 48 83 1",
" 	c None",
".	c #614A33",
"+	c #F2C99F",
"@	c #E8AA6B",
"#	c #E5A766",
"$	c #7F5C38",
"%	c #E3A462",
"&	c #7E5B36",
"*	c #C4A98B",
"=	c #F5D3AE",
"-	c #E0A05E",
";	c #7C5834",
">	c #F2CEA9",
",	c #E9AE70",
"'	c #DE9D5A",
")	c #7B5732",
"!	c #EFCAA4",
"~	c #E4A768",
"{	c #DB9A56",
"]	c #795530",
"^	c #EBC6A0",
"/	c #DEA060",
"(	c #85603A",
"_	c #D89652",
":	c #77532D",
"<	c #E8C29B",
"[	c #D99A58",
"}	c #825C35",
"|	c #FFFFFF",
"1	c #D6934E",
"2	c #76512B",
"3	c #E5BE96",
"4	c #D49350",
"5	c #7F5830",
"6	c #D3904A",
"7	c #755029",
"8	c #E2BA91",
"9	c #CE8C48",
"0	c #7C542B",
"a	c #D18C46",
"b	c #744D27",
"c	c #DFB68C",
"d	c #C98540",
"e	c #795026",
"f	c #C8823A",
"g	c #6F4820",
"h	c #D4AF88",
"i	c #B77939",
"j	c #6E4922",
"k	c #C9833B",
"l	c #6F4821",
"m	c #B87938",
"n	c #CA843D",
"o	c #704922",
"p	c #D5AF88",
"q	c #B97A38",
"r	c #6F4922",
"s	c #CB863E",
"t	c #704A22",
"u	c #D6AF88",
"v	c #BB7A38",
"w	c #CD8740",
"x	c #714B23",
"y	c #D7B088",
"z	c #BC7B38",
"A	c #714A22",
"B	c #CE8941",
"C	c #724C24",
"D	c #D8B088",
"E	c #BE7C38",
"F	c #CF8A43",
"G	c #724C25",
"H	c #D9B088",
"I	c #BF7C38",
"J	c #D18B45",
"K	c #744D26",
"L	c #AE8E6D",
"M	c #DAB188",
"N	c #D28D46",
"O	c #6B461F",
"P	c #D38E48",
"Q	c #835D37",
"R	c #000000",
"..........................",
"++++++++++++++++++++++++++",
"@@@@@@@@@@@@@@@@@@@@@@@@@@",
"##$$$$$$$$$$$$$$$$$$$$$$##",
"%&*====================*&%",
"-;>,,,,,,,,,,,,,,,,,,,,>;-",
"')!~~~~~~~~~~~~~~~~~~~~!)'",
"{]^/////((((((((((/////^]{",
"_:<[[[[[}||||||||}[[[[[<:_",
"123444445||||||||544444321",
"678999990|000000|099999876",
"abcddddde|edddde|edddddcba",
"fghiiiiij|jiiiij|jiiiiihgf",
"klhmmmmmj|jmmmmj|jmmmmmhlk",
"nopqqqqqr|rrrrrr|rqqqqqpon",
"stuvvvvvo||||||||ovvvvvuts",
"wxyzzzzzAAAAAAAAAAzzzzzyxw",
"BCDEEEEEEEEEEEEEEEEEEEEDCB",
"FGHIIIIIIIIIIIIIIIIIIIIHGF",
"JKLMMMMMMMMMMMMMMMMMMMMLKJ",
"NNOOOOOOOOOOOOOOOOOOOOOONN",
"PPPPPPPPPPPPPPPPPPPPPPPPPP",
"ffffffffffffffffffffffffff",
"QQQQQQQQQQQQQQQQQQQQQQQQQQ",
"RRRRRRRRRRRRRRRRRRRRRRRRRR",
"RRRRRRRRRRRRRRRRRRRRRRRRRR",
"RRRRRRRRRRRRRRRRRRRRRRRRRR",
"RRRRRRRRRRRRRRRRRRRRRRRRRR",
"RRRRRRRRRRRRRRRRRRRRRRRRRR",
"RRRRRRRRRRRRRRRRRRRRRRRRRR",
"RRRRRRRRRRRRRRRRRRRRRRRRRR",
"RRRRRRRRRRRRRRRRRRRRRRRRRR",
"RRRRRRRRRRRRRRRRRRRRRRRRRR",
"RRRRRRRRRRRRRRRRRRRRRRRRRR",
"RRRRRRRRRRRRRRRRRRRRRRRRRR",
"RRRRRRRRRRRRRRRRRRRRRRRRRR",
"RRRRRRRRRRRRRRRRRRRRRRRRRR",
"RRRRRRRRRRRRRRRRRRRRRRRRRR",
"RRRRRRRRRRRRRRRRRRRRRRRRRR",
"RRRRRRRRRRRRRRRRRRRRRRRRRR",
"RRRRRRRRRRRRRRRRRRRRRRRRRR",
"RRRRRRRRRRRRRRRRRRRRRRRRRR",
"RRRRRRRRRRRRRRRRRRRRRRRRRR",
"RRRRRRRRRRRRRRRRRRRRRRRRRR",
"RRRRRRRRRRRRRRRRRRRRRRRRRR",
"RRRRRRRRRRRRRRRRRRRRRRRRRR",
"RRRRRRRRRRRRRRRRRRRRRRRRRR",
"RRRRRRRRRRRRRRRRRRRRRRRRRR"};
