/* XPM */
static char * maximizeI_xpm[] = {
"26 48 50 1",
" 	c None",
".	c #736A60",
"+	c #FFFFFF",
"@	c #F8F6F3",
"#	c #F7F5F2",
"$	c #898786",
"%	c #F6F4F1",
"&	c #888785",
"*	c #CCCCCC",
"=	c #F5F3F0",
"-	c #878685",
";	c #FEFDFD",
">	c #FDFCFC",
",	c #F4F2EF",
"'	c #878684",
")	c #FDFCFB",
"!	c #FBFAF9",
"~	c #F4F1EE",
"{	c #878584",
"]	c #FBFAFA",
"^	c #F9F7F6",
"/	c #F3F0EC",
"(	c #868582",
"_	c #FAF9F8",
":	c #F7F5F3",
"<	c #3C3B3A",
"[	c #F2EFEB",
"}	c #868482",
"|	c #F5F2F0",
"1	c #F1EEEA",
"2	c #858481",
"3	c #F8F6F4",
"4	c #F3F0ED",
"5	c #F0EDE9",
"6	c #858381",
"7	c #F7F4F2",
"8	c #F1EDEA",
"9	c #EEE9E5",
"0	c #84817F",
"a	c #ECE7E2",
"b	c #ECE7E3",
"c	c #ECE8E3",
"d	c #F4F1EF",
"e	c #EDE8E4",
"f	c #EDE9E4",
"g	c #EDE9E5",
"h	c #EEEAE6",
"i	c #C4C2BF",
"j	c #F5F2EF",
"k	c #000000",
"..........................",
"++++++++++++++++++++++++++",
"@@@@@@@@@@@@@@@@@@@@@@@@@@",
"##$$$$$$$$$$$$$$$$$$$$$$##",
"%&*++++++++++++++++++++*&%",
"=-;>>>>>>>>>>>>>>>>>>>>;-=",
",')!!!!!!!!!!!!!!!!!!!!)',",
"~{]^^^^^^^^^^^^^^^^^^^^]{~",
"/(_::::::<<<<<<<<::::::_(/",
"[}^||||||<<<<<<<<||||||^}[",
"123444444<444444<444444321",
"567888888<888888<888888765",
"90~aaaaaa<aaaaaa<aaaaaa~09",
"90~aaaaaa<aaaaaa<aaaaaa~09",
"90~bbbbbb<bbbbbb<bbbbbb~09",
"90~cccccc<<<<<<<<cccccc~09",
"90deeeeeeeeeeeeeeeeeeeed09",
"90,ffffffffffffffffffff,09",
"90,gggggggggggggggggggg,09",
"h0ijjjjjjjjjjjjjjjjjjjji0h",
"hh0000000000000000000000hh",
"hhhhhhhhhhhhhhhhhhhhhhhhhh",
"99999999999999999999999999",
"hhhhhhhhhhhhhhhhhhhhhhhhhh",
"kkkkkkkkkkkkkkkkkkkkkkkkkk",
"kkkkkkkkkkkkkkkkkkkkkkkkkk",
"kkkkkkkkkkkkkkkkkkkkkkkkkk",
"kkkkkkkkkkkkkkkkkkkkkkkkkk",
"kkkkkkkkkkkkkkkkkkkkkkkkkk",
"kkkkkkkkkkkkkkkkkkkkkkkkkk",
"kkkkkkkkkkkkkkkkkkkkkkkkkk",
"kkkkkkkkkkkkkkkkkkkkkkkkkk",
"kkkkkkkkkkkkkkkkkkkkkkkkkk",
"kkkkkkkkkkkkkkkkkkkkkkkkkk",
"kkkkkkkkkkkkkkkkkkkkkkkkkk",
"kkkkkkkkkkkkkkkkkkkkkkkkkk",
"kkkkkkkkkkkkkkkkkkkkkkkkkk",
"kkkkkkkkkkkkkkkkkkkkkkkkkk",
"kkkkkkkkkkkkkkkkkkkkkkkkkk",
"kkkkkkkkkkkkkkkkkkkkkkkkkk",
"kkkkkkkkkkkkkkkkkkkkkkkkkk",
"kkkkkkkkkkkkkkkkkkkkkkkkkk",
"kkkkkkkkkkkkkkkkkkkkkkkkkk",
"kkkkkkkkkkkkkkkkkkkkkkkkkk",
"kkkkkkkkkkkkkkkkkkkkkkkkkk",
"kkkkkkkkkkkkkkkkkkkkkkkkkk",
"kkkkkkkkkkkkkkkkkkkkkkkkkk",
"kkkkkkkkkkkkkkkkkkkkkkkkkk"};
