/* XPM */
static char * maximizeO_xpm[] = {
"26 48 128 2",
"  	c None",
". 	c #604931",
"+ 	c #F2C99F",
"@ 	c #E8AA6A",
"# 	c #E5A766",
"$ 	c #7F5C38",
"% 	c #E3A462",
"& 	c #7E5B36",
"* 	c #C8AE95",
"= 	c #FADABA",
"- 	c #E0A05E",
"; 	c #7C5834",
"> 	c #F7D6B5",
", 	c #F1BB83",
"' 	c #DE9D5A",
") 	c #7B5732",
"! 	c #F4D2AF",
"~ 	c #EDB47A",
"{ 	c #DB9A56",
"] 	c #795530",
"^ 	c #F1CEAA",
"/ 	c #E8AE71",
"( 	c #8B6844",
"_ 	c #D89652",
": 	c #77532D",
"< 	c #EFCAA4",
"[ 	c #E4A768",
"} 	c #89643E",
"| 	c #FFFFFF",
"1 	c #D6934E",
"2 	c #76512B",
"3 	c #ECC69F",
"4 	c #DFA05F",
"5 	c #866039",
"6 	c #D3904A",
"7 	c #755029",
"8 	c #E9C29A",
"9 	c #835C34",
"0 	c #D18C46",
"a 	c #744D27",
"b 	c #E6BE94",
"c 	c #D6934D",
"d 	c #80582E",
"e 	c #C8823A",
"f 	c #6F4820",
"g 	c #DCB288",
"h 	c #C47F38",
"i 	c #764C22",
"j 	c #C9833B",
"k 	c #6F4821",
"l 	c #DCB388",
"m 	c #C58039",
"n 	c #764D22",
"o 	c #CA843D",
"p 	c #704922",
"q 	c #DDB489",
"r 	c #C7823A",
"s 	c #774E23",
"t 	c #CB863E",
"u 	c #704A22",
"v 	c #DEB58A",
"w 	c #C8833C",
"x 	c #784F24",
"y 	c #CD8740",
"z 	c #714B23",
"A 	c #DFB68B",
"B 	c #CA853D",
"C 	c #795025",
"D 	c #CE8941",
"E 	c #724C24",
"F 	c #E0B68C",
"G 	c #CB863F",
"H 	c #CF8A43",
"I 	c #724C25",
"J 	c #E1B88C",
"K 	c #CD8840",
"L 	c #D18B45",
"M 	c #744D26",
"N 	c #B59372",
"O 	c #E2B88E",
"P 	c #D28D46",
"Q 	c #734D25",
"R 	c #D38E48",
"S 	c #835D37",
"T 	c #624C34",
"U 	c #F2C9A0",
"V 	c #E8AA6B",
"W 	c #E5A767",
"X 	c #805D39",
"Y 	c #BC9B7A",
"Z 	c #EBC298",
"` 	c #E5BE96",
" .	c #D49350",
"..	c #DFBA94",
"+.	c #CA8C4D",
"@.	c #D9B692",
"#.	c #C08549",
"$.	c #73502C",
"%.	c #D3B290",
"&.	c #B67F46",
"*.	c #6D4C2A",
"=.	c #CDAE8E",
"-.	c #AC7842",
";.	c #674828",
">.	c #C7AA8C",
",.	c #A2713F",
"'.	c #614426",
").	c #C1A689",
"!.	c #986A3B",
"~.	c #5B4023",
"{.	c #B59E87",
"].	c #4F3821",
"^.	c #845D37",
"/.	c #B69E87",
"(.	c #855E37",
"_.	c #503821",
":.	c #B69F87",
"<.	c #865F37",
"[.	c #503921",
"}.	c #B8A087",
"|.	c #886037",
"1.	c #523A21",
"2.	c #896037",
"3.	c #B9A087",
"4.	c #8A6137",
"5.	c #95816C",
"6.	c #BAA187",
"7.	c #4E371E",
". . . . . . . . . . . . . . . . . . . . . . . . . . ",
"+ + + + + + + + + + + + + + + + + + + + + + + + + + ",
"@ @ @ @ @ @ @ @ @ @ @ @ @ @ @ @ @ @ @ @ @ @ @ @ @ @ ",
"# # $ $ $ $ $ $ $ $ $ $ $ $ $ $ $ $ $ $ $ $ $ $ # # ",
"% & * = = = = = = = = = = = = = = = = = = = = * & % ",
"- ; > , , , , , , , , , , , , , , , , , , , , > ; - ",
"' ) ! ~ ~ ~ ~ ~ ~ ~ ~ ~ ~ ~ ~ ~ ~ ~ ~ ~ ~ ~ ~ ! ) ' ",
"{ ] ^ / / / / / ( ( ( ( ( ( ( ( ( ( / / / / / ^ ] { ",
"_ : < [ [ [ [ [ } | | | | | | | | } [ [ [ [ [ < : _ ",
"1 2 3 4 4 4 4 4 5 | | | | | | | | 5 4 4 4 4 4 3 2 1 ",
"6 7 8 { { { { { 9 | 9 9 9 9 9 9 | 9 { { { { { 8 7 6 ",
"0 a b c c c c c d | d c c c c d | d c c c c c b a 0 ",
"e f g h h h h h i | i h h h h i | i h h h h h g f e ",
"j k l m m m m m n | n m m m m n | n m m m m m l k j ",
"o p q r r r r r s | s s s s s s | s r r r r r q p o ",
"t u v w w w w w x | | | | | | | | x w w w w w v u t ",
"y z A B B B B B C C C C C C C C C C B B B B B A z y ",
"D E F G G G G G G G G G G G G G G G G G G G G F E D ",
"H I J K K K K K K K K K K K K K K K K K K K K J I H ",
"L M N O O O O O O O O O O O O O O O O O O O O N M L ",
"P P Q Q Q Q Q Q Q Q Q Q Q Q Q Q Q Q Q Q Q Q Q Q P P ",
"R R R R R R R R R R R R R R R R R R R R R R R R R R ",
"e e e e e e e e e e e e e e e e e e e e e e e e e e ",
"S S S S S S S S S S S S S S S S S S S S S S S S S S ",
"T T T T T T T T T T T T T T T T T T T T T T T T T T ",
"U U U U U U U U U U U U U U U U U U U U U U U U U U ",
"V V V V V V V V V V V V V V V V V V V V V V V V V V ",
"W W X X X X X X X X X X X X X X X X X X X X X X W W ",
"% & Y Z Z Z Z Z Z Z Z Z Z Z Z Z Z Z Z Z Z Z Z Y & % ",
"- ; `  . . . . . . . . . . . . . . . . . . . .` ; - ",
"' ) ..+.+.+.+.+.+.+.+.+.+.+.+.+.+.+.+.+.+.+.+...) ' ",
"{ ] @.#.#.#.#.#.$.$.$.$.$.$.$.$.$.$.#.#.#.#.#.@.] { ",
"_ : %.&.&.&.&.&.*.| | | | | | | | *.&.&.&.&.&.%.: _ ",
"1 2 =.-.-.-.-.-.;.| | | | | | | | ;.-.-.-.-.-.=.2 1 ",
"6 7 >.,.,.,.,.,.'.| '.'.'.'.'.'.| '.,.,.,.,.,.>.7 6 ",
"0 a ).!.!.!.!.!.~.| ~.!.!.!.!.~.| ~.!.!.!.!.!.).a 0 ",
"e f {.S S S S S ].| ].S S S S ].| ].S S S S S {.f e ",
"j k {.^.^.^.^.^.].| ].^.^.^.^.].| ].^.^.^.^.^.{.k j ",
"o p /.(.(.(.(.(._.| _._._._._._.| _.(.(.(.(.(./.p o ",
"t u :.<.<.<.<.<.[.| | | | | | | | [.<.<.<.<.<.:.u t ",
"y z }.|.|.|.|.|.1.1.1.1.1.1.1.1.1.1.|.|.|.|.|.}.z y ",
"D E }.2.2.2.2.2.2.2.2.2.2.2.2.2.2.2.2.2.2.2.2.}.E D ",
"H I 3.4.4.4.4.4.4.4.4.4.4.4.4.4.4.4.4.4.4.4.4.3.I H ",
"L M 5.6.6.6.6.6.6.6.6.6.6.6.6.6.6.6.6.6.6.6.6.5.M L ",
"P P 7.7.7.7.7.7.7.7.7.7.7.7.7.7.7.7.7.7.7.7.7.7.P P ",
"R R R R R R R R R R R R R R R R R R R R R R R R R R ",
"e e e e e e e e e e e e e e e e e e e e e e e e e e ",
"S S S S S S S S S S S S S S S S S S S S S S S S S S "};
