/* XPM */
static char * minimizeO_xpm[] = {
"26 48 112 2",
"  	c None",
". 	c #604931",
"+ 	c #F2C99F",
"@ 	c #E8AA6A",
"# 	c #E5A766",
"$ 	c #7F5C38",
"% 	c #E3A462",
"& 	c #7E5B36",
"* 	c #C8AE95",
"= 	c #FADABA",
"- 	c #E0A05E",
"; 	c #7C5834",
"> 	c #F7D6B5",
", 	c #F1BB83",
"' 	c #DE9D5A",
") 	c #7B5732",
"! 	c #F4D2AF",
"~ 	c #EDB47A",
"{ 	c #DB9A56",
"] 	c #795530",
"^ 	c #F1CEAA",
"/ 	c #E8AE71",
"( 	c #D89652",
"_ 	c #77532D",
": 	c #EFCAA4",
"< 	c #E4A768",
"[ 	c #D6934E",
"} 	c #76512B",
"| 	c #ECC69F",
"1 	c #DFA05F",
"2 	c #D3904A",
"3 	c #755029",
"4 	c #E9C29A",
"5 	c #D18C46",
"6 	c #744D27",
"7 	c #E6BE94",
"8 	c #D6934D",
"9 	c #C8823A",
"0 	c #6F4820",
"a 	c #DCB288",
"b 	c #C47F38",
"c 	c #C9833B",
"d 	c #6F4821",
"e 	c #DCB388",
"f 	c #C58039",
"g 	c #764D22",
"h 	c #CA843D",
"i 	c #704922",
"j 	c #DDB489",
"k 	c #C7823A",
"l 	c #774E23",
"m 	c #FFFFFF",
"n 	c #CB863E",
"o 	c #704A22",
"p 	c #DEB58A",
"q 	c #C8833C",
"r 	c #784F24",
"s 	c #CD8740",
"t 	c #714B23",
"u 	c #DFB68B",
"v 	c #CA853D",
"w 	c #795025",
"x 	c #CE8941",
"y 	c #724C24",
"z 	c #E0B68C",
"A 	c #CB863F",
"B 	c #CF8A43",
"C 	c #724C25",
"D 	c #E1B88C",
"E 	c #CD8840",
"F 	c #D18B45",
"G 	c #744D26",
"H 	c #B59372",
"I 	c #E2B88E",
"J 	c #D28D46",
"K 	c #734D25",
"L 	c #D38E48",
"M 	c #835D37",
"N 	c #BC9B7A",
"O 	c #EBC298",
"P 	c #E5BE96",
"Q 	c #D49350",
"R 	c #DFBA94",
"S 	c #CA8C4D",
"T 	c #D9B692",
"U 	c #C08549",
"V 	c #D3B290",
"W 	c #B67F46",
"X 	c #CDAE8E",
"Y 	c #AC7842",
"Z 	c #C7AA8C",
"` 	c #A2713F",
" .	c #C1A689",
"..	c #986A3B",
"+.	c #B59E87",
"@.	c #845D37",
"#.	c #4F3821",
"$.	c #B69E87",
"%.	c #855E37",
"&.	c #503821",
"*.	c #B69F87",
"=.	c #865F37",
"-.	c #503921",
";.	c #B8A087",
">.	c #886037",
",.	c #523A21",
"'.	c #896037",
").	c #B9A087",
"!.	c #8A6137",
"~.	c #95816C",
"{.	c #BAA187",
"].	c #4E371E",
". . . . . . . . . . . . . . . . . . . . . . . . . . ",
"+ + + + + + + + + + + + + + + + + + + + + + + + + + ",
"@ @ @ @ @ @ @ @ @ @ @ @ @ @ @ @ @ @ @ @ @ @ @ @ @ @ ",
"# # $ $ $ $ $ $ $ $ $ $ $ $ $ $ $ $ $ $ $ $ $ $ # # ",
"% & * = = = = = = = = = = = = = = = = = = = = * & % ",
"- ; > , , , , , , , , , , , , , , , , , , , , > ; - ",
"' ) ! ~ ~ ~ ~ ~ ~ ~ ~ ~ ~ ~ ~ ~ ~ ~ ~ ~ ~ ~ ~ ! ) ' ",
"{ ] ^ / / / / / / / / / / / / / / / / / / / / ^ ] { ",
"( _ : < < < < < < < < < < < < < < < < < < < < : _ ( ",
"[ } | 1 1 1 1 1 1 1 1 1 1 1 1 1 1 1 1 1 1 1 1 | } [ ",
"2 3 4 { { { { { { { { { { { { { { { { { { { { 4 3 2 ",
"5 6 7 8 8 8 8 8 8 8 8 8 8 8 8 8 8 8 8 8 8 8 8 7 6 5 ",
"9 0 a b b b b b b b b b b b b b b b b b b b b a 0 9 ",
"c d e f f f f f g g g g g g g g g g f f f f f e d c ",
"h i j k k k k k l m m m m m m m m l k k k k k j i h ",
"n o p q q q q q r m m m m m m m m r q q q q q p o n ",
"s t u v v v v v w w w w w w w w w w v v v v v u t s ",
"x y z A A A A A A A A A A A A A A A A A A A A z y x ",
"B C D E E E E E E E E E E E E E E E E E E E E D C B ",
"F G H I I I I I I I I I I I I I I I I I I I I H G F ",
"J J K K K K K K K K K K K K K K K K K K K K K K J J ",
"L L L L L L L L L L L L L L L L L L L L L L L L L L ",
"9 9 9 9 9 9 9 9 9 9 9 9 9 9 9 9 9 9 9 9 9 9 9 9 9 9 ",
"M M M M M M M M M M M M M M M M M M M M M M M M M M ",
". . . . . . . . . . . . . . . . . . . . . . . . . . ",
"+ + + + + + + + + + + + + + + + + + + + + + + + + + ",
"@ @ @ @ @ @ @ @ @ @ @ @ @ @ @ @ @ @ @ @ @ @ @ @ @ @ ",
"# # $ $ $ $ $ $ $ $ $ $ $ $ $ $ $ $ $ $ $ $ $ $ # # ",
"% & N O O O O O O O O O O O O O O O O O O O O N & % ",
"- ; P Q Q Q Q Q Q Q Q Q Q Q Q Q Q Q Q Q Q Q Q P ; - ",
"' ) R S S S S S S S S S S S S S S S S S S S S R ) ' ",
"{ ] T U U U U U U U U U U U U U U U U U U U U T ] { ",
"( _ V W W W W W W W W W W W W W W W W W W W W V _ ( ",
"[ } X Y Y Y Y Y Y Y Y Y Y Y Y Y Y Y Y Y Y Y Y X } [ ",
"2 3 Z ` ` ` ` ` ` ` ` ` ` ` ` ` ` ` ` ` ` ` ` Z 3 2 ",
"5 6  ......................................... .6 5 ",
"9 0 +.M M M M M M M M M M M M M M M M M M M M +.0 9 ",
"c d +.@.@.@.@.@.#.#.#.#.#.#.#.#.#.#.@.@.@.@.@.+.d c ",
"h i $.%.%.%.%.%.&.m m m m m m m m &.%.%.%.%.%.$.i h ",
"n o *.=.=.=.=.=.-.m m m m m m m m -.=.=.=.=.=.*.o n ",
"s t ;.>.>.>.>.>.,.,.,.,.,.,.,.,.,.,.>.>.>.>.>.;.t s ",
"x y ;.'.'.'.'.'.'.'.'.'.'.'.'.'.'.'.'.'.'.'.'.;.y x ",
"B C ).!.!.!.!.!.!.!.!.!.!.!.!.!.!.!.!.!.!.!.!.).C B ",
"F G ~.{.{.{.{.{.{.{.{.{.{.{.{.{.{.{.{.{.{.{.{.~.G F ",
"J J ].].].].].].].].].].].].].].].].].].].].].].J J ",
"L L L L L L L L L L L L L L L L L L L L L L L L L L ",
"9 9 9 9 9 9 9 9 9 9 9 9 9 9 9 9 9 9 9 9 9 9 9 9 9 9 ",
"M M M M M M M M M M M M M M M M M M M M M M M M M M "};
