/* XPM */
static char * minimizeI_xpm[] = {
"26 48 50 1",
" 	c None",
".	c #736A60",
"+	c #FFFFFF",
"@	c #F8F6F3",
"#	c #F7F5F2",
"$	c #898786",
"%	c #F6F4F1",
"&	c #888785",
"*	c #CCCCCC",
"=	c #F5F3F0",
"-	c #878685",
";	c #FEFDFD",
">	c #FDFCFC",
",	c #F4F2EF",
"'	c #878684",
")	c #FDFCFB",
"!	c #FBFAF9",
"~	c #F4F1EE",
"{	c #878584",
"]	c #FBFAFA",
"^	c #F9F7F6",
"/	c #F3F0EC",
"(	c #868582",
"_	c #FAF9F8",
":	c #F7F5F3",
"<	c #F2EFEB",
"[	c #868482",
"}	c #F5F2F0",
"|	c #F1EEEA",
"1	c #858481",
"2	c #F8F6F4",
"3	c #F3F0ED",
"4	c #F0EDE9",
"5	c #858381",
"6	c #F7F4F2",
"7	c #F1EDEA",
"8	c #EEE9E5",
"9	c #84817F",
"0	c #ECE7E2",
"a	c #ECE7E3",
"b	c #3C3B3A",
"c	c #ECE8E3",
"d	c #F4F1EF",
"e	c #EDE8E4",
"f	c #EDE9E4",
"g	c #EDE9E5",
"h	c #EEEAE6",
"i	c #C4C2BF",
"j	c #F5F2EF",
"k	c #000000",
"..........................",
"++++++++++++++++++++++++++",
"@@@@@@@@@@@@@@@@@@@@@@@@@@",
"##$$$$$$$$$$$$$$$$$$$$$$##",
"%&*++++++++++++++++++++*&%",
"=-;>>>>>>>>>>>>>>>>>>>>;-=",
",')!!!!!!!!!!!!!!!!!!!!)',",
"~{]^^^^^^^^^^^^^^^^^^^^]{~",
"/(_::::::::::::::::::::_(/",
"<[^}}}}}}}}}}}}}}}}}}}}^[<",
"|123333333333333333333321|",
"45677777777777777777777654",
"89~00000000000000000000~98",
"89~00000000000000000000~98",
"89~aaaaaabbbbbbbbaaaaaa~98",
"89~ccccccbbbbbbbbcccccc~98",
"89deeeeeeeeeeeeeeeeeeeed98",
"89,ffffffffffffffffffff,98",
"89,gggggggggggggggggggg,98",
"h9ijjjjjjjjjjjjjjjjjjjji9h",
"hh9999999999999999999999hh",
"hhhhhhhhhhhhhhhhhhhhhhhhhh",
"hhhhhhhhhhhhhhhhhhhhhhhhhh",
"hhhhhhhhhhhhhhhhhhhhhhhhhh",
"kkkkkkkkkkkkkkkkkkkkkkkkkk",
"kkkkkkkkkkkkkkkkkkkkkkkkkk",
"kkkkkkkkkkkkkkkkkkkkkkkkkk",
"kkkkkkkkkkkkkkkkkkkkkkkkkk",
"kkkkkkkkkkkkkkkkkkkkkkkkkk",
"kkkkkkkkkkkkkkkkkkkkkkkkkk",
"kkkkkkkkkkkkkkkkkkkkkkkkkk",
"kkkkkkkkkkkkkkkkkkkkkkkkkk",
"kkkkkkkkkkkkkkkkkkkkkkkkkk",
"kkkkkkkkkkkkkkkkkkkkkkkkkk",
"kkkkkkkkkkkkkkkkkkkkkkkkkk",
"kkkkkkkkkkkkkkkkkkkkkkkkkk",
"kkkkkkkkkkkkkkkkkkkkkkkkkk",
"kkkkkkkkkkkkkkkkkkkkkkkkkk",
"kkkkkkkkkkkkkkkkkkkkkkkkkk",
"kkkkkkkkkkkkkkkkkkkkkkkkkk",
"kkkkkkkkkkkkkkkkkkkkkkkkkk",
"kkkkkkkkkkkkkkkkkkkkkkkkkk",
"kkkkkkkkkkkkkkkkkkkkkkkkkk",
"kkkkkkkkkkkkkkkkkkkkkkkkkk",
"kkkkkkkkkkkkkkkkkkkkkkkkkk",
"kkkkkkkkkkkkkkkkkkkkkkkkkk",
"kkkkkkkkkkkkkkkkkkkkkkkkkk",
"kkkkkkkkkkkkkkkkkkkkkkkkkk"};
