/* XPM */
static char * restoreO_xpm[] = {
"26 48 119 2",
"  	c None",
". 	c #604931",
"+ 	c #F2C99F",
"@ 	c #E8AA6A",
"# 	c #E5A766",
"$ 	c #7F5C38",
"% 	c #E3A462",
"& 	c #7E5B36",
"* 	c #C8AE95",
"= 	c #FADABA",
"- 	c #E0A05E",
"; 	c #7C5834",
"> 	c #F7D6B5",
", 	c #F1BB83",
"' 	c #DE9D5A",
") 	c #7B5732",
"! 	c #F4D2AF",
"~ 	c #EDB47A",
"{ 	c #DB9A56",
"] 	c #795530",
"^ 	c #F1CEAA",
"/ 	c #E8AE71",
"( 	c #D89652",
"_ 	c #77532D",
": 	c #EFCAA4",
"< 	c #E4A768",
"[ 	c #89643E",
"} 	c #D6934E",
"| 	c #76512B",
"1 	c #ECC69F",
"2 	c #DFA05F",
"3 	c #866039",
"4 	c #FFFFFF",
"5 	c #D3904A",
"6 	c #755029",
"7 	c #E9C29A",
"8 	c #835C34",
"9 	c #D18C46",
"0 	c #744D27",
"a 	c #E6BE94",
"b 	c #D6934D",
"c 	c #80582E",
"d 	c #C8823A",
"e 	c #6F4820",
"f 	c #DCB288",
"g 	c #C47F38",
"h 	c #764C22",
"i 	c #C9833B",
"j 	c #6F4821",
"k 	c #DCB388",
"l 	c #C58039",
"m 	c #764D22",
"n 	c #CA843D",
"o 	c #704922",
"p 	c #DDB489",
"q 	c #C7823A",
"r 	c #774E23",
"s 	c #CB863E",
"t 	c #704A22",
"u 	c #DEB58A",
"v 	c #C8833C",
"w 	c #784F24",
"x 	c #CD8740",
"y 	c #714B23",
"z 	c #DFB68B",
"A 	c #CA853D",
"B 	c #CE8941",
"C 	c #724C24",
"D 	c #E0B68C",
"E 	c #CB863F",
"F 	c #CF8A43",
"G 	c #724C25",
"H 	c #E1B88C",
"I 	c #CD8840",
"J 	c #D18B45",
"K 	c #744D26",
"L 	c #B59372",
"M 	c #E2B88E",
"N 	c #D28D46",
"O 	c #734D25",
"P 	c #D38E48",
"Q 	c #835D37",
"R 	c #BC9B7A",
"S 	c #EBC298",
"T 	c #E5BE96",
"U 	c #D49350",
"V 	c #DFBA94",
"W 	c #CA8C4D",
"X 	c #D9B692",
"Y 	c #C08549",
"Z 	c #D3B290",
"` 	c #B67F46",
" .	c #6D4C2A",
"..	c #CDAE8E",
"+.	c #AC7842",
"@.	c #674828",
"#.	c #C7AA8C",
"$.	c #A2713F",
"%.	c #614426",
"&.	c #C1A689",
"*.	c #986A3B",
"=.	c #5B4023",
"-.	c #B59E87",
";.	c #4F3821",
">.	c #845D37",
",.	c #B69E87",
"'.	c #855E37",
").	c #503821",
"!.	c #B69F87",
"~.	c #865F37",
"{.	c #503921",
"].	c #B8A087",
"^.	c #886037",
"/.	c #896037",
"(.	c #B9A087",
"_.	c #8A6137",
":.	c #95816C",
"<.	c #BAA187",
"[.	c #4E371E",
". . . . . . . . . . . . . . . . . . . . . . . . . . ",
"+ + + + + + + + + + + + + + + + + + + + + + + + + + ",
"@ @ @ @ @ @ @ @ @ @ @ @ @ @ @ @ @ @ @ @ @ @ @ @ @ @ ",
"# # $ $ $ $ $ $ $ $ $ $ $ $ $ $ $ $ $ $ $ $ $ $ # # ",
"% & * = = = = = = = = = = = = = = = = = = = = * & % ",
"- ; > , , , , , , , , , , , , , , , , , , , , > ; - ",
"' ) ! ~ ~ ~ ~ ~ ~ ~ ~ ~ ~ ~ ~ ~ ~ ~ ~ ~ ~ ~ ~ ! ) ' ",
"{ ] ^ / / / / / / / / / / / / / / / / / / / / ^ ] { ",
"( _ : < < < < < < [ [ [ [ [ [ [ [ < < < < < < : _ ( ",
"} | 1 2 2 2 2 2 2 3 4 4 4 4 4 4 3 2 2 2 2 2 2 1 | } ",
"5 6 7 { { { { { { 8 4 4 4 4 4 4 8 { { { { { { 7 6 5 ",
"9 0 a b b b b b b c 4 c c c c 4 c b b b b b b a 0 9 ",
"d e f g g g g g g h 4 h g g h 4 h g g g g g g f e d ",
"i j k l l l l l l m 4 m m m m 4 m l l l l l l k j i ",
"n o p q q q q q q r 4 4 4 4 4 4 r q q q q q q p o n ",
"s t u v v v v v v w w w w w w w w v v v v v v u t s ",
"x y z A A A A A A A A A A A A A A A A A A A A z y x ",
"B C D E E E E E E E E E E E E E E E E E E E E D C B ",
"F G H I I I I I I I I I I I I I I I I I I I I H G F ",
"J K L M M M M M M M M M M M M M M M M M M M M L K J ",
"N N O O O O O O O O O O O O O O O O O O O O O O N N ",
"P P P P P P P P P P P P P P P P P P P P P P P P P P ",
"d d d d d d d d d d d d d d d d d d d d d d d d d d ",
"Q Q Q Q Q Q Q Q Q Q Q Q Q Q Q Q Q Q Q Q Q Q Q Q Q Q ",
". . . . . . . . . . . . . . . . . . . . . . . . . . ",
"+ + + + + + + + + + + + + + + + + + + + + + + + + + ",
"@ @ @ @ @ @ @ @ @ @ @ @ @ @ @ @ @ @ @ @ @ @ @ @ @ @ ",
"# # $ $ $ $ $ $ $ $ $ $ $ $ $ $ $ $ $ $ $ $ $ $ # # ",
"% & R S S S S S S S S S S S S S S S S S S S S R & % ",
"- ; T U U U U U U U U U U U U U U U U U U U U T ; - ",
"' ) V W W W W W W W W W W W W W W W W W W W W V ) ' ",
"{ ] X Y Y Y Y Y Y Y Y Y Y Y Y Y Y Y Y Y Y Y Y X ] { ",
"( _ Z ` ` ` ` ` `  . . . . . . . .` ` ` ` ` ` Z _ ( ",
"} | ..+.+.+.+.+.+.@.4 4 4 4 4 4 @.+.+.+.+.+.+...| } ",
"5 6 #.$.$.$.$.$.$.%.4 4 4 4 4 4 %.$.$.$.$.$.$.#.6 5 ",
"9 0 &.*.*.*.*.*.*.=.4 =.=.=.=.4 =.*.*.*.*.*.*.&.0 9 ",
"d e -.Q Q Q Q Q Q ;.4 ;.Q Q ;.4 ;.Q Q Q Q Q Q -.e d ",
"i j -.>.>.>.>.>.>.;.4 ;.;.;.;.4 ;.>.>.>.>.>.>.-.j i ",
"n o ,.'.'.'.'.'.'.).4 4 4 4 4 4 ).'.'.'.'.'.'.,.o n ",
"s t !.~.~.~.~.~.~.{.{.{.{.{.{.{.{.~.~.~.~.~.~.!.t s ",
"x y ].^.^.^.^.^.^.^.^.^.^.^.^.^.^.^.^.^.^.^.^.].y x ",
"B C ]././././././././././././././././././././.].C B ",
"F G (._._._._._._._._._._._._._._._._._._._._.(.G F ",
"J K :.<.<.<.<.<.<.<.<.<.<.<.<.<.<.<.<.<.<.<.<.:.K J ",
"N N [.[.[.[.[.[.[.[.[.[.[.[.[.[.[.[.[.[.[.[.[.[.N N ",
"P P P P P P P P P P P P P P P P P P P P P P P P P P ",
"d d d d d d d d d d d d d d d d d d d d d d d d d d ",
"Q Q Q Q Q Q Q Q Q Q Q Q Q Q Q Q Q Q Q Q Q Q Q Q Q Q "};
