/* XPM */
static char * restoreA_xpm[] = {
"26 48 81 1",
" 	c None",
".	c #604931",
"+	c #F2C99F",
"@	c #E8AA6A",
"#	c #E5A766",
"$	c #7F5C38",
"%	c #E3A462",
"&	c #7E5B36",
"*	c #C4A98B",
"=	c #F5D3AE",
"-	c #E0A05E",
";	c #7C5834",
">	c #F2CEA9",
",	c #E9AE70",
"'	c #DE9D5A",
")	c #7B5732",
"!	c #EFCAA4",
"~	c #E4A768",
"{	c #DB9A56",
"]	c #795530",
"^	c #EBC6A0",
"/	c #DEA060",
"(	c #D89652",
"_	c #77532D",
":	c #E8C29B",
"<	c #D99A58",
"[	c #825C35",
"}	c #D6934E",
"|	c #76512B",
"1	c #E5BE96",
"2	c #D49350",
"3	c #7F5830",
"4	c #FFFFFF",
"5	c #D3904A",
"6	c #755029",
"7	c #E2BA91",
"8	c #CE8C48",
"9	c #7C542B",
"0	c #D18C46",
"a	c #744D27",
"b	c #DFB68C",
"c	c #C98540",
"d	c #795026",
"e	c #C8823A",
"f	c #6F4820",
"g	c #D4AF88",
"h	c #B77939",
"i	c #6E4922",
"j	c #C9833B",
"k	c #6F4821",
"l	c #B87938",
"m	c #CA843D",
"n	c #704922",
"o	c #D5AF88",
"p	c #B97A38",
"q	c #6F4922",
"r	c #CB863E",
"s	c #704A22",
"t	c #D6AF88",
"u	c #BB7A38",
"v	c #CD8740",
"w	c #714B23",
"x	c #D7B088",
"y	c #BC7B38",
"z	c #CE8941",
"A	c #724C24",
"B	c #D8B088",
"C	c #BE7C38",
"D	c #CF8A43",
"E	c #724C25",
"F	c #D9B088",
"G	c #BF7C38",
"H	c #D18B45",
"I	c #744D26",
"J	c #AE8E6D",
"K	c #DAB188",
"L	c #D28D46",
"M	c #6B461F",
"N	c #D38E48",
"O	c #835D37",
"P	c #000000",
"..........................",
"++++++++++++++++++++++++++",
"@@@@@@@@@@@@@@@@@@@@@@@@@@",
"##$$$$$$$$$$$$$$$$$$$$$$##",
"%&*====================*&%",
"-;>,,,,,,,,,,,,,,,,,,,,>;-",
"')!~~~~~~~~~~~~~~~~~~~~!)'",
"{]^////////////////////^]{",
"(_:<<<<<<[[[[[[[[<<<<<<:_(",
"}|1222222344444432222221|}",
"56788888894444449888888765",
"0abccccccd4dddd4dccccccba0",
"efghhhhhhi4ihhi4ihhhhhhgfe",
"jkglllllli4iiii4illllllgkj",
"mnoppppppq444444qpppppponm",
"rstuuuuuunnnnnnnnuuuuuutsr",
"vwxyyyyyyyyyyyyyyyyyyyyxwv",
"zABCCCCCCCCCCCCCCCCCCCCBAz",
"DEFGGGGGGGGGGGGGGGGGGGGFED",
"HIJKKKKKKKKKKKKKKKKKKKKJIH",
"LLMMMMMMMMMMMMMMMMMMMMMMLL",
"NNNNNNNNNNNNNNNNNNNNNNNNNN",
"eeeeeeeeeeeeeeeeeeeeeeeeee",
"OOOOOOOOOOOOOOOOOOOOOOOOOO",
"PPPPPPPPPPPPPPPPPPPPPPPPPP",
"PPPPPPPPPPPPPPPPPPPPPPPPPP",
"PPPPPPPPPPPPPPPPPPPPPPPPPP",
"PPPPPPPPPPPPPPPPPPPPPPPPPP",
"PPPPPPPPPPPPPPPPPPPPPPPPPP",
"PPPPPPPPPPPPPPPPPPPPPPPPPP",
"PPPPPPPPPPPPPPPPPPPPPPPPPP",
"PPPPPPPPPPPPPPPPPPPPPPPPPP",
"PPPPPPPPPPPPPPPPPPPPPPPPPP",
"PPPPPPPPPPPPPPPPPPPPPPPPPP",
"PPPPPPPPPPPPPPPPPPPPPPPPPP",
"PPPPPPPPPPPPPPPPPPPPPPPPPP",
"PPPPPPPPPPPPPPPPPPPPPPPPPP",
"PPPPPPPPPPPPPPPPPPPPPPPPPP",
"PPPPPPPPPPPPPPPPPPPPPPPPPP",
"PPPPPPPPPPPPPPPPPPPPPPPPPP",
"PPPPPPPPPPPPPPPPPPPPPPPPPP",
"PPPPPPPPPPPPPPPPPPPPPPPPPP",
"PPPPPPPPPPPPPPPPPPPPPPPPPP",
"PPPPPPPPPPPPPPPPPPPPPPPPPP",
"PPPPPPPPPPPPPPPPPPPPPPPPPP",
"PPPPPPPPPPPPPPPPPPPPPPPPPP",
"PPPPPPPPPPPPPPPPPPPPPPPPPP",
"PPPPPPPPPPPPPPPPPPPPPPPPPP"};
