/* XPM */
static char * closeA_xpm[] = {
"19 32 79 1",
" 	c None",
".	c #3B3832",
"+	c #3A3731",
"@	c #393731",
"#	c #383630",
"$	c #393630",
"%	c #383530",
"&	c #383631",
"*	c #393530",
"=	c #38352F",
"-	c #38342F",
";	c #37352F",
">	c #37342F",
",	c #36342E",
"'	c #36332E",
")	c #34332D",
"!	c #35332D",
"~	c #35322D",
"{	c #34322D",
"]	c #33312C",
"^	c #34312C",
"/	c #B9B7B2",
"(	c #7E7D78",
"_	c #7B7A75",
":	c #B9B8B2",
"<	c #33322C",
"[	c #32302B",
"}	c #7E7C78",
"|	c #B8B7B2",
"1	c #686661",
"2	c #7B7974",
"3	c #32302A",
"4	c #312F2A",
"5	c #312E2A",
"6	c #302E2A",
"7	c #302F2A",
"8	c #676560",
"9	c #B8B6B1",
"0	c #666560",
"a	c #302F29",
"b	c #302E29",
"c	c #2F2D29",
"d	c #2F2E29",
"e	c #656460",
"f	c #B7B6B1",
"g	c #65645F",
"h	c #302E28",
"i	c #302D29",
"j	c #2E2D28",
"k	c #2E2C28",
"l	c #2F2C28",
"m	c #7B7A76",
"n	c #5F5D59",
"o	c #605E59",
"p	c #797872",
"q	c #2E2C27",
"r	c #2D2B27",
"s	c #2C2C27",
"t	c #2C2B26",
"u	c #7B7975",
"v	c #2D2B26",
"w	c #6F6D69",
"x	c #B6B5B1",
"y	c #2C2A25",
"z	c #2B2A26",
"A	c #2C2A26",
"B	c #2B2B26",
"C	c #2A2924",
"D	c #2A2925",
"E	c #2A2825",
"F	c #2B2924",
"G	c #2B2925",
"H	c #292724",
"I	c #292824",
"J	c #282723",
"K	c #292823",
"L	c #292723",
"M	c #282824",
"N	c #24231F",
"...................",
"++@+++@@++++@++++++",
"#$##%#$&##$#$*$$###",
"=-;;;;;>;;;;-;>--;=",
",','''','',,,''''''",
")!~{{~){{~~{{!~!{{{",
"]]^^]]/(^]_:^]^]]]<",
"[[[[[[}|11|2[[[[[[3",
"44567478|90457a54a5",
"bbccccdeffgcccdbchi",
"jkkjljmfnofpkkkqjjj",
"rrstrrfurvwxrrsvrrv",
"yzAzyAyyBzAzzAzzzzz",
"CCCCDDEDCFFCDDGCDED",
"HIJIKHLMHIIIILIIHIK",
"NNNNNNNNNNNNNNNNNNN",
"...................",
"++@+++@@++++@++++++",
"#$##%#$&##$#$*$$###",
"=-;;;;;>;;;;-;>--;=",
",','''','',,,''''''",
")!~{{~){{~~{{!~!{{{",
"]]^^]]/(^]_:^]^]]]<",
"[[[[[[}|11|2[[[[[[3",
"44567478|90457a54a5",
"bbccccdeffgcccdbchi",
"jkkjljmfnofpkkkqjjj",
"rrstrrfurvwxrrsvrrv",
"yzAzyAyyBzAzzAzzzzz",
"CCCCDDEDCFFCDDGCDED",
"HIJIKHLMHIIIILIIHIK",
"NNNNNNNNNNNNNNNNNNN"};
