/* XPM */
static char * closeO_xpm[] = {
"19 32 72 1",
" 	c None",
".	c #3B3832",
"+	c #3A3731",
"@	c #393731",
"#	c #383630",
"$	c #393630",
"%	c #383530",
"&	c #383631",
"*	c #393530",
"=	c #38352F",
"-	c #38342F",
";	c #37352F",
">	c #37342F",
",	c #36342E",
"'	c #36332E",
")	c #34332D",
"!	c #35332D",
"~	c #35322D",
"{	c #34322D",
"]	c #33312C",
"^	c #34312C",
"/	c #F2F1EC",
"(	c #9E9D99",
"_	c #9A9994",
":	c #33322C",
"<	c #32302B",
"[	c #9E9D98",
"}	c #7F7D79",
"|	c #9A9893",
"1	c #32302A",
"2	c #312F2A",
"3	c #312E2A",
"4	c #302E2A",
"5	c #302F2A",
"6	c #7E7D78",
"7	c #302F29",
"8	c #302E29",
"9	c #2F2D29",
"0	c #2F2E29",
"a	c #7D7B77",
"b	c #302E28",
"c	c #302D29",
"d	c #2E2D28",
"e	c #2E2C28",
"f	c #2F2C28",
"g	c #9D9C97",
"h	c #74726E",
"i	c #75736E",
"j	c #989792",
"k	c #2E2C27",
"l	c #2D2B27",
"m	c #2C2C27",
"n	c #2C2B26",
"o	c #9C9B97",
"p	c #2D2B26",
"q	c #8B8985",
"r	c #2C2A25",
"s	c #2B2A26",
"t	c #2C2A26",
"u	c #2B2B26",
"v	c #2A2924",
"w	c #2A2925",
"x	c #2A2825",
"y	c #2B2924",
"z	c #2B2925",
"A	c #292724",
"B	c #292824",
"C	c #282723",
"D	c #292823",
"E	c #292723",
"F	c #282824",
"G	c #24231F",
"...................",
"++@+++@@++++@++++++",
"#$##%#$&##$#$*$$###",
"=-;;;;;>;;;;-;>--;=",
",','''','',,,''''''",
")!~{{~){{~~{{!~!{{{",
"]]^^]]/(^]_/^]^]]]:",
"<<<<<<[/}}/|<<<<<<1",
"22345256//623573273",
"8899990a//a999089bc",
"deedfdg/hi/jeeekddd",
"llmnll/olpq/llmpllp",
"rstsrtrrustsstsssss",
"vvvvwwxwvyyvwwzvwxw",
"ABCBDAEFABBBBEBBABD",
"GGGGGGGGGGGGGGGGGGG",
"...................",
"++@+++@@++++@++++++",
"#$##%#$&##$#$*$$###",
"=-;;;;;>;;;;-;>--;=",
",','''','',,,''''''",
")!~{{~){{~~{{!~!{{{",
"]]^^]]/(^]_/^]^]]]:",
"<<<<<<[/}}/|<<<<<<1",
"22345256//623573273",
"8899990a//a999089bc",
"deedfdg/hi/jeeekddd",
"llmnll/olpq/llmpllp",
"rstsrtrrustsstsssss",
"vvvvwwxwvyyvwwzvwxw",
"ABCBDAEFABBBBEBBABD",
"GGGGGGGGGGGGGGGGGGG"};
