/* XPM */
static char * closeI_xpm[] = {
"19 32 80 1",
" 	c None",
".	c #3B3832",
"+	c #3A3731",
"@	c #393731",
"#	c #383630",
"$	c #393630",
"%	c #383530",
"&	c #383631",
"*	c #393530",
"=	c #38352F",
"-	c #38342F",
";	c #37352F",
">	c #37342F",
",	c #36342E",
"'	c #36332E",
")	c #34332D",
"!	c #35332D",
"~	c #35322D",
"{	c #34322D",
"]	c #33312C",
"^	c #34312C",
"/	c #7F7D78",
"(	c #5E5C57",
"_	c #5C5A55",
":	c #7F7E78",
"<	c #33322C",
"[	c #32302B",
"}	c #5D5B57",
"|	c #7E7D78",
"1	c #504F4A",
"2	c #5B5954",
"3	c #32302A",
"4	c #312F2A",
"5	c #312E2A",
"6	c #302E2A",
"7	c #302F2A",
"8	c #504E49",
"9	c #7D7C77",
"0	c #7E7C77",
"a	c #4F4E49",
"b	c #302F29",
"c	c #302E29",
"d	c #2F2D29",
"e	c #2F2E29",
"f	c #4E4C48",
"g	c #4E4C47",
"h	c #302E28",
"i	c #302D29",
"j	c #2E2D28",
"k	c #2E2C28",
"l	c #2F2C28",
"m	c #5A5955",
"n	c #7C7A76",
"o	c #4A4844",
"p	c #4B4944",
"q	c #585751",
"r	c #2E2C27",
"s	c #2D2B27",
"t	c #2C2C27",
"u	c #2C2B26",
"v	c #7B7A75",
"w	c #5A5854",
"x	c #2D2B26",
"y	c #52514C",
"z	c #2C2A25",
"A	c #2B2A26",
"B	c #2C2A26",
"C	c #2B2B26",
"D	c #2A2924",
"E	c #2A2925",
"F	c #2A2825",
"G	c #2B2924",
"H	c #2B2925",
"I	c #292724",
"J	c #292824",
"K	c #282723",
"L	c #292823",
"M	c #292723",
"N	c #282824",
"O	c #24231F",
"...................",
"++@+++@@++++@++++++",
"#$##%#$&##$#$*$$###",
"=-;;;;;>;;;;-;>--;=",
",','''','',,,''''''",
")!~{{~){{~~{{!~!{{{",
"]]^^]]/(^]_:^]^]]]<",
"[[[[[[}|11|2[[[[[[3",
"4456747890a457b54b5",
"ccddddef99gdddecdhi",
"jkkjljmnopnqkkkrjjj",
"sstussvwsxyvsstxssx",
"zABAzBzzCABAABAAAAA",
"DDDDEEFEDGGDEEHDEFE",
"IJKJLIMNIJJJJMJJIJL",
"OOOOOOOOOOOOOOOOOOO",
"...................",
"++@+++@@++++@++++++",
"#$##%#$&##$#$*$$###",
"=-;;;;;>;;;;-;>--;=",
",','''','',,,''''''",
")!~{{~){{~~{{!~!{{{",
"]]^^]]/(^]_:^]^]]]<",
"[[[[[[}|11|2[[[[[[3",
"4456747890a457b54b5",
"ccddddef99gdddecdhi",
"jkkjljmnopnqkkkrjjj",
"sstussvwsxyvsstxssx",
"zABAzBzzCABAABAAAAA",
"DDDDEEFEDGGDEEHDEFE",
"IJKJLIMNIJJJJMJJIJL",
"OOOOOOOOOOOOOOOOOOO"};
