/* XPM */
static char * dframeATR_xpm[] = {
"6 42 86 1",
" 	c None",
".	c #3C3933",
"+	c #383530",
"@	c #645D5A",
"#	c #3C3833",
"$	c #3B3833",
"%	c #3B3832",
"&	c #373430",
"*	c #3B3732",
"=	c #3A3832",
"-	c #393732",
";	c #615B57",
">	c #5E5855",
",	c #393632",
"'	c #5B5552",
")	c #383631",
"!	c #58524F",
"~	c #373631",
"{	c #55504C",
"]	c #373531",
"^	c #524D49",
"/	c #363531",
"(	c #4E4A46",
"_	c #363431",
":	c #4B4643",
"<	c #484441",
"[	c #353430",
"}	c #353431",
"|	c #44413E",
"1	c #353330",
"2	c #403D3A",
"3	c #343330",
"4	c #3C3A37",
"5	c #343230",
"6	c #393734",
"7	c #34332F",
"8	c #34322F",
"9	c #333230",
"0	c #33332F",
"a	c #33322F",
"b	c #333330",
"c	c #33322E",
"d	c #33312F",
"e	c #33312E",
"f	c #32322F",
"g	c #32312E",
"h	c #32322E",
"i	c #32312F",
"j	c #31302E",
"k	c #31302D",
"l	c #32302E",
"m	c #32302D",
"n	c #312F2D",
"o	c #302F2D",
"p	c #302F2C",
"q	c #302E2D",
"r	c #302E2C",
"s	c #2F2E2C",
"t	c #2F2E2B",
"u	c #2E2E2B",
"v	c #2F2D2B",
"w	c #2E2D2C",
"x	c #2E2C2B",
"y	c #2F2D2A",
"z	c #2E2D2B",
"A	c #2E2C2A",
"B	c #2E2D2A",
"C	c #2D2B2A",
"D	c #2E2B2A",
"E	c #2D2C2A",
"F	c #2D2C29",
"G	c #2D2B29",
"H	c #2C2B29",
"I	c #2C2A29",
"J	c #2C2A2A",
"K	c #2C2A28",
"L	c #2D2A29",
"M	c #2B2929",
"N	c #2B2A29",
"O	c #2B2928",
"P	c #2C2928",
"Q	c #2B2927",
"R	c #2A2927",
"S	c #2A2928",
"T	c #2A2827",
"U	c #2B2827",
"..+   ",
"@@#+  ",
"$$%#& ",
"%%$$% ",
"%*===%",
"----;-",
"---->-",
",---',",
"))))!)",
"~~~){)",
"~~]~^~",
"]///(/",
"____:_",
"____<_",
"[}[[|}",
"[11121",
"333343",
"533367",
"3389_0",
"333333",
"553335",
"9a09ba",
"acadac",
"efgghi",
"jggggg",
"kjjklm",
"kkkjnk",
"opnpoo",
"opqqqr",
"psqsqr",
"tssstr",
"uvtvtw",
"vxvvyz",
"ABxAxA",
"CDAxxC",
"EEFCEG",
"HGHIHJ",
"IKHILI",
"MKIKKN",
"OOMPMP",
"OOOQOO",
"RSTORU"};
