/* XPM */
static char * maximizeO_xpm[] = {
"19 32 73 1",
" 	c None",
".	c #3B3832",
"+	c #3A3731",
"@	c #393731",
"#	c #383630",
"$	c #393630",
"%	c #383530",
"&	c #383631",
"*	c #393530",
"=	c #38352F",
"-	c #38342F",
";	c #37352F",
">	c #37342F",
",	c #36342E",
"'	c #36332E",
")	c #34332D",
"!	c #35332D",
"~	c #35322D",
"{	c #34322D",
"]	c #33312C",
"^	c #34312C",
"/	c #8B8984",
"(	c #33322C",
"_	c #32302B",
":	c #94938E",
"<	c #F2F1EC",
"[	c #8A8984",
"}	c #32302A",
"|	c #312F2A",
"1	c #312E2A",
"2	c #302E2A",
"3	c #302F2A",
"4	c #94928D",
"5	c #A5A39E",
"6	c #302F29",
"7	c #302E29",
"8	c #2F2D29",
"9	c #898883",
"0	c #93928D",
"a	c #2F2E29",
"b	c #93918C",
"c	c #93918D",
"d	c #302E28",
"e	c #302D29",
"f	c #2E2D28",
"g	c #2E2C28",
"h	c #2F2C28",
"i	c #888782",
"j	c #2F2D28",
"k	c #9B9A95",
"l	c #2E2C27",
"m	c #2D2B27",
"n	c #2C2C27",
"o	c #2C2B26",
"p	c #2D2C27",
"q	c #2D2B26",
"r	c #2C2B27",
"s	c #2C2A25",
"t	c #2B2A26",
"u	c #2C2A26",
"v	c #2B2B26",
"w	c #2A2924",
"x	c #2A2925",
"y	c #2A2825",
"z	c #2B2924",
"A	c #2B2925",
"B	c #292724",
"C	c #292824",
"D	c #282723",
"E	c #292823",
"F	c #292723",
"G	c #282824",
"H	c #24231F",
"...................",
"++@+++@@++++@++++++",
"#$##%#$&##$#$*$$###",
"=-;;;;;>;;;;-;>--;=",
",','''','',,,''''''",
")!~{{~){{~~{{!~!{{{",
"]]^^]]]]^/](^]^]]](",
"________:<[_______}",
"||123|34<5<41361|61",
"7788889<0ab<c8a78de",
"fggfhf<igjgk<gglfff",
"mmnommpmmqmrmmnqmmq",
"stutsussvtuttuttttt",
"wwwwxxyxwzzwxxAwxyx",
"BCDCEBFGBCCCCFCCBCE",
"HHHHHHHHHHHHHHHHHHH",
"...................",
"++@+++@@++++@++++++",
"#$##%#$&##$#$*$$###",
"=-;;;;;>;;;;-;>--;=",
",','''','',,,''''''",
")!~{{~){{~~{{!~!{{{",
"]]^^]]]]^/](^]^]]](",
"________:<[_______}",
"||123|34<5<41361|61",
"7788889<0ab<c8a78de",
"fggfhf<igjgk<gglfff",
"mmnommpmmqmrmmnqmmq",
"stutsussvtuttuttttt",
"wwwwxxyxwzzwxxAwxyx",
"BCDCEBFGBCCCCFCCBCE",
"HHHHHHHHHHHHHHHHHHH"};
