/* XPM */
static char * maximizeA_xpm[] = {
"19 32 74 1",
" 	c None",
".	c #3B3832",
"+	c #3A3731",
"@	c #393731",
"#	c #383630",
"$	c #393630",
"%	c #383530",
"&	c #383631",
"*	c #393530",
"=	c #38352F",
"-	c #38342F",
";	c #37352F",
">	c #37342F",
",	c #36342E",
"'	c #36332E",
")	c #34332D",
"!	c #35332D",
"~	c #35322D",
"{	c #34322D",
"]	c #33312C",
"^	c #34312C",
"/	c #716F6A",
"(	c #33322C",
"_	c #32302B",
":	c #777570",
"<	c #B8B7B2",
"[	c #706E69",
"}	c #32302A",
"|	c #312F2A",
"1	c #312E2A",
"2	c #302E2A",
"3	c #302F2A",
"4	c #76746F",
"5	c #82807B",
"6	c #302F29",
"7	c #302E29",
"8	c #2F2D29",
"9	c #6E6D68",
"0	c #B7B6B1",
"a	c #75746F",
"b	c #2F2E29",
"c	c #75736E",
"d	c #75736F",
"e	c #302E28",
"f	c #302D29",
"g	c #2E2D28",
"h	c #2E2C28",
"i	c #2F2C28",
"j	c #6D6C67",
"k	c #2F2D28",
"l	c #7A7974",
"m	c #2E2C27",
"n	c #2D2B27",
"o	c #2C2C27",
"p	c #2C2B26",
"q	c #2D2C27",
"r	c #2D2B26",
"s	c #2C2B27",
"t	c #2C2A25",
"u	c #2B2A26",
"v	c #2C2A26",
"w	c #2B2B26",
"x	c #2A2924",
"y	c #2A2925",
"z	c #2A2825",
"A	c #2B2924",
"B	c #2B2925",
"C	c #292724",
"D	c #292824",
"E	c #282723",
"F	c #292823",
"G	c #292723",
"H	c #282824",
"I	c #24231F",
"...................",
"++@+++@@++++@++++++",
"#$##%#$&##$#$*$$###",
"=-;;;;;>;;;;-;>--;=",
",','''','',,,''''''",
")!~{{~){{~~{{!~!{{{",
"]]^^]]]]^/](^]^]]](",
"________:<[_______}",
"||123|34<5<41361|61",
"77888890abc0d8b78ef",
"ghhgig0jhkhl0hhmggg",
"nnopnnqnnrnsnnornnr",
"tuvutvttwuvuuvuuuuu",
"xxxxyyzyxAAxyyBxyzy",
"CDEDFCGHCDDDDGDDCDF",
"IIIIIIIIIIIIIIIIIII",
"...................",
"++@+++@@++++@++++++",
"#$##%#$&##$#$*$$###",
"=-;;;;;>;;;;-;>--;=",
",','''','',,,''''''",
")!~{{~){{~~{{!~!{{{",
"]]^^]]]]^/](^]^]]](",
"________:<[_______}",
"||123|34<5<41361|61",
"77888890abc0d8b78ef",
"ghhgig0jhkhl0hhmggg",
"nnopnnqnnrnsnnornnr",
"tuvutvttwuvuuvuuuuu",
"xxxxyyzyxAAxyyBxyzy",
"CDEDFCGHCDDDDGDDCDF",
"IIIIIIIIIIIIIIIIIII"};
