/* XPM */
static char * maximizeI_xpm[] = {
"19 32 76 1",
" 	c None",
".	c #3B3832",
"+	c #3A3731",
"@	c #393731",
"#	c #383630",
"$	c #393630",
"%	c #383530",
"&	c #383631",
"*	c #393530",
"=	c #38352F",
"-	c #38342F",
";	c #37352F",
">	c #37342F",
",	c #36342E",
"'	c #36332E",
")	c #34332D",
"!	c #35332D",
"~	c #35322D",
"{	c #34322D",
"]	c #33312C",
"^	c #34312C",
"/	c #56544F",
"(	c #33322C",
"_	c #32302B",
":	c #595752",
"<	c #7E7D78",
"[	c #55534E",
"}	c #32302A",
"|	c #312F2A",
"1	c #312E2A",
"2	c #302E2A",
"3	c #302F2A",
"4	c #585651",
"5	c #7D7C77",
"6	c #5F5D58",
"7	c #302F29",
"8	c #302E29",
"9	c #2F2D29",
"0	c #52514C",
"a	c #7D7B77",
"b	c #565550",
"c	c #2F2E29",
"d	c #565450",
"e	c #302E28",
"f	c #302D29",
"g	c #2E2D28",
"h	c #2E2C28",
"i	c #2F2C28",
"j	c #7C7B76",
"k	c #52504C",
"l	c #2F2D28",
"m	c #595853",
"n	c #7C7A76",
"o	c #2E2C27",
"p	c #2D2B27",
"q	c #2C2C27",
"r	c #2C2B26",
"s	c #2D2C27",
"t	c #2D2B26",
"u	c #2C2B27",
"v	c #2C2A25",
"w	c #2B2A26",
"x	c #2C2A26",
"y	c #2B2B26",
"z	c #2A2924",
"A	c #2A2925",
"B	c #2A2825",
"C	c #2B2924",
"D	c #2B2925",
"E	c #292724",
"F	c #292824",
"G	c #282723",
"H	c #292823",
"I	c #292723",
"J	c #282824",
"K	c #24231F",
"...................",
"++@+++@@++++@++++++",
"#$##%#$&##$#$*$$###",
"=-;;;;;>;;;;-;>--;=",
",','''','',,,''''''",
")!~{{~){{~~{{!~!{{{",
"]]^^]]]]^/](^]^]]](",
"________:<[_______}",
"||123|3456541371|71",
"8899990abc/ad9c89ef",
"ghhgigjkhlhmnhhoggg",
"ppqrppspptpuppqtppt",
"vwxwvxvvywxwwxwwwww",
"zzzzAABAzCCzAADzABA",
"EFGFHEIJEFFFFIFFEFH",
"KKKKKKKKKKKKKKKKKKK",
"...................",
"++@+++@@++++@++++++",
"#$##%#$&##$#$*$$###",
"=-;;;;;>;;;;-;>--;=",
",','''','',,,''''''",
")!~{{~){{~~{{!~!{{{",
"]]^^]]]]^/](^]^]]](",
"________:<[_______}",
"||123|3456541371|71",
"8899990abc/ad9c89ef",
"ghhgigjkhlhmnhhoggg",
"ppqrppspptpuppqtppt",
"vwxwvxvvywxwwxwwwww",
"zzzzAABAzCCzAADzABA",
"EFGFHEIJEFFFFIFFEFH",
"KKKKKKKKKKKKKKKKKKK"};
