/* XPM */
static char * minimizeI_xpm[] = {
"19 32 76 1",
" 	c None",
".	c #3B3832",
"+	c #3A3731",
"@	c #393731",
"#	c #383630",
"$	c #393630",
"%	c #383530",
"&	c #383631",
"*	c #393530",
"=	c #38352F",
"-	c #38342F",
";	c #37352F",
">	c #37342F",
",	c #36342E",
"'	c #36332E",
")	c #34332D",
"!	c #35332D",
"~	c #35322D",
"{	c #34322D",
"]	c #33312C",
"^	c #34312C",
"/	c #33322C",
"(	c #32302B",
"_	c #7E7D78",
":	c #55534E",
"<	c #5C5B56",
"[	c #32302A",
"}	c #312F2A",
"|	c #312E2A",
"1	c #302E2A",
"2	c #302F2A",
"3	c #53524D",
"4	c #7E7C77",
"5	c #575651",
"6	c #312E29",
"7	c #585551",
"8	c #302F29",
"9	c #302E29",
"0	c #2F2D29",
"a	c #2F2E29",
"b	c #565450",
"c	c #7D7C77",
"d	c #5E5D58",
"e	c #7D7B76",
"f	c #302E28",
"g	c #302D29",
"h	c #2E2D28",
"i	c #2E2C28",
"j	c #2F2C28",
"k	c #55544F",
"l	c #52504C",
"m	c #2E2D27",
"n	c #2E2C27",
"o	c #2D2B27",
"p	c #2C2C27",
"q	c #2C2B26",
"r	c #2D2C27",
"s	c #514F4A",
"t	c #2C2B27",
"u	c #2D2B26",
"v	c #2C2A25",
"w	c #2B2A26",
"x	c #2C2A26",
"y	c #2B2B26",
"z	c #2A2924",
"A	c #2A2925",
"B	c #2A2825",
"C	c #2B2924",
"D	c #2B2925",
"E	c #292724",
"F	c #292824",
"G	c #282723",
"H	c #292823",
"I	c #292723",
"J	c #282824",
"K	c #24231F",
"...................",
"++@+++@@++++@++++++",
"#$##%#$&##$#$*$$###",
"=-;;;;;>;;;;-;>--;=",
",','''','',,,''''''",
")!~{{~){{~~{{!~!{{{",
"]]^^]]]]^]]/^]^]]]/",
"((((((_:(((<_((((([",
"}}|12}345654728|}8|",
"990000abcdeb00a90fg",
"hiihjhhikelmiiinhhh",
"oopqooroosotoopuoou",
"vwxwvxvvywxwwxwwwww",
"zzzzAABAzCCzAADzABA",
"EFGFHEIJEFFFFIFFEFH",
"KKKKKKKKKKKKKKKKKKK",
"...................",
"++@+++@@++++@++++++",
"#$##%#$&##$#$*$$###",
"=-;;;;;>;;;;-;>--;=",
",','''','',,,''''''",
")!~{{~){{~~{{!~!{{{",
"]]^^]]]]^]]/^]^]]]/",
"((((((_:(((<_((((([",
"}}|12}345654728|}8|",
"990000abcdeb00a90fg",
"hiihjhhikelmiiinhhh",
"oopqooroosotoopuoou",
"vwxwvxvvywxwwxwwwww",
"zzzzAABAzCCzAADzABA",
"EFGFHEIJEFFFFIFFEFH",
"KKKKKKKKKKKKKKKKKKK"};
