/* XPM */
static char * minimizeO_xpm[] = {
"19 32 73 1",
" 	c None",
".	c #3B3832",
"+	c #3A3731",
"@	c #393731",
"#	c #383630",
"$	c #393630",
"%	c #383530",
"&	c #383631",
"*	c #393530",
"=	c #38352F",
"-	c #38342F",
";	c #37352F",
">	c #37342F",
",	c #36342E",
"'	c #36332E",
")	c #34332D",
"!	c #35332D",
"~	c #35322D",
"{	c #34322D",
"]	c #33312C",
"^	c #34312C",
"/	c #33322C",
"(	c #32302B",
"_	c #F2F1EC",
":	c #8A8984",
"<	c #9D9C97",
"[	c #32302A",
"}	c #312F2A",
"|	c #312E2A",
"1	c #302E2A",
"2	c #302F2A",
"3	c #898883",
"4	c #93928D",
"5	c #312E29",
"6	c #94928D",
"7	c #302F29",
"8	c #302E29",
"9	c #2F2D29",
"0	c #2F2E29",
"a	c #93918D",
"b	c #A4A39E",
"c	c #302E28",
"d	c #302D29",
"e	c #2E2D28",
"f	c #2E2C28",
"g	c #2F2C28",
"h	c #92918C",
"i	c #888782",
"j	c #2E2D27",
"k	c #2E2C27",
"l	c #2D2B27",
"m	c #2C2C27",
"n	c #2C2B26",
"o	c #2D2C27",
"p	c #888681",
"q	c #2C2B27",
"r	c #2D2B26",
"s	c #2C2A25",
"t	c #2B2A26",
"u	c #2C2A26",
"v	c #2B2B26",
"w	c #2A2924",
"x	c #2A2925",
"y	c #2A2825",
"z	c #2B2924",
"A	c #2B2925",
"B	c #292724",
"C	c #292824",
"D	c #282723",
"E	c #292823",
"F	c #292723",
"G	c #282824",
"H	c #24231F",
"...................",
"++@+++@@++++@++++++",
"#$##%#$&##$#$*$$###",
"=-;;;;;>;;;;-;>--;=",
",','''','',,,''''''",
")!~{{~){{~~{{!~!{{{",
"]]^^]]]]^]]/^]^]]]/",
"((((((_:(((<_((((([",
"}}|12}3_454_627|}7|",
"8899990a_b_a99089cd",
"effegeefh_ijfffkeee",
"llmnllollplqllmrllr",
"stutsussvtuttuttttt",
"wwwwxxyxwzzwxxAwxyx",
"BCDCEBFGBCCCCFCCBCE",
"HHHHHHHHHHHHHHHHHHH",
"...................",
"++@+++@@++++@++++++",
"#$##%#$&##$#$*$$###",
"=-;;;;;>;;;;-;>--;=",
",','''','',,,''''''",
")!~{{~){{~~{{!~!{{{",
"]]^^]]]]^]]/^]^]]]/",
"((((((_:(((<_((((([",
"}}|12}3_454_627|}7|",
"8899990a_b_a99089cd",
"effegeefh_ijfffkeee",
"llmnllollplqllmrllr",
"stutsussvtuttuttttt",
"wwwwxxyxwzzwxxAwxyx",
"BCDCEBFGBCCCCFCCBCE",
"HHHHHHHHHHHHHHHHHHH"};
