/* XPM */
static char * minimizeA_xpm[] = {
"19 32 74 1",
" 	c None",
".	c #3B3832",
"+	c #3A3731",
"@	c #393731",
"#	c #383630",
"$	c #393630",
"%	c #383530",
"&	c #383631",
"*	c #393530",
"=	c #38352F",
"-	c #38342F",
";	c #37352F",
">	c #37342F",
",	c #36342E",
"'	c #36332E",
")	c #34332D",
"!	c #35332D",
"~	c #35322D",
"{	c #34322D",
"]	c #33312C",
"^	c #34312C",
"/	c #33322C",
"(	c #32302B",
"_	c #B8B7B2",
":	c #706E69",
"<	c #7D7B76",
"[	c #32302A",
"}	c #312F2A",
"|	c #312E2A",
"1	c #302E2A",
"2	c #302F2A",
"3	c #6F6E69",
"4	c #75746F",
"5	c #312E29",
"6	c #76746F",
"7	c #302F29",
"8	c #302E29",
"9	c #2F2D29",
"0	c #2F2E29",
"a	c #75736F",
"b	c #B7B6B1",
"c	c #81807B",
"d	c #302E28",
"e	c #302D29",
"f	c #2E2D28",
"g	c #2E2C28",
"h	c #2F2C28",
"i	c #74736E",
"j	c #6D6C67",
"k	c #2E2D27",
"l	c #2E2C27",
"m	c #2D2B27",
"n	c #2C2C27",
"o	c #2C2B26",
"p	c #2D2C27",
"q	c #6D6B66",
"r	c #2C2B27",
"s	c #2D2B26",
"t	c #2C2A25",
"u	c #2B2A26",
"v	c #2C2A26",
"w	c #2B2B26",
"x	c #2A2924",
"y	c #2A2925",
"z	c #2A2825",
"A	c #2B2924",
"B	c #2B2925",
"C	c #292724",
"D	c #292824",
"E	c #282723",
"F	c #292823",
"G	c #292723",
"H	c #282824",
"I	c #24231F",
"...................",
"++@+++@@++++@++++++",
"#$##%#$&##$#$*$$###",
"=-;;;;;>;;;;-;>--;=",
",','''','',,,''''''",
")!~{{~){{~~{{!~!{{{",
"]]^^]]]]^]]/^]^]]]/",
"((((((_:(((<_((((([",
"}}|12}3_454_627|}7|",
"8899990abcba99089de",
"fggfhffgibjkggglfff",
"mmnommpmmqmrmmnsmms",
"tuvutvttwuvuuvuuuuu",
"xxxxyyzyxAAxyyBxyzy",
"CDEDFCGHCDDDDGDDCDF",
"IIIIIIIIIIIIIIIIIII",
"...................",
"++@+++@@++++@++++++",
"#$##%#$&##$#$*$$###",
"=-;;;;;>;;;;-;>--;=",
",','''','',,,''''''",
")!~{{~){{~~{{!~!{{{",
"]]^^]]]]^]]/^]^]]]/",
"((((((_:(((<_((((([",
"}}|12}3_454_627|}7|",
"8899990abcba99089de",
"fggfhffgibjkggglfff",
"mmnommpmmqmrmmnsmms",
"tuvutvttwuvuuvuuuuu",
"xxxxyyzyxAAxyyBxyzy",
"CDEDFCGHCDDDDGDDCDF",
"IIIIIIIIIIIIIIIIIII"};
