/* XPM */
static char * restoreA_xpm[] = {
"19 32 97 2",
"  	c None",
". 	c #3B3832",
"+ 	c #3A3731",
"@ 	c #393731",
"# 	c #383630",
"$ 	c #393630",
"% 	c #383530",
"& 	c #383631",
"* 	c #393530",
"= 	c #38352F",
"- 	c #38342F",
"; 	c #37352F",
"> 	c #37342F",
", 	c #373531",
"' 	c #54524D",
") 	c #41403B",
"! 	c #36342E",
"~ 	c #36332E",
"{ 	c #3C3B38",
"] 	c #BEBEBB",
"^ 	c #494843",
"/ 	c #34332D",
"( 	c #35332D",
"_ 	c #35322D",
": 	c #34322D",
"< 	c #45433F",
"[ 	c #BEBDBA",
"} 	c #4E4D49",
"| 	c #33312C",
"1 	c #34312C",
"2 	c #43423F",
"3 	c #BDBDBA",
"4 	c #4A4945",
"5 	c #474541",
"6 	c #3F3D39",
"7 	c #33322C",
"8 	c #32302B",
"9 	c #3A3936",
"0 	c #BBBAB6",
"a 	c #51504B",
"b 	c #32302A",
"c 	c #312F2A",
"d 	c #312E2A",
"e 	c #302E2A",
"f 	c #353431",
"g 	c #393936",
"h 	c #3D3C38",
"i 	c #42413D",
"j 	c #3C3B37",
"k 	c #42413E",
"l 	c #3A3836",
"m 	c #3C3C37",
"n 	c #302F29",
"o 	c #302E29",
"p 	c #2F2D29",
"q 	c #4D4C48",
"r 	c #BCBCB9",
"s 	c #B7B6B2",
"t 	c #2F2D28",
"u 	c #2F2E29",
"v 	c #302E28",
"w 	c #302D29",
"x 	c #2E2D28",
"y 	c #2E2C28",
"z 	c #3B3936",
"A 	c #41403D",
"B 	c #BCBBB9",
"C 	c #2E2D27",
"D 	c #2E2C27",
"E 	c #2D2B27",
"F 	c #2C2C27",
"G 	c #2C2B26",
"H 	c #2D2C27",
"I 	c #403F3C",
"J 	c #403F3B",
"K 	c #2C2B27",
"L 	c #2D2B26",
"M 	c #2C2A25",
"N 	c #2B2A26",
"O 	c #2C2A26",
"P 	c #B9B8B5",
"Q 	c #3F3F3B",
"R 	c #2A2924",
"S 	c #2A2925",
"T 	c #2A2825",
"U 	c #383834",
"V 	c #474743",
"W 	c #363431",
"X 	c #2B2924",
"Y 	c #2B2925",
"Z 	c #292724",
"` 	c #292824",
" .	c #282723",
"..	c #292823",
"+.	c #292723",
"@.	c #282824",
"#.	c #24231F",
". . . . . . . . . . . . . . . . . . . ",
"+ + @ + + + @ @ + + + + @ + + + + + + ",
"# $ # # % # $ & # # $ # $ * $ $ # # # ",
"= - ; ; ; ; ; > ; , ' ) - ; > - - ; = ",
"! ~ ! ~ ~ ~ ~ ! ~ { ] ^ ! ~ ~ ~ ~ ~ ~ ",
"/ ( _ : : _ / : : < [ } : ( _ ( : : : ",
"| | 1 1 | | | | 1 2 3 4 5 2 6 | | | 7 ",
"8 8 8 8 8 8 8 8 8 9 0 3 3 0 a 8 8 8 b ",
"c c d e f 9 g 9 h i j k l k m d c n d ",
"o o p p q r r r s { t p p p u o p v w ",
"x y y x z A A A B A y C y y y D x x x ",
"E E F G E E H I B J E K E E F L E E L ",
"M N O N M O M J P Q O N N O N N N N N ",
"R R R R S S T U V W X R S S Y R S T S ",
"Z `  .` ..Z +.@.Z ` ` ` ` +.` ` Z ` ..",
"#.#.#.#.#.#.#.#.#.#.#.#.#.#.#.#.#.#.#.",
". . . . . . . . . . . . . . . . . . . ",
"+ + @ + + + @ @ + + + + @ + + + + + + ",
"# $ # # % # $ & # # $ # $ * $ $ # # # ",
"= - ; ; ; ; ; > ; , ' ) - ; > - - ; = ",
"! ~ ! ~ ~ ~ ~ ! ~ { ] ^ ! ~ ~ ~ ~ ~ ~ ",
"/ ( _ : : _ / : : < [ } : ( _ ( : : : ",
"| | 1 1 | | | | 1 2 3 4 5 2 6 | | | 7 ",
"8 8 8 8 8 8 8 8 8 9 0 3 3 0 a 8 8 8 b ",
"c c d e f 9 g 9 h i j k l k m d c n d ",
"o o p p q r r r s { t p p p u o p v w ",
"x y y x z A A A B A y C y y y D x x x ",
"E E F G E E H I B J E K E E F L E E L ",
"M N O N M O M J P Q O N N O N N N N N ",
"R R R R S S T U V W X R S S Y R S T S ",
"Z `  .` ..Z +.@.Z ` ` ` ` +.` ` Z ` ..",
"#.#.#.#.#.#.#.#.#.#.#.#.#.#.#.#.#.#.#."};
