/* XPM */
static char * restoreI_xpm[] = {
"19 32 104 2",
"  	c None",
". 	c #3B3832",
"+ 	c #3A3731",
"@ 	c #393731",
"# 	c #383630",
"$ 	c #393630",
"% 	c #383530",
"& 	c #383631",
"* 	c #393530",
"= 	c #38352F",
"- 	c #38342F",
"; 	c #37352F",
"> 	c #37342F",
", 	c #373530",
"' 	c #474640",
") 	c #3D3B36",
"! 	c #36342E",
"~ 	c #36332E",
"{ 	c #393733",
"] 	c #84827E",
"^ 	c #413F3A",
"/ 	c #34332D",
"( 	c #35332D",
"_ 	c #35322D",
": 	c #34322D",
"< 	c #3E3B37",
"[ 	c #83817D",
"} 	c #43413D",
"| 	c #33312C",
"1 	c #34312C",
"2 	c #3C3B36",
"3 	c #82817D",
"4 	c #403F3A",
"5 	c #3F3C38",
"6 	c #3A3833",
"7 	c #33322C",
"8 	c #32302B",
"9 	c #373531",
"0 	c #807E7A",
"a 	c #81807C",
"b 	c #43423D",
"c 	c #32302A",
"d 	c #312F2A",
"e 	c #312E2A",
"f 	c #302E2A",
"g 	c #33322E",
"h 	c #363430",
"i 	c #353430",
"j 	c #373632",
"k 	c #3B3834",
"l 	c #363631",
"m 	c #3B3935",
"n 	c #3A3935",
"o 	c #373631",
"p 	c #302F29",
"q 	c #302E29",
"r 	c #2F2D29",
"s 	c #403E3B",
"t 	c #7F7E7B",
"u 	c #7F7F7B",
"v 	c #7D7C77",
"w 	c #363531",
"x 	c #2F2D28",
"y 	c #2F2E29",
"z 	c #302E28",
"A 	c #302D29",
"B 	c #2E2D28",
"C 	c #2E2C28",
"D 	c #363330",
"E 	c #383833",
"F 	c #383733",
"G 	c #7F7E7A",
"H 	c #393833",
"I 	c #2E2D27",
"J 	c #2E2C27",
"K 	c #2D2B27",
"L 	c #2C2C27",
"M 	c #2C2B26",
"N 	c #2D2C27",
"O 	c #383633",
"P 	c #7E7D7A",
"Q 	c #383632",
"R 	c #2C2B27",
"S 	c #2D2B26",
"T 	c #2C2A25",
"U 	c #2B2A26",
"V 	c #2C2A26",
"W 	c #7C7B77",
"X 	c #363532",
"Y 	c #2A2924",
"Z 	c #2A2925",
"` 	c #2A2825",
" .	c #32312E",
"..	c #3A3A36",
"+.	c #312F2B",
"@.	c #2B2924",
"#.	c #2B2925",
"$.	c #292724",
"%.	c #292824",
"&.	c #282723",
"*.	c #292823",
"=.	c #292723",
"-.	c #282824",
";.	c #24231F",
". . . . . . . . . . . . . . . . . . . ",
"+ + @ + + + @ @ + + + + @ + + + + + + ",
"# $ # # % # $ & # # $ # $ * $ $ # # # ",
"= - ; ; ; ; ; > ; , ' ) - ; > - - ; = ",
"! ~ ! ~ ~ ~ ~ ! ~ { ] ^ ! ~ ~ ~ ~ ~ ~ ",
"/ ( _ : : _ / : : < [ } : ( _ ( : : : ",
"| | 1 1 | | | | 1 2 3 4 5 2 6 | | | 7 ",
"8 8 8 8 8 8 8 8 8 9 0 a a 0 b 8 8 8 c ",
"d d e f g h i h j k l m h n o e d p e ",
"q q r r s t u t v w x r r r y q r z A ",
"B C C B D E E F G H C I C C C J B B B ",
"K K L M K K N O P Q K R K K L S K K S ",
"T U V U T V T 9 W X V U U V U U U U U ",
"Y Y Y Y Z Z `  ...+.@.Y Z Z #.Y Z ` Z ",
"$.%.&.%.*.$.=.-.$.%.%.%.%.=.%.%.$.%.*.",
";.;.;.;.;.;.;.;.;.;.;.;.;.;.;.;.;.;.;.",
". . . . . . . . . . . . . . . . . . . ",
"+ + @ + + + @ @ + + + + @ + + + + + + ",
"# $ # # % # $ & # # $ # $ * $ $ # # # ",
"= - ; ; ; ; ; > ; , ' ) - ; > - - ; = ",
"! ~ ! ~ ~ ~ ~ ! ~ { ] ^ ! ~ ~ ~ ~ ~ ~ ",
"/ ( _ : : _ / : : < [ } : ( _ ( : : : ",
"| | 1 1 | | | | 1 2 3 4 5 2 6 | | | 7 ",
"8 8 8 8 8 8 8 8 8 9 0 a a 0 b 8 8 8 c ",
"d d e f g h i h j k l m h n o e d p e ",
"q q r r s t u t v w x r r r y q r z A ",
"B C C B D E E F G H C I C C C J B B B ",
"K K L M K K N O P Q K R K K L S K K S ",
"T U V U T V T 9 W X V U U V U U U U U ",
"Y Y Y Y Z Z `  ...+.@.Y Z Z #.Y Z ` Z ",
"$.%.&.%.*.$.=.-.$.%.%.%.%.=.%.%.$.%.*.",
";.;.;.;.;.;.;.;.;.;.;.;.;.;.;.;.;.;.;."};
