/* XPM */
static char * restoreO_xpm[] = {
"19 32 92 2",
"  	c None",
". 	c #3B3832",
"+ 	c #3A3731",
"@ 	c #393731",
"# 	c #383630",
"$ 	c #393630",
"% 	c #383530",
"& 	c #383631",
"* 	c #393530",
"= 	c #38352F",
"- 	c #38342F",
"; 	c #37352F",
"> 	c #37342F",
", 	c #373632",
"' 	c #605F5A",
") 	c #464540",
"! 	c #36342E",
"~ 	c #36332E",
"{ 	c #3F3E3C",
"] 	c #F9F9F7",
"^ 	c #52514D",
"/ 	c #34332D",
"( 	c #35332D",
"_ 	c #35322D",
": 	c #34322D",
"< 	c #4C4A47",
"[ 	c #5A5955",
"} 	c #33312C",
"| 	c #34312C",
"1 	c #4B4A47",
"2 	c #535350",
"3 	c #4F4D4A",
"4 	c #44423F",
"5 	c #33322C",
"6 	c #32302B",
"7 	c #3E3D3B",
"8 	c #F6F5F2",
"9 	c #5F5E59",
"0 	c #32302A",
"a 	c #312F2A",
"b 	c #312E2A",
"c 	c #302E2A",
"d 	c #373734",
"e 	c #3D3D3B",
"f 	c #42423F",
"g 	c #4A4946",
"h 	c #41403D",
"i 	c #42413D",
"j 	c #302F29",
"k 	c #302E29",
"l 	c #2F2D29",
"m 	c #595956",
"n 	c #F1F0ED",
"o 	c #42413E",
"p 	c #2F2D28",
"q 	c #2F2E29",
"r 	c #302E28",
"s 	c #302D29",
"t 	c #2E2D28",
"u 	c #2E2C28",
"v 	c #413F3C",
"w 	c #494946",
"x 	c #494846",
"y 	c #2E2D27",
"z 	c #2E2C27",
"A 	c #2D2B27",
"B 	c #2C2C27",
"C 	c #2C2B26",
"D 	c #2D2C27",
"E 	c #494845",
"F 	c #2C2B27",
"G 	c #2D2B26",
"H 	c #2C2A25",
"I 	c #2B2A26",
"J 	c #2C2A26",
"K 	c #484844",
"L 	c #484845",
"M 	c #2A2924",
"N 	c #2A2925",
"O 	c #2A2825",
"P 	c #3F3E3B",
"Q 	c #545351",
"R 	c #3A3936",
"S 	c #2B2924",
"T 	c #2B2925",
"U 	c #292724",
"V 	c #292824",
"W 	c #282723",
"X 	c #292823",
"Y 	c #292723",
"Z 	c #282824",
"` 	c #24231F",
". . . . . . . . . . . . . . . . . . . ",
"+ + @ + + + @ @ + + + + @ + + + + + + ",
"# $ # # % # $ & # # $ # $ * $ $ # # # ",
"= - ; ; ; ; ; > ; , ' ) - ; > - - ; = ",
"! ~ ! ~ ~ ~ ~ ! ~ { ] ^ ! ~ ~ ~ ~ ~ ~ ",
"/ ( _ : : _ / : : < ] [ : ( _ ( : : : ",
"} } | | } } } } | 1 ] 2 3 1 4 } } } 5 ",
"6 6 6 6 6 6 6 6 6 7 8 ] ] 8 9 6 6 6 0 ",
"a a b c d 7 e 7 f g h g 7 g i b a j b ",
"k k l l m ] ] ] n o p l l l q k l r s ",
"t u u t v w w x ] w u y u u u z t t t ",
"A A B C A A D E ] E A F A A B G A A G ",
"H I J I H J H K 8 L J I I J I I I I I ",
"M M M M N N O P Q R S M N N T M N O N ",
"U V W V X U Y Z U V V V V Y V V U V X ",
"` ` ` ` ` ` ` ` ` ` ` ` ` ` ` ` ` ` ` ",
". . . . . . . . . . . . . . . . . . . ",
"+ + @ + + + @ @ + + + + @ + + + + + + ",
"# $ # # % # $ & # # $ # $ * $ $ # # # ",
"= - ; ; ; ; ; > ; , ' ) - ; > - - ; = ",
"! ~ ! ~ ~ ~ ~ ! ~ { ] ^ ! ~ ~ ~ ~ ~ ~ ",
"/ ( _ : : _ / : : < ] [ : ( _ ( : : : ",
"} } | | } } } } | 1 ] 2 3 1 4 } } } 5 ",
"6 6 6 6 6 6 6 6 6 7 8 ] ] 8 9 6 6 6 0 ",
"a a b c d 7 e 7 f g h g 7 g i b a j b ",
"k k l l m ] ] ] n o p l l l q k l r s ",
"t u u t v w w x ] w u y u u u z t t t ",
"A A B C A A D E ] E A F A A B G A A G ",
"H I J I H J H K 8 L J I I J I I I I I ",
"M M M M N N O P Q R S M N N T M N O N ",
"U V W V X U Y Z U V V V V Y V V U V X ",
"` ` ` ` ` ` ` ` ` ` ` ` ` ` ` ` ` ` ` "};
