/* XPM */
static char * titleIQ_xpm[] = {
"4 16 48 1",
" 	c None",
".	c #3B3832",
"+	c #645D5A",
"@	c #3A3731",
"#	c #383630",
"$	c #393631",
"%	c #38352F",
"&	c #383530",
"*	c #383631",
"=	c #36342E",
"-	c #37342F",
";	c #373530",
">	c #383531",
",	c #35332E",
"'	c #36342F",
")	c #34322D",
"!	c #33312C",
"~	c #35332F",
"{	c #363430",
"]	c #32302B",
"^	c #33312D",
"/	c #35322E",
"(	c #363330",
"_	c #312F2A",
":	c #32302C",
"<	c #33322D",
"[	c #34332F",
"}	c #2F2E29",
"|	c #31302B",
"1	c #32312D",
"2	c #2E2D28",
"3	c #302F2A",
"4	c #32312C",
"5	c #34332E",
"6	c #2D2C27",
"7	c #31302C",
"8	c #33322E",
"9	c #2C2B26",
"0	c #2E2D29",
"a	c #302F2B",
"b	c #32312E",
"c	c #2B2926",
"d	c #2D2B28",
"e	c #302E2B",
"f	c #32302D",
"g	c #24231F",
"h	c #282723",
"i	c #2C2B27",
"..+.",
"@@@+",
"##$$",
"%&#*",
"=-;>",
",';*",
"),';",
"!)~{",
"]^/(",
"_:<[",
"}|1[",
"2345",
"6}78",
"90ab",
"cdef",
"ghia"};
