/* XPM */
static char * titleIR_xpm[] = {
"8 16 65 1",
" 	c None",
".	c #3B3832",
"+	c #3A3731",
"@	c #393631",
"#	c #383630",
"$	c #383631",
"%	c #383530",
"&	c #38352F",
"*	c #383531",
"=	c #373530",
"-	c #37342F",
";	c #36342F",
">	c #36342E",
",	c #36352F",
"'	c #35342E",
")	c #35332E",
"!	c #34332D",
"~	c #34322D",
"{	c #33312C",
"]	c #363430",
"^	c #35332F",
"/	c #33312D",
"(	c #32302B",
"_	c #363330",
":	c #35322E",
"<	c #34322E",
"[	c #33302C",
"}	c #312F2A",
"|	c #34332F",
"1	c #33322D",
"2	c #32302C",
"3	c #31302B",
"4	c #302E29",
"5	c #33322E",
"6	c #32312D",
"7	c #32312C",
"8	c #302F2A",
"9	c #2F2E29",
"0	c #2E2D28",
"a	c #34332E",
"b	c #2F2D29",
"c	c #2D2B27",
"d	c #31302C",
"e	c #302F2B",
"f	c #2D2C27",
"g	c #2C2B26",
"h	c #32312E",
"i	c #31302D",
"j	c #2F2E2A",
"k	c #2E2D29",
"l	c #2B2A25",
"m	c #32302D",
"n	c #312F2C",
"o	c #302E2B",
"p	c #2F2D2A",
"q	c #2D2B28",
"r	c #2C2A27",
"s	c #2B2926",
"t	c #2A2825",
"u	c #2C2B27",
"v	c #2A2925",
"w	c #282723",
"x	c #252421",
"y	c #24231F",
"z	c #21201D",
"........",
"++++++++",
"@@@@####",
"$$##%&&&",
"*%==-;>>",
"$==,;')!",
"=;;))~~{",
"];^)~/{(",
"_^:</[(}",
"|<1/23}4",
"|5673890",
"a1738b0c",
"56de90fg",
"hiejkfgl",
"mnopqrst",
"ekuvwxyz"};
