/* XPM */
static char * titleIB_xpm[] = {
"1 16 13 1",
" 	c #3B3832",
".	c #3A3732",
"+	c #393732",
"@	c #393632",
"#	c #383631",
"$	c #383632",
"%	c #383532",
"&	c #363531",
"*	c #363530",
"=	c #353531",
"-	c #353431",
";	c #353330",
">	c #343330",
" ",
" ",
".",
"+",
"@",
"+",
"#",
"$",
"%",
"&",
"&",
"*",
"=",
"-",
";",
">"};
